<svg xmlns="http://www.w3.org/2000/svg" width="19" height="21" viewBox="0 0 19 21"><g><g><path fill="#1a5dc6" d="M12 14.131c.564 0 1 .44 1 1.01a.99.99 0 0 1-1 1.01.99.99 0 0 1-1-1.01.99.99 0 0 1 1-1.01zm0-2.018c-1.645 0-3 1.367-3 3.028 0 .884.392 1.678 1 2.233V21l2-1.262L14 21v-3.626c.608-.555 1-1.349 1-2.233 0-1.66-1.355-3.028-3-3.028zm-6 0v2.018h2v-2.018zm0-4.038v2.009h9V8.075zM3 0C1.346 0 0 1.359 0 3.028v3.028h2V18.17h5V16.15H4V6.056h11V3.028c0-.556.448-1.01 1-1.01.565 0 1 .44 1 1.01V18.17h2V3.029C19 1.367 17.645 0 16 0z"/></g></g></svg>