<svg xmlns="http://www.w3.org/2000/svg" width="19" height="18" viewBox="0 0 19 18"><g><g><path fill="#1a5dc6" d="M16.088 9.914l-7.793 7.793a.997.997 0 0 1-.707.293H5.564a.562.562 0 0 1-.562-.562v-2.024a1 1 0 0 1 .293-.707l7.793-7.793zm.882-5.66l1.778 1.777a.866.866 0 0 1 0 1.223L17.502 8.5l-3-3 1.246-1.246a.861.861 0 0 1 1.222 0zM11.997.974a1 1 0 0 1-.935 1.024c-1.303.08-3.746.347-5.748 1.059-1 .355-1.88.824-2.457 1.363-.576.539-.867 1.085-.867 1.855 0 1.041.283 1.317.766 1.881.482.564 1.246 1.457 1.246 2.844 0 1.2-.695 2.03-1.192 2.715-.497.684-.808 1.214-.808 1.607 0 .672.416.77.416.77a1 1 0 1 1-.832 1.816s-1.584-.82-1.584-2.586c0-1.22.688-2.088 1.191-2.781.503-.693.809-1.217.809-1.541 0-.763-.243-.933-.766-1.545C.713 8.844-.01 7.832-.01 6.275c0-1.345.623-2.495 1.5-3.316.877-.82 1.991-1.374 3.154-1.787C6.97.345 9.532.088 10.941.002a1 1 0 0 1 1.056.972z"/></g></g></svg>