<svg xmlns="http://www.w3.org/2000/svg" width="20" height="20" viewBox="0 0 20 20"><g><g><path fill="#1a5dc6" d="M2.67 14.003l-.513 1.803 1.369 1.346 1.882-.505.464-1.803-1.368-1.346zm9.205-1.767l4.697 4.616.563-.553-4.697-4.616zM7.713 9.664c-.493.572-.475 1.457.073 1.995l.282.265a1.56 1.56 0 0 0 1.346.408l.257.253c-.001.058.008.121.013.18l-1.751 1.719c.07.257.098.54.098.865 0 2.164-1.787 3.918-3.991 3.918S.037 17.513.037 15.35c0-2.163 1.8-3.93 4.003-3.93.27 0 .537.031.808.084l2.375-2.332zM3.848 1.647l-.16 1.046L9.805 8.69l.466-.457c.248-.244.78-.244 1.029 0l.27.264a.696.696 0 0 1 .159.757l-.086.24.858.842.184-.012c.452-.03.871.122 1.164.409l5.16 5.06c.791.777.785 2.066 0 2.872a2.116 2.116 0 0 1-1.483.613c-.55 0-1.073-.21-1.471-.6l-5.147-5.06a1.415 1.415 0 0 1-.43-1.142l.025-.18-.857-.842-.245.084a.77.77 0 0 1-.773-.156l-.27-.265a.728.728 0 0 1 0-1.01l.467-.456-6.116-5.998-1.066.157L0 .998.98.037zM16.098.133a.393.393 0 0 1 .257.276.387.387 0 0 1-.11.36l-2.086 2.044c-.12.135-.127.368 0 .493l2.085 2.031c.137.117.376.125.503 0l2.086-2.031a.398.398 0 0 1 .368-.108c.133.03.239.126.282.252.535 1.569-.613 3.978-1.668 5.012-.57.559-1.26.841-2.024.841-.621 0-1.298-.183-2-.552l-.834.817c-.05-.003-.098-.012-.147-.012l-.27-.277a1.456 1.456 0 0 0-.417-1.322l-.27-.276a1.53 1.53 0 0 0-1.067-.409c-.365 0-.706.12-.97.337l-.502-.481 1.398-1.37c-.895-1.498-.802-2.94.27-3.99C11.825.94 13.636.028 15.128 0a2.89 2.89 0 0 1 .97.132z"/></g></g></svg>