<svg xmlns="http://www.w3.org/2000/svg" width="20" height="19" viewBox="0 0 20 19"><g><g><path fill="#1a5dc6" d="M15.977 5.574c.008.142.023.283.023.426 0 4.411-4.037 8-9 8-.02 0-.04-.004-.059-.004C8.151 15.79 10.41 17 13 17c.961 0 1.877-.167 2.71-.467l2.265 1.697A.641.641 0 0 0 19 17.717v-3.639c.631-.9 1-1.951 1-3.078 0-2.4-1.647-4.466-4.023-5.426zM7 0C3.134 0 0 2.686 0 6c0 1.127.369 2.177 1 3.078v3.639c0 .529.604.831 1.027.513l2.262-1.697c.833.3 1.75.467 2.711.467 3.866 0 7-2.686 7-6s-3.134-6-7-6z"/></g></g></svg>