<svg xmlns="http://www.w3.org/2000/svg" width="19" height="18" viewBox="0 0 19 18"><g><g><path fill="#1a5dc6" d="M11 9a1 1 0 0 0 0 2h3a1 1 0 0 0 0-2zM6.5 9a.5.5 0 0 0-.5.5v1a.5.5 0 0 0 .5.5h1a.5.5 0 0 0 .5-.5v-1a.5.5 0 0 0-.5-.5zM11 5a1 1 0 0 0 0 2h3a1 1 0 0 0 0-2zM6.5 5a.5.5 0 0 0-.5.5v1a.5.5 0 0 0 .5.5h1a.5.5 0 0 0 .5-.5v-1a.5.5 0 0 0-.5-.5zM3 0a1 1 0 0 0-1 1v9a1 1 0 1 0 2 0V2h13v13c0 .565-.435 1-1 1-.552 0-1-.449-1-1v-1a1 1 0 0 0-1-1H1a1 1 0 0 0-1 1v1a3 3 0 0 0 3 3h13c1.645 0 3-1.355 3-3V1a1 1 0 0 0-1-1z"/></g></g></svg>