<?xml version="1.0" encoding="UTF-8"?>
<svg width="24px" height="24px" viewBox="0 0 24 24" version="1.1" xmlns="http://www.w3.org/2000/svg" xmlns:xlink="http://www.w3.org/1999/xlink">
    <!-- Generator: Sketch 60 (88103) - https://sketch.com -->
    <title>house</title>
    <desc>Created with Sketch.</desc>
    <g id="Landing" stroke="none" stroke-width="1" fill="none" fill-rule="evenodd">
        <g id="01-08" transform="translate(-670.000000, -759.000000)" fill-rule="nonzero">
            <g id="Affordability" transform="translate(408.000000, 659.000000)">
                <g id="Rent" transform="translate(222.000000, 100.000000)">
                    <g id="house" transform="translate(40.000000, 0.000000)">
                        <rect id="Rectangle" fill="#DFEBFF" x="0" y="0" width="24" height="24" rx="12"></rect>
                        <g id="Icons/16/rent_blue" transform="translate(4.000000, 4.000000)" fill="#1A5DC6">
                            <path d="M8,2 C8.17690909,2 8.336,2.072 8.45181818,2.18757895 L8.45181818,2.18757895 L8.45181818,2.18694737 L14.8708182,7.74610526 C14.9465455,7.80926316 15,7.89642105 15,8 C15,8.17431579 14.8574545,8.31578947 14.6818182,8.31578947 L14.6818182,8.31578947 L13.0909091,8.31578947 L13.0909091,13.3684211 C13.0909091,13.7170526 12.8058182,14 12.4545455,14 L12.4545455,14 L3.54545455,14 C3.19418182,14 2.90909091,13.7170526 2.90909091,13.3684211 L2.90909091,13.3684211 L2.90909091,8.31578947 L1.31818182,8.31578947 C1.14254545,8.31578947 1,8.17431579 1,8 C1,7.89642105 1.05345455,7.80926316 1.13109091,7.75115789 L1.13109091,7.75115789 L1.12918182,7.74610526 L7.54818182,2.18694737 C7.664,2.072 7.82309091,2 8,2 Z M8.086,5.939 L6.5425,5.939 L6.5425,11 L7.484,11 L7.484,9.0225 L7.8865,9.0225 C7.9798338,9.0225 8.05041643,9.03533321 8.09825,9.061 C8.14608357,9.08666679 8.18983314,9.12983303 8.2295,9.1905 L8.2295,9.1905 L9.2935,10.811 C9.33316687,10.871667 9.38158305,10.9183332 9.43875,10.951 C9.49591695,10.9836668 9.56533293,11 9.647,11 L9.647,11 L10.494,11 L9.227,9.131 C9.14066624,9.00499937 9.0380006,8.908167 8.919,8.8405 C9.09633422,8.78449972 9.25441597,8.7098338 9.39325,8.6165 C9.53208403,8.5231662 9.64874953,8.41466729 9.74325,8.291 C9.83775047,8.16733272 9.91008308,8.02966742 9.96025,7.878 C10.0104169,7.72633257 10.0355,7.56533418 10.0355,7.395 C10.0355,7.18033226 9.99875037,6.98375089 9.92525,6.80525 C9.85174963,6.62674911 9.73625079,6.47333397 9.57875,6.345 C9.42124921,6.21666603 9.2194179,6.11691702 8.97325,6.04575 C8.7270821,5.97458298 8.43133506,5.939 8.086,5.939 L8.086,5.939 Z M8.086,6.667 C8.43366841,6.667 8.69208249,6.73583264 8.86125,6.8735 C9.03041751,7.01116735 9.115,7.20833205 9.115,7.465 C9.115,7.59333398 9.09400021,7.71116613 9.052,7.8185 C9.00999979,7.92583387 8.94641709,8.01858294 8.86125,8.09675 C8.77608291,8.17491706 8.66758399,8.23616645 8.53575,8.2805 C8.40391601,8.32483355 8.24933422,8.347 8.072,8.347 L8.072,8.347 L7.484,8.347 L7.484,6.667 Z" id="Shape"></path>
                        </g>
                    </g>
                </g>
            </g>
        </g>
    </g>
</svg>