<?xml version="1.0" encoding="UTF-8"?>
<svg width="24px" height="24px" viewBox="0 0 24 24" version="1.1" xmlns="http://www.w3.org/2000/svg" xmlns:xlink="http://www.w3.org/1999/xlink">
    <!-- Generator: Sketch 60 (88103) - https://sketch.com -->
    <title>money</title>
    <desc>Created with Sketch.</desc>
    <g id="Landing" stroke="none" stroke-width="1" fill="none" fill-rule="evenodd">
        <g id="01-08" transform="translate(-857.000000, -759.000000)" fill-rule="nonzero">
            <g id="Affordability" transform="translate(408.000000, 659.000000)">
                <g id="Limit" transform="translate(422.000000, 100.000000)">
                    <g id="money" transform="translate(27.000000, 0.000000)">
                        <rect id="Rectangle" fill="#DFEBFF" x="0" y="0" width="24" height="24" rx="12"></rect>
                        <g id="Icons/16/limit_blue" transform="translate(4.000000, 4.000000)" fill="#1A5DC6">
                            <path d="M8,1 C7.80015,1 7.6002559,1.07572033 7.4476566,1.22832033 L5.484375,3.19160158 C5.259675,3.41630158 5.42020467,3.8 5.73730467,3.8 L7.3,3.8 L7.3,5.2 C7.2964298,5.45244514 7.42906271,5.68725696 7.64711099,5.81452141 C7.86515928,5.94178585 8.13484072,5.94178585 8.35288901,5.81452141 C8.57093729,5.68725696 8.7035702,5.45244514 8.7,5.2 L8.7,3.8 L10.2626954,3.8 C10.5797954,3.8 10.740325,3.41630158 10.515625,3.19160158 L8.5523434,1.22832033 C8.3997441,1.07572033 8.19985,1 8,1 Z M1.7,6.6 C1.3136,6.6 1,6.9136 1,7.3 L1,14.3 C1,14.6864 1.3136,15 1.7,15 L14.3,15 C14.6864,15 15,14.6864 15,14.3 L15,7.3 C15,6.9136 14.6864,6.6 14.3,6.6 L1.7,6.6 Z M3.03847658,8 L12.9615237,8 C13.067301,8.29814014 13.3018599,8.53269904 13.6,8.6384763 L13.6,12.9615237 C13.3018599,13.067301 13.067301,13.3018599 12.9615237,13.6 L3.03847658,13.6 C2.93269926,13.3018598 2.69814024,13.0673009 2.4,12.9615237 L2.4,8.6384763 C2.69814024,8.53269911 2.93269926,8.2981402 3.03847658,8 Z M8,8.7 C6.84020203,8.7 5.9,9.64020203 5.9,10.8 C5.9,11.959798 6.84020203,12.9 8,12.9 C9.15979797,12.9 10.1,11.959798 10.1,10.8 C10.1,9.64020203 9.15979797,8.7 8,8.7 Z M4.5,10.1 C4.1136,10.1 3.8,10.4129 3.8,10.8 C3.8,11.1871 4.1136,11.5 4.5,11.5 C4.8864,11.5 5.2,11.1871 5.2,10.8 C5.2,10.4129 4.8864,10.1 4.5,10.1 Z M11.5,10.1 C11.1136,10.1 10.8,10.4129 10.8,10.8 C10.8,11.1871 11.1136,11.5 11.5,11.5 C11.8864,11.5 12.2,11.1871 12.2,10.8 C12.2,10.4129 11.8864,10.1 11.5,10.1 Z" id="Shape"></path>
                        </g>
                    </g>
                </g>
            </g>
        </g>
    </g>
</svg>