<?xml version="1.0" encoding="UTF-8"?>
<svg width="24px" height="24px" viewBox="0 0 24 24" version="1.1" xmlns="http://www.w3.org/2000/svg" xmlns:xlink="http://www.w3.org/1999/xlink">
    <!-- Generator: Sketch 60 (88103) - https://sketch.com -->
    <title>moneys</title>
    <desc>Created with Sketch.</desc>
    <g id="Landing" stroke="none" stroke-width="1" fill="none" fill-rule="evenodd">
        <g id="01-08" transform="translate(-471.000000, -759.000000)" fill-rule="nonzero">
            <g id="Affordability" transform="translate(408.000000, 659.000000)">
                <g id="Income" transform="translate(24.000000, 100.000000)">
                    <g id="moneys" transform="translate(39.000000, 0.000000)">
                        <rect id="Rectangle" fill="#DFEBFF" x="0" y="0" width="24" height="24" rx="12"></rect>
                        <g id="Icons/16/cash_blue" transform="translate(4.000000, 4.000000)" fill="#1A5DC6">
                            <path d="M1.7,2 C1.3136,2 1,2.32355556 1,2.72222222 L1,9.94444444 C1,10.3431111 1.3136,10.6666667 1.7,10.6666667 L14.3,10.6666667 C14.6864,10.6666667 15,10.3431111 15,9.94444444 L15,2.72222222 C15,2.32355556 14.6864,2 14.3,2 L1.7,2 Z M3.03847658,3.44444444 L12.9615237,3.44444444 C13.0673009,3.75204946 13.3018598,3.99405479 13.6,4.10319012 L13.6,8.56347683 C13.3018599,8.67261211 13.067301,8.91461732 12.9615237,9.22222222 L3.03847658,9.22222222 C2.93269926,8.91461726 2.69814024,8.67261203 2.4,8.56347683 L2.4,4.10319012 C2.6981403,3.99405486 2.93269933,3.75204952 3.03847658,3.44444444 Z M8,4.16666667 C6.84020203,4.16666667 5.9,5.13671638 5.9,6.33333333 C5.9,7.52995029 6.84020203,8.5 8,8.5 C9.15979797,8.5 10.1,7.52995029 10.1,6.33333333 C10.1,5.13671638 9.15979797,4.16666667 8,4.16666667 Z M4.5,5.61111111 C4.1136,5.61111111 3.8,5.93394444 3.8,6.33333333 C3.8,6.73272222 4.1136,7.05555556 4.5,7.05555556 C4.8864,7.05555556 5.2,6.73272222 5.2,6.33333333 C5.2,5.93394444 4.8864,5.61111111 4.5,5.61111111 Z M11.5,5.61111111 C11.1136,5.61111111 10.8,5.93394444 10.8,6.33333333 C10.8,6.73272222 11.1136,7.05555556 11.5,7.05555556 C11.8864,7.05555556 12.2,6.73272222 12.2,6.33333333 C12.2,5.93394444 11.8864,5.61111111 11.5,5.61111111 Z M1,11.3888889 L1,12.8333333 L15,12.8333333 L15,11.3888889 L1,11.3888889 Z M1,13.5555556 L1,15 L15,15 L15,13.5555556 L1,13.5555556 Z" id="Shape"></path>
                        </g>
                    </g>
                </g>
            </g>
        </g>
    </g>
</svg>