<svg xmlns="http://www.w3.org/2000/svg" width="13" height="12" viewBox="0 0 13 12"><g><g><path fill="#fff" d="M6.5 1c.197 0 .385.068.53.191L8.5 2.447a.762.762 0 0 1 .72-.504h.76c.42 0 .762.337.762.75v1.57c.002.04.044.13.073.158l.95.81c.31.266.233.555.202.637-.03.083-.164.351-.576.351h-.649v4.03a.757.757 0 0 1-.761.751H3.018a.757.757 0 0 1-.761-.751v-4.03h-.65c-.41 0-.544-.268-.575-.35-.031-.083-.109-.372.203-.638l4.736-4.04A.816.816 0 0 1 6.5 1zm-.005.45a.353.353 0 0 0-.23.082l-4.731 4.04c-.128.109-.094.197.074.197h.8c.168 0 .305.134.305.3v4.18c0 .166.136.3.304.3h6.956a.302.302 0 0 0 .304-.3V6.035c0-.147.137-.266.305-.266h.8c.168 0 .202-.088.074-.197l-.948-.81a.743.743 0 0 1-.23-.497V2.694c0-.166-.137-.3-.305-.3h-.76a.303.303 0 0 0-.304.3v.402c0 .105-.042.163-.105.163-.036 0-.079-.02-.125-.059L6.725 1.532a.356.356 0 0 0-.23-.081z"/><path fill="none" stroke="#fff" stroke-miterlimit="50" stroke-width=".5" d="M6.5 1c.197 0 .385.068.53.191L8.5 2.447a.762.762 0 0 1 .72-.504h.76c.42 0 .762.337.762.75v1.57c.002.04.044.13.073.158l.95.81c.31.266.233.555.202.637-.03.083-.164.351-.576.351h-.649v4.03a.757.757 0 0 1-.761.751H3.018a.757.757 0 0 1-.761-.751v-4.03h-.65c-.41 0-.544-.268-.575-.35-.031-.083-.109-.372.203-.638l4.736-4.04A.816.816 0 0 1 6.5 1zm-.005.45a.353.353 0 0 0-.23.082l-4.731 4.04c-.128.109-.094.197.074.197h.8c.168 0 .305.134.305.3v4.18c0 .166.136.3.304.3h6.956a.302.302 0 0 0 .304-.3V6.035c0-.147.137-.266.305-.266h.8c.168 0 .202-.088.074-.197l-.948-.81a.743.743 0 0 1-.23-.497V2.694c0-.166-.137-.3-.305-.3h-.76a.303.303 0 0 0-.304.3v.402c0 .105-.042.163-.105.163-.036 0-.079-.02-.125-.059L6.725 1.532a.356.356 0 0 0-.23-.081z"/></g></g></svg>