<svg xmlns="http://www.w3.org/2000/svg" width="40" height="40" viewBox="0 0 40 40"><g><g><g><path fill="#fff" d="M20 40c11.046 0 20-8.954 20-20S31.046 0 20 0 0 8.954 0 20s8.954 20 20 20z"/></g><g><path fill="#ff8364" d="M20 37.5c9.665 0 17.5-7.835 17.5-17.5S29.665 2.5 20 2.5 2.5 10.335 2.5 20 10.335 37.5 20 37.5z"/></g><g><path fill="#fff" d="M17.591 26.25a.917.917 0 0 1-.662-.285l-4.154-4.307a1 1 0 0 1 0-1.377.913.913 0 0 1 1.325 0l3.491 3.62 8.31-8.616a.913.913 0 0 1 1.325 0 1 1 0 0 1-.001 1.378l-8.971 9.302a.917.917 0 0 1-.663.285"/></g></g></g></svg>