<?xml version="1.0" encoding="UTF-8"?>
<svg width="24px" height="12px" viewBox="0 0 24 12" version="1.1" xmlns="http://www.w3.org/2000/svg" xmlns:xlink="http://www.w3.org/1999/xlink">
    <!-- Generator: Sketch 60.1 (88133) - https://sketch.com -->
    <title>Eye</title>
    <desc>Created with Sketch.</desc>
    <g id="01-03-Apartment-Details" stroke="none" stroke-width="1" fill="none" fill-rule="evenodd">
        <g id="01-03-02-01-Listing-Page" transform="translate(-456.000000, -1018.000000)" fill="#666B7C" fill-rule="nonzero">
            <g id="Features" transform="translate(240.000000, 936.000000)">
                <g id="View" transform="translate(192.000000, 52.000000)">
                    <g id="Icons/view" transform="translate(24.000000, 30.000000)">
                        <g id="noun_View_1026829">
                            <g id="Eye">
                                <path d="M12.0571429,0.163636364 C7.57142857,0.163636364 3.37142857,2.1 0.2,5.61818182 C0.114285714,5.72727273 0.0571428571,5.86363636 0.0571428571,6 C0.0571428571,6.13636364 0.114285714,6.27272727 0.228571429,6.38181818 C3.4,9.9 7.6,11.8363636 12.0571429,11.8363636 C16.4285714,11.8363636 20.6,9.9 23.8285714,6.35454545 C24.0285714,6.13636364 24,5.83636364 23.8285714,5.64545455 C20.6,2.1 16.4,0.163636364 12.0571429,0.163636364 Z M12.0571429,10.7454545 C8.05714286,10.7454545 4.28571429,9.05454545 1.4,6 C4.28571429,2.94545455 8.05714286,1.25454545 12.0571429,1.25454545 C15.9428571,1.25454545 19.6571429,2.94545455 22.6285714,6 C19.6571429,9.05454545 15.9428571,10.7454545 12.0571429,10.7454545 Z" id="Shape"></path>
                                <path d="M12,1.63636364 C9.48571429,1.63636364 7.42857143,3.6 7.42857143,6 C7.42857143,8.4 9.48571429,10.3636364 12,10.3636364 C14.5142857,10.3636364 16.5714286,8.4 16.5714286,6 C16.5714286,3.6 14.5142857,1.63636364 12,1.63636364 Z M12,9.27272727 C10.1142857,9.27272727 8.57142857,7.8 8.57142857,6 C8.57142857,4.2 10.1142857,2.72727273 12,2.72727273 C13.8857143,2.72727273 15.4285714,4.2 15.4285714,6 C15.4285714,7.8 13.8857143,9.27272727 12,9.27272727 Z" id="Shape"></path>
                                <path d="M12,3.27272727 C10.4285714,3.27272727 9.14285714,4.5 9.14285714,6 C9.14285714,6.3 9.4,6.54545455 9.71428571,6.54545455 C10.0285714,6.54545455 10.2857143,6.3 10.2857143,6 C10.2857143,5.1 11.0571429,4.36363636 12,4.36363636 C12.3142857,4.36363636 12.5714286,4.11818182 12.5714286,3.81818182 C12.5714286,3.51818182 12.3142857,3.27272727 12,3.27272727 Z" id="Path"></path>
                            </g>
                        </g>
                    </g>
                </g>
            </g>
        </g>
    </g>
</svg>