<svg xmlns="http://www.w3.org/2000/svg" width="24" height="24" viewBox="0 0 24 24"><g><g><g><g><g><path fill="#666b7c" d="M12.06 10.742c-4 0-7.771-1.691-10.657-4.746C4.289 2.942 8.06 1.251 12.06 1.251c3.886 0 7.6 1.69 10.571 4.745-2.971 3.055-6.685 4.746-10.571 4.746zm0-10.582C7.574.16 3.374 2.096.203 5.615a.633.633 0 0 0-.143.381c0 .137.057.273.171.382 3.172 3.518 7.372 5.455 11.829 5.455 4.371 0 8.543-1.937 11.771-5.482a.52.52 0 0 0 0-.71C20.603 2.097 16.403.16 12.06.16z"/></g><g><path fill="#666b7c" d="M12.001 9.276c-1.885 0-3.428-1.472-3.428-3.272 0-1.8 1.543-3.273 3.428-3.273 1.886 0 3.429 1.473 3.429 3.273s-1.543 3.272-3.429 3.272zm0-7.636c-2.514 0-4.571 1.964-4.571 4.364s2.057 4.363 4.571 4.363c2.515 0 4.572-1.963 4.572-4.363 0-2.4-2.057-4.364-4.572-4.364z"/></g><g><path fill="#666b7c" d="M11.997 3.27c-1.571 0-2.857 1.227-2.857 2.727 0 .3.257.546.571.546a.56.56 0 0 0 .572-.546c0-.9.771-1.636 1.714-1.636a.56.56 0 0 0 .572-.546.56.56 0 0 0-.572-.545z"/></g></g></g></g></g></svg>