<svg xmlns="http://www.w3.org/2000/svg" width="24" height="24" viewBox="0 0 24 24"><g><g><g><g><path fill="#666b7c" d="M18.19 0a.846.846 0 0 0-.845.846v3.667H4.652V.846a.846.846 0 0 0-1.692 0v9.026a.846.846 0 1 0 1.692 0V6.205h12.693v3.667a.846.846 0 1 0 1.692 0V.846A.846.846 0 0 0 18.19 0z"/></g><g><path fill="#666b7c" d="M.986 2.82a.846.846 0 0 0-.846.846v3.385a.846.846 0 0 0 1.692 0V3.666a.846.846 0 0 0-.846-.846z"/></g><g><path fill="#666b7c" d="M21.016 2.82a.846.846 0 0 0-.846.846v3.385a.846.846 0 0 0 1.692 0V3.666a.846.846 0 0 0-.846-.846z"/></g></g></g></g></svg>