<svg xmlns="http://www.w3.org/2000/svg" width="19" height="20" viewBox="0 0 19 20"><g><g><path fill="#666b7c" d="M9.5 2.1l7.69 5.7V18h-4.654v-1.8c0-1.655-1.361-3-3.036-3s-3.036 1.345-3.036 3V18H1.81V7.8zm-.24-.825l-8.096 6A.405.405 0 0 0 1 7.6v10.8c0 .21.193.4.405.4h5.464c.212 0 .405-.19.405-.4v-2.2c0-1.226.986-2.2 2.226-2.2s2.226.974 2.226 2.2v2.2c0 .21.193.4.405.4h5.464c.212 0 .405-.19.405-.4V7.6a.408.408 0 0 0-.164-.325l-8.096-6c-.189-.111-.322-.088-.48 0z"/><path fill="none" stroke="#666b7c" stroke-miterlimit="50" stroke-width=".5" d="M9.5 2.1l7.69 5.7V18h-4.654v-1.8c0-1.655-1.361-3-3.036-3s-3.036 1.345-3.036 3V18H1.81V7.8zm-.24-.825l-8.096 6A.405.405 0 0 0 1 7.6v10.8c0 .21.193.4.405.4h5.464c.212 0 .405-.19.405-.4v-2.2c0-1.226.986-2.2 2.226-2.2s2.226.974 2.226 2.2v2.2c0 .21.193.4.405.4h5.464c.212 0 .405-.19.405-.4V7.6a.408.408 0 0 0-.164-.325l-8.096-6c-.189-.111-.322-.088-.48 0z"/></g></g></svg>