<?xml version="1.0" encoding="UTF-8"?>
<svg width="19px" height="19px" viewBox="0 0 19 19" version="1.1" xmlns="http://www.w3.org/2000/svg" xmlns:xlink="http://www.w3.org/1999/xlink">
    <!-- Generator: Sketch 60.1 (88133) - https://sketch.com -->
    <title>Home</title>
    <desc>Created with Sketch.</desc>
    <g id="01-03-Apartment-Details" stroke="none" stroke-width="1" fill="none" fill-rule="evenodd">
        <g id="01-03-02-01-Listing-Page" transform="translate(-555.000000, -1015.000000)" fill="#666B7C" fill-rule="nonzero" stroke="#666B7C" stroke-width="0.5">
            <g id="Features" transform="translate(240.000000, 936.000000)">
                <g id="Garage" transform="translate(288.000000, 52.000000)">
                    <g id="Icons/garage" transform="translate(28.000000, 27.000000)">
                        <g id="noun_House_671853">
                            <g id="Home" transform="translate(0.000000, 0.127564)">
                                <path d="M8.25967829,0.147836 L0.164440292,6.147696 C0.062076006,6.222336 -0.000985898809,6.346976 -5.75826198e-06,6.472696 L-5.75826198e-06,17.27244 C-5.75826198e-06,17.48188 0.192834339,17.67244 0.404767571,17.67244 L5.86905329,17.67244 C6.08098662,17.67244 6.27379495,17.48188 6.27381519,17.27244 L6.27381519,15.0724348 C6.27381519,13.84674 7.25969376,12.87248 8.50000567,12.87248 C9.74031757,12.87248 10.7261961,13.84674 10.7261961,15.0724348 L10.7261961,17.27244 C10.7262164,17.48188 10.9190247,17.67244 11.130958,17.67244 L16.5952438,17.67244 C16.8071771,17.67244 17.0000057,17.48188 17.0000057,17.27244 L17.0000057,6.472696 C17.0000057,6.346976 16.9379354,6.222336 16.8355711,6.147696 L8.74033305,0.147836 C8.551289,0.036176 8.4175759,0.059076 8.25967829,0.147836 Z M8.50000567,0.972816 L16.1904819,6.672676 L16.1904819,16.87246 L11.53572,16.87246 L11.53572,15.07244 C11.53572,13.4174 10.174789,12.0725 8.50000567,12.0725 C6.82522233,12.0725 5.46429138,13.4174 5.46429138,15.07244 L5.46429138,16.87246 L0.809529476,16.87246 L0.809529476,6.672676 L8.50000567,0.972816 Z" id="Shape"></path>
                            </g>
                        </g>
                    </g>
                </g>
            </g>
        </g>
    </g>
</svg>