<svg xmlns="http://www.w3.org/2000/svg" width="24" height="24" viewBox="0 0 24 24"><g><g><g><g><g><path fill="#666b7c" d="M13.5 6.1l7.69 5.7V22h-4.654v-1.8c0-1.655-1.361-3-3.036-3s-3.036 1.345-3.036 3V22H5.81V11.8zm-.24-.825l-8.096 6A.405.405 0 0 0 5 11.6v10.8c0 .21.193.4.405.4h5.464c.212 0 .405-.19.405-.4v-2.2c0-1.226.986-2.2 2.226-2.2s2.226.974 2.226 2.2v2.2c0 .21.193.4.405.4h5.464c.212 0 .405-.19.405-.4V11.6a.408.408 0 0 0-.164-.325l-8.096-6c-.189-.111-.322-.088-.48 0z"/><path fill="none" stroke="#666b7c" stroke-miterlimit="50" stroke-width=".5" d="M13.5 6.1l7.69 5.7V22h-4.654v-1.8c0-1.655-1.361-3-3.036-3s-3.036 1.345-3.036 3V22H5.81V11.8zm-.24-.825l-8.096 6A.405.405 0 0 0 5 11.6v10.8c0 .21.193.4.405.4h5.464c.212 0 .405-.19.405-.4v-2.2c0-1.226.986-2.2 2.226-2.2s2.226.974 2.226 2.2v2.2c0 .21.193.4.405.4h5.464c.212 0 .405-.19.405-.4V11.6a.408.408 0 0 0-.164-.325l-8.096-6c-.189-.111-.322-.088-.48 0z"/></g></g></g></g></g></svg>