<svg xmlns="http://www.w3.org/2000/svg" width="24" height="24" viewBox="0 0 24 24"><g><g><g><path fill="#ff5722" d="M18.782 3.218c4.29 4.291 4.29 11.273 0 15.564A10.971 10.971 0 0 1 11 22a10.972 10.972 0 0 1-7.782-3.218c-4.29-4.291-4.29-11.273 0-15.564 4.291-4.29 11.273-4.29 15.564 0M4.573 17.437c3.319 3.318 8.584 3.531 12.153.641L3.932 5.284c-2.89 3.57-2.677 8.834.641 12.153m13.505-.711c2.89-3.57 2.677-8.834-.641-12.153a9.07 9.07 0 0 0-6.433-2.66c-2.03 0-4.058.673-5.72 2.019l12.794 12.794"/></g></g></g></svg>