<svg xmlns="http://www.w3.org/2000/svg" width="110" height="37" viewBox="0 0 110 37"><defs><mask id="jv5xb" width="2" height="2" x="-1" y="-1"><path fill="#fff" d="M3 2h104v30H3z"/><path d="M3 2h104v30H3z"/></mask><filter id="jv5xa" width="132" height="60" x="-11" y="-12" filterUnits="userSpaceOnUse"><feOffset dy="2" in="SourceGraphic" result="FeOffset1093Out"/><feGaussianBlur in="FeOffset1093Out" result="FeGaussianBlur1094Out" stdDeviation="1.6 1.6"/></filter></defs><g><g><g><g filter="url(#jv5xa)"><path fill="none" d="M3 2h104v30H3z" mask="url(&quot;#jv5xb&quot;)"/><path fill="#c9cad1" fill-opacity=".5" d="M3 2h104v30H3z"/></g><path fill="#fff" d="M3 2h104v30H3z"/></g><g><g><path fill="#3b3f4e" d="M95 14.806L94.194 14 91 17.194 87.806 14l-.806.806L90.194 18 87 21.194l.806.806L91 18.806 94.194 22l.806-.806L91.806 18z"/></g></g><g><g><text dominant-baseline="text-before-edge" style="line-height:24px;font-kerning:normal" fill="#222634" font-family="'Roboto Medium','Roboto-Medium'" font-size="14" transform="translate(15 5)"><tspan style="line-height:24px;font-kerning:normal">Pharmacy</tspan></text></g></g></g></g></svg>