<svg xmlns="http://www.w3.org/2000/svg" width="120" height="37" viewBox="0 0 120 37"><defs><mask id="ln1wb" width="2" height="2" x="-1" y="-1"><path fill="#fff" d="M3 2h114v30H3z"/><path d="M3 2h114v30H3z"/></mask><filter id="ln1wa" width="142" height="60" x="-11" y="-12" filterUnits="userSpaceOnUse"><feOffset dy="2" in="SourceGraphic" result="FeOffset1059Out"/><feGaussianBlur in="FeOffset1059Out" result="FeGaussianBlur1060Out" stdDeviation="1.6 1.6"/></filter></defs><g><g><g><g filter="url(#ln1wa)"><path fill="none" d="M3 2h114v30H3z" mask="url(&quot;#ln1wb&quot;)"/><path fill="#c9cad1" fill-opacity=".5" d="M3 2h114v30H3z"/></g><path fill="#fff" d="M3 2h114v30H3z"/></g><g><g><path fill="#3b3f4e" d="M107 14.806l-.806-.806L103 17.194 99.806 14l-.806.806L102.194 18 99 21.194l.806.806L103 18.806 106.194 22l.806-.806L103.806 18z"/></g></g><g><g><text dominant-baseline="text-before-edge" style="line-height:24px;font-kerning:normal" fill="#222634" font-family="'Roboto Medium','Roboto-Medium'" font-size="14" transform="translate(15 5)"><tspan style="line-height:24px;font-kerning:normal">Restaurants</tspan></text></g></g></g></g></svg>