<svg xmlns="http://www.w3.org/2000/svg" width="18" height="12" viewBox="0 0 18 12"><defs><clipPath id="vyu5a"><path fill="#fff" d="M4 4.5a1 1 0 0 1 1-1h12a1 1 0 0 1 1 1v6a1 1 0 0 1-1 1H5a1 1 0 0 1-1-1z"/></clipPath></defs><g><g><path fill="none" stroke="#fff" stroke-miterlimit="50" stroke-width="2" d="M4 4.5a1 1 0 0 1 1-1h12a1 1 0 0 1 1 1v6a1 1 0 0 1-1 1H5a1 1 0 0 1-1-1z" clip-path="url(&quot;#vyu5a&quot;)"/></g><g transform="rotate(90 1 7.5)"><path fill="#fff" d="M-2.5 8v.5H-3v-2h.5V7h7v-.5H5v2h-.5V8z"/></g><g><path fill="#fff" d="M4.5 1.5V2H4V0h.5v.5h13V0h.5v2h-.5v-.5z"/></g></g></svg>