<svg xmlns="http://www.w3.org/2000/svg" width="12" height="16" viewBox="0 0 12 16"><g><g><path fill="#fff" d="M7.427 6.388c0 .854-.641 1.544-1.434 1.544-.792 0-1.433-.683-1.433-1.537 0-.854.64-1.544 1.433-1.544s1.434.683 1.434 1.537zm.422 0c0-1.103-.832-2-1.856-2-1.023 0-1.856.897-1.856 2s.833 2 1.856 2c1.024 0 1.856-.897 1.856-2zm2.705-.004c0 .96-.33 2.127-.805 2.838l-3.371 5.07c-.106.157-.238.243-.383.243-.158 0-.317-.107-.442-.292L2.247 9.272c-.501-.768-.83-1.9-.83-2.888 0-2.717 2.051-4.928 4.571-4.928 2.52 0 4.573 2.211 4.566 4.928zM6.007 15c.284 0 .541-.157.733-.434l3.375-5.075c.528-.79.885-2.043.885-3.103C11 3.42 8.754 1 6 1S1 3.42 1 6.388c0 1.075.357 2.313.911 3.153l3.31 4.975c.204.306.488.484.786.484z"/><path fill="none" stroke="#fff" stroke-miterlimit="50" stroke-width=".5" d="M7.427 6.388c0 .854-.641 1.544-1.434 1.544-.792 0-1.433-.683-1.433-1.537 0-.854.64-1.544 1.433-1.544s1.434.683 1.434 1.537zm.422 0c0-1.103-.832-2-1.856-2-1.023 0-1.856.897-1.856 2s.833 2 1.856 2c1.024 0 1.856-.897 1.856-2zm2.705-.004c0 .96-.33 2.127-.805 2.838l-3.371 5.07c-.106.157-.238.243-.383.243-.158 0-.317-.107-.442-.292L2.247 9.272c-.501-.768-.83-1.9-.83-2.888 0-2.717 2.051-4.928 4.571-4.928 2.52 0 4.573 2.211 4.566 4.928zM6.007 15c.284 0 .541-.157.733-.434l3.375-5.075c.528-.79.885-2.043.885-3.103C11 3.42 8.754 1 6 1S1 3.42 1 6.388c0 1.075.357 2.313.911 3.153l3.31 4.975c.204.306.488.484.786.484z"/></g></g></svg>