<svg xmlns="http://www.w3.org/2000/svg" width="24" height="24" viewBox="0 0 24 24"><g><g><g><g><g><g><path fill="none" stroke="#666b7c" stroke-linecap="round" stroke-linejoin="round" stroke-miterlimit="50" stroke-width="1.71" d="M21.524 5.693c-2.7-2.614-6.362-4.083-10.182-4.083-3.82 0-7.483 1.469-10.182 4.083v0"/></g><g><path fill="none" stroke="#666b7c" stroke-linecap="round" stroke-linejoin="round" stroke-miterlimit="50" stroke-width="1.71" d="M18.134 9c-1.8-1.742-4.242-2.72-6.787-2.72C8.8 6.28 6.36 7.258 4.56 9v0"/></g><g><path fill="none" stroke="#666b7c" stroke-linecap="round" stroke-linejoin="round" stroke-miterlimit="50" stroke-width="1.71" d="M7.95 12.258v0c1.874-1.81 4.91-1.81 6.784 0v0"/></g></g><g><path fill="none" stroke="#666b7c" stroke-linecap="round" stroke-linejoin="round" stroke-miterlimit="50" stroke-width="1.89" d="M11.336 16.69a.626.626 0 0 0 .637-.615.626.626 0 0 0-.637-.615.626.626 0 0 0-.636.615c0 .34.285.616.636.616z"/></g></g></g></g></g></svg>