<?xml version="1.0" encoding="UTF-8"?>
<svg width="24px" height="24px" viewBox="0 0 24 24" version="1.1" xmlns="http://www.w3.org/2000/svg" xmlns:xlink="http://www.w3.org/1999/xlink">
    <!-- Generator: sketchtool 55.1 (78136) - https://sketchapp.com -->
    <title>10B669F3-9914-43C3-BB6E-68329A93D4A8</title>
    <desc>Created with sketchtool.</desc>
    <g id="02-07-03-Public-profile-Landlord" stroke="none" stroke-width="1" fill="none" fill-rule="evenodd">
        <g id="02-07-03-02-Landlord's-profile" transform="translate(-196.000000, -272.000000)" fill-rule="nonzero">
            <g id="Landlord" transform="translate(148.000000, 136.000000)">
                <g id="Verification" transform="translate(0.000000, 136.000000)">
                    <g id="Icon/round_green" transform="translate(48.000000, 0.000000)">
                        <rect id="Rectangle" fill="#DBEFDC" x="0" y="0" width="24" height="24" rx="12"></rect>
                        <g id="Icons/property_blue" transform="translate(4.000000, 4.000000)" fill="#4CAF50">
                            <path d="M13.6,3 L2.4,3 C1.6265,3 1,3.6153125 1,4.375 L1,12.625 C1,13.3846875 1.6265,14 2.4,14 L13.6,14 C14.3735,14 15,13.3846875 15,12.625 L15,4.375 C15,3.6153125 14.3735,3 13.6,3 Z M13.6,5.75 L8,9.1875 L2.4,5.75 L2.4,4.375 L8,7.8125 L13.6,4.375 L13.6,5.75 Z" id="Shape"></path>
                        </g>
                    </g>
                </g>
            </g>
        </g>
    </g>
</svg>