<?xml version="1.0" encoding="UTF-8"?>
<svg width="24px" height="24px" viewBox="0 0 24 24" version="1.1" xmlns="http://www.w3.org/2000/svg" xmlns:xlink="http://www.w3.org/1999/xlink">
    <!-- Generator: sketchtool 55.1 (78136) - https://sketchapp.com -->
    <title>75C3D987-0D50-4D6A-9935-24902E3FBB58</title>
    <desc>Created with sketchtool.</desc>
    <g id="02-07-03-Public-profile-Landlord" stroke="none" stroke-width="1" fill="none" fill-rule="evenodd">
        <g id="02-07-03-02-Landlord's-profile" transform="translate(-244.000000, -272.000000)">
            <g id="Landlord" transform="translate(148.000000, 136.000000)">
                <g id="Verification" transform="translate(0.000000, 136.000000)">
                    <g id="Icon/round_green-Copy" transform="translate(96.000000, 0.000000)">
                        <rect id="Rectangle" fill="#DBEFDC" fill-rule="nonzero" x="0" y="0" width="24" height="24" rx="12"></rect>
                        <g id="Icons/property_blue" transform="translate(4.000000, 4.000000)">
                            <g id="baseline-phone_locked-24px">
                                <polygon id="Path" points="0 0 16 0 16 16 0 16"></polygon>
                                <path d="M13.3333333,10.3333333 C12.5,10.3333333 11.7,10.2 10.9533333,9.95333333 C10.72,9.88 10.46,9.93333333 10.2733333,10.1133333 L8.80666667,11.58 C6.92,10.62 5.37333333,9.08 4.41333333,7.18666667 L5.88,5.71333333 C6.06666667,5.54 6.12,5.28 6.04666667,5.04666667 C5.8,4.3 5.66666667,3.5 5.66666667,2.66666667 C5.66666667,2.3 5.36666667,2 5,2 L2.66666667,2 C2.3,2 2,2.3 2,2.66666667 C2,8.92666667 7.07333333,14 13.3333333,14 C13.7,14 14,13.7 14,13.3333333 L14,11 C14,10.6333333 13.7,10.3333333 13.3333333,10.3333333 Z M13.3333333,2.66666667 L13.3333333,2.33333333 C13.3333333,1.41333333 12.5866667,0.666666667 11.6666667,0.666666667 C10.7466667,0.666666667 10,1.41333333 10,2.33333333 L10,2.66666667 C9.63333333,2.66666667 9.33333333,2.96666667 9.33333333,3.33333333 L9.33333333,6 C9.33333333,6.36666667 9.63333333,6.66666667 10,6.66666667 L13.3333333,6.66666667 C13.7,6.66666667 14,6.36666667 14,6 L14,3.33333333 C14,2.96666667 13.7,2.66666667 13.3333333,2.66666667 Z M12.8,2.66666667 L10.5333333,2.66666667 L10.5333333,2.33333333 C10.5333333,1.70666667 11.04,1.2 11.6666667,1.2 C12.2933333,1.2 12.8,1.70666667 12.8,2.33333333 L12.8,2.66666667 Z" id="Shape" fill="#4CAF50" fill-rule="nonzero"></path>
                            </g>
                        </g>
                    </g>
                </g>
            </g>
        </g>
    </g>
</svg>