<?xml version="1.0" encoding="UTF-8"?>
<svg width="24px" height="24px" viewBox="0 0 24 24" version="1.1" xmlns="http://www.w3.org/2000/svg" xmlns:xlink="http://www.w3.org/1999/xlink">
    <!-- Generator: sketchtool 55.1 (78136) - https://sketchapp.com -->
    <title>24516AD8-B13E-44C8-8D20-08BEC8FBA780</title>
    <desc>Created with sketchtool.</desc>
    <g id="02-07-03-Public-profile-Landlord" stroke="none" stroke-width="1" fill="none" fill-rule="evenodd">
        <g id="02-07-03-02-Landlord's-profile" transform="translate(-148.000000, -272.000000)" fill-rule="nonzero">
            <g id="Landlord" transform="translate(148.000000, 136.000000)">
                <g id="Verification" transform="translate(0.000000, 136.000000)">
                    <g id="Icon/round_green-Copy-2">
                        <rect id="Rectangle" fill="#DBEFDC" x="0" y="0" width="24" height="24" rx="12"></rect>
                        <g id="Icons/property_blue" transform="translate(4.000000, 4.000000)" fill="#4CAF50">
                            <path d="M12.6666667,1 L3.33333333,1 C2.6,1 2.00666667,1.61363636 2.00666667,2.36363636 L2,11.1795455 C2,11.65 2.23333333,12.0659091 2.58666667,12.3113636 L8,16 L13.4066667,12.3113636 C13.76,12.0659091 13.9933333,11.65 13.9933333,11.1795455 L14,2.36363636 C14,1.61363636 13.4,1 12.6666667,1 Z M6.66666667,11.2272727 L3.33333333,7.81818182 L4.27333333,6.85681818 L6.66666667,9.29772727 L11.7266667,4.12272727 L12.6666667,5.09090909 L6.66666667,11.2272727 Z" id="Shape"></path>
                        </g>
                    </g>
                </g>
            </g>
        </g>
    </g>
</svg>