<svg xmlns="http://www.w3.org/2000/svg" width="18" height="19" viewBox="0 0 18 19"><g><g><g><path fill="#1a5dc6" d="M6.277.014a2.83 2.83 0 0 0-2.372 1.584l-.834 1.707-1.634.872C.207 4.834-.377 6.307.05 7.681l.564 1.823L.05 11.33c-.427 1.373.156 2.846 1.387 3.503l1.633.87.836 1.708c.614 1.255 2.07 1.888 3.35 1.452l1.748-.591 1.745.59c.28.095.569.142.862.142 1.056 0 2.01-.61 2.49-1.593l.835-1.707 1.635-.873c1.23-.657 1.814-2.13 1.387-3.503l-.564-1.824.564-1.824c.427-1.373-.156-2.846-1.387-3.503l-1.633-.872-.836-1.707C13.489.343 12.029-.287 10.75.148l-1.748.59L7.258.148a2.607 2.607 0 0 0-.98-.135z"/></g><g><path fill="#1a5dc6" d="M6.35 1.902a.922.922 0 0 1 .348.048l2.025.685c.182.062.38.062.562 0l2.026-.686c.45-.154.957.069 1.17.508l.97 1.982a.933.933 0 0 0 .394.413l1.898 1.013c.43.23.634.746.485 1.227l-.655 2.115a.986.986 0 0 0 0 .585l.09.293.565 1.824c.15.48-.054.996-.485 1.226l-1.898 1.013a.929.929 0 0 0-.394.412l-.97 1.982c-.213.438-.713.665-1.171.508l-2.026-.684a.86.86 0 0 0-.561 0l-2.026.686c-.45.154-.96-.07-1.172-.508l-.968-1.982a.937.937 0 0 0-.396-.414l-1.896-1.013a1.038 1.038 0 0 1-.487-1.226l.656-2.116a.986.986 0 0 0 0-.584l-.656-2.117c-.149-.48.056-.997.487-1.227L4.16 4.852a.929.929 0 0 0 .394-.412l.97-1.981c.16-.33.481-.54.825-.557z"/></g><g><path fill="#fff" d="M12.902 5.98L8.09 11.008 6.006 8.83 4.72 10.173l3.37 3.522 6.097-6.372z"/></g></g></g></svg>