<svg xmlns="http://www.w3.org/2000/svg" width="20" height="17" viewBox="0 0 20 17"><g><g><path fill="#1a5dc6" d="M9.191 10.656V13H8V7h1.953c.437 0 .811.042 1.123.127.311.084.567.202.766.354.2.152.345.334.438.546.093.212.14.445.14.7 0 .201-.032.392-.095.572-.064.18-.155.343-.275.49-.12.146-.267.275-.443.385-.175.11-.376.2-.6.266.15.08.28.195.39.344L13 13h-1.072a.552.552 0 0 1-.263-.058.525.525 0 0 1-.184-.166l-1.346-1.921a.46.46 0 0 0-.166-.154.616.616 0 0 0-.268-.045zm0-.801h.744c.225 0 .42-.027.587-.08.167-.052.304-.124.412-.217a.876.876 0 0 0 .241-.33c.054-.127.08-.267.08-.419 0-.304-.107-.538-.321-.701-.214-.163-.541-.245-.98-.245H9.19zm10.622-1.708l.002-.007-9.17-7.875a.914.914 0 0 0-1.29 0L.185 8.14l.002.007A.438.438 0 0 0 0 8.5c0 .247.204.447.455.447h2.272v7.158c0 .494.408.895.91.895h12.727c.501 0 .909-.4.909-.895V8.947h2.272c.251 0 .455-.2.455-.447a.438.438 0 0 0-.187-.353z"/></g></g></svg>