<svg xmlns="http://www.w3.org/2000/svg" width="22" height="22" viewBox="0 0 22 22"><g><g><path fill="#1a5dc6" d="M11.524 15.714a4.175 4.175 0 0 0 4.19 4.19 4.175 4.175 0 0 0 4.19-4.19c0-.496-.099-.965-.255-1.405l-3.935 3.934-2.836-2.836 1.482-1.481 1.354 1.355 2.73-2.73a4.175 4.175 0 0 0-6.92 3.163zm10.476 0C22 19.174 19.173 22 15.714 22c-2.315 0-4.341-1.269-5.432-3.143H0v-2.619c0-2.38 3.621-3.86 6.742-4.438l2.687 2.687.161-.162c.637-2.794 3.143-4.896 6.124-4.896 3.46 0 6.286 2.826 6.286 6.285zM13.62 4.19a4.19 4.19 0 1 1-8.382 0 4.19 4.19 0 0 1 8.381 0z"/></g></g></svg>