<svg xmlns="http://www.w3.org/2000/svg" width="22" height="22" viewBox="0 0 22 22"><g><g><path fill="#1a5dc6" d="M16.967 0c-1.672.033-3.702 1.074-4.647 2.017-1.201 1.198-1.306 2.844-.303 4.553L10.45 8.134l.564.548a1.686 1.686 0 0 1 1.086-.384c.455 0 .892.165 1.196.467l.303.315c.4.4.572.964.467 1.509l.303.315c.055 0 .11.01.165.014l.935-.933c.787.422 1.545.631 2.24.631.858 0 1.63-.322 2.27-.96 1.182-1.18 2.47-3.93 1.87-5.719a.436.436 0 0 0-.73-.165L18.783 6.09c-.143.143-.41.134-.564 0l-2.337-2.318c-.143-.142-.134-.408 0-.562L18.218.878a.447.447 0 0 0 .124-.411.445.445 0 0 0-.289-.315c-.33-.114-.7-.158-1.086-.151z"/></g><g><path fill="#1a5dc6" d="M1.1.04L0 1.137l1.842 3.21 1.197-.179 6.86 6.844-.522.521a.841.841 0 0 0 0 1.152l.303.302c.216.215.58.287.866.179l.275-.096.962.96-.027.205c-.05.467.134.957.481 1.303l5.775 5.774a2.32 2.32 0 0 0 1.65.686c.617 0 1.211-.248 1.663-.7.882-.92.889-2.39 0-3.277l-5.788-5.774c-.328-.328-.8-.501-1.306-.467l-.207.014-.962-.96.096-.274a.804.804 0 0 0-.179-.864l-.302-.302c-.278-.278-.877-.278-1.155 0L11 9.915 4.139 3.071l.178-1.193z"/></g><g><path fill="#1a5dc6" d="M8.11 10.47l-2.667 2.66a4.662 4.662 0 0 0-.907-.095C2.061 13.035.04 15.05.04 17.52c0 2.468 2.021 4.47 4.496 4.47a4.478 4.478 0 0 0 4.482-4.47c0-.372-.03-.695-.11-.988l1.967-1.961c-.006-.067-.016-.139-.014-.206l-.289-.288a1.733 1.733 0 0 1-1.512-.466l-.317-.302c-.615-.614-.636-1.623-.082-2.277z"/></g><g><path fill="#1a5dc6" d="M13.952 13.33l5.28 5.267-.632.63-5.28-5.266z"/></g><g><path fill="#1a5dc6" d="M5.06 15.4l1.54 1.536-.523 2.057-2.117.576-1.54-1.536.577-2.057z"/></g></g></svg>