<svg xmlns="http://www.w3.org/2000/svg" width="22" height="21" viewBox="0 0 22 21"><g><g><path fill="#1a5dc6" d="M12.752 0c-.026 0-.052 0-.079.002-1.63.1-4.595.4-7.287 1.364-1.345.481-2.635 1.126-3.65 2.082C.72 4.405 0 5.746 0 7.313c0 1.815.837 2.993 1.442 3.706.605.712.886.91.886 1.8 0 .377-.354.988-.936 1.796-.582.807-1.378 1.82-1.378 3.241 0 2.058 1.833 3.014 1.833 3.014a1.15 1.15 0 0 0 1.187-.075 1.169 1.169 0 0 0-.224-2.042s-.482-.114-.482-.897c0-.458.36-1.075.936-1.873.575-.798 1.379-1.766 1.379-3.164 0-1.616-.884-2.657-1.442-3.314-.559-.657-.886-.979-.886-2.192 0-.897.336-1.534 1.003-2.162.667-.628 1.685-1.174 2.843-1.589 2.317-.83 5.144-1.14 6.652-1.234a1.162 1.162 0 0 0 1.083-1.193A1.161 1.161 0 0 0 12.752 0z"/></g><g><path fill="#1a5dc6" d="M18.94 4.66a.993.993 0 0 0-.708.296L16.79 6.408l3.472 3.496 1.442-1.452c.39-.394.39-1.032 0-1.425l-2.057-2.071a.994.994 0 0 0-.707-.296z"/></g><g><path fill="#1a5dc6" d="M15.157 8.06L6.14 17.142c-.218.219-.339.515-.339.824v2.358c0 .362.291.655.651.655h2.342c.306 0 .601-.122.818-.341l9.018-9.082z"/></g></g></svg>