<svg xmlns="http://www.w3.org/2000/svg" width="20" height="20" viewBox="0 0 20 20"><g><g><path fill="#1a5dc6" d="M5.623 12.945l1.414 1.409-.348.346c.018-.018-.265.175-.64.32-.375.143-.848.282-1.303.4-.13.034-.124.025-.248.054.03-.124.02-.117.055-.247.118-.453.258-.924.402-1.297.144-.374.338-.657.32-.638zM10.483 8A1.5 1.5 0 1 1 10.48 11 1.5 1.5 0 0 1 10.482 8zm4-4A1.5 1.5 0 1 1 14.48 7 1.5 1.5 0 0 1 14.482 4zM18.34.008a1.823 1.823 0 0 0-.42.01C15.632.337 10.717 1.045 5.682 7H3.057L.38 9.785A1.293 1.293 0 0 0 .1 11.2c.2.487.672.8 1.199.8h2.459c-.33.375-.498.773-.668 1.214-.188.488-.345 1.019-.475 1.52-.26 1-.414 1.892-.414 1.892l-.248 1.404 1.404-.248s.892-.154 1.893-.414c.5-.13 1.032-.286 1.52-.475.44-.17.838-.337 1.212-.667v2.459c0 .527.314.999.801 1.199.165.069.337.1.506.1.331 0 .651-.123.875-.348l2.818-2.569v-2.765c5.952-5.035 6.661-9.951 6.983-12.239a1.797 1.797 0 0 0-.512-1.53A1.803 1.803 0 0 0 18.34.007z"/></g></g></svg>