<svg xmlns="http://www.w3.org/2000/svg" width="23" height="23" viewBox="0 0 23 23"><g><g><path fill="#1a5dc6" d="M23 20.222v2.222c0 .308-.298.556-.667.556h-6.666c-.369 0-.667-.248-.667-.556v-2.222C15 18.997 16.196 18 17.667 18h2.666c1.471 0 2.667.997 2.667 2.222zM21 15c0 1.103-.897 2-2 2s-2-.897-2-2 .897-2 2-2 2 .897 2 2zM8 20.222v2.222c0 .308-.298.556-.667.556H.667C.298 23 0 22.752 0 22.444v-2.222C0 18.997 1.196 18 2.667 18h2.666C6.804 18 8 18.997 8 20.222zM6 15c0 1.103-.897 2-2 2s-2-.897-2-2 .897-2 2-2 2 .897 2 2z"/></g><g><path fill="#1a5dc6" d="M21 4.612V7.5c0 1.743-.975 3.202-2.266 3.538v2.24c0 .643-.61.965-.967.51L16 11.535c.966-.923 1.601-2.381 1.601-4.035V3.166A6.15 6.15 0 0 0 17.204 1h.964C19.732 1 21 2.617 21 4.612zM11.389 0C13.383 0 15 1.568 15 3.499v4.2c0 1.933-1.617 3.5-3.611 3.5h-2.59l-2.677 2.595c-.455.441-1.233.128-1.233-.495v-2.17C3.243 10.803 2 9.39 2 7.7V3.5C2 1.567 3.617 0 5.61 0zm-.212 3.995a.685.685 0 0 0 0-.99.738.738 0 0 0-1.021 0L7.778 5.31l-.935-.905a.738.738 0 0 0-1.02 0 .685.685 0 0 0 0 .99l1.445 1.4a.739.739 0 0 0 1.02 0z"/></g></g></svg>