<svg xmlns="http://www.w3.org/2000/svg" width="23" height="24" viewBox="0 0 23 24"><g><g><path fill="#1a5dc6" d="M4.805 11.173C5.52 11.429 6 12.145 6 12.955v2.866c0 .11-.03.217-.087.31l-.894 1.463v3.84c0 .312-.236.566-.527.566H1.508c-.291 0-.527-.254-.527-.567v-3.84l-.894-1.462A.593.593 0 0 1 0 15.82v-2.865c0-.81.48-1.526 1.195-1.782l.449-.148a.498.498 0 0 1 .47.088l.886.713.886-.713a.498.498 0 0 1 .47-.088zM1 8c0-1.103.897-2 2-2s2 .897 2 2-.897 2-2 2-2-.897-2-2zm20.805 3.173c.715.256 1.195.972 1.195 1.782v2.866c0 .11-.03.217-.087.31l-.894 1.463v3.84c0 .312-.236.566-.527.566h-2.984c-.291 0-.527-.254-.527-.567v-3.84l-.894-1.462A.593.593 0 0 1 17 15.82v-2.865c0-.81.48-1.526 1.195-1.782l.449-.148a.498.498 0 0 1 .47.088l.886.713.886-.713a.498.498 0 0 1 .47-.088zM20 6c1.103 0 2 .897 2 2s-.897 2-2 2-2-.897-2-2 .897-2 2-2zM3.006 4.49a.581.581 0 0 1 .118-.438C5.137 1.477 8.19 0 11.5 0c3.311 0 6.363 1.477 8.376 4.052a.581.581 0 0 1-.113.827.611.611 0 0 1-.847-.111C17.134 2.488 14.43 1.18 11.5 1.18c-2.931 0-5.634 1.308-7.416 3.588a.614.614 0 0 1-.846.111.581.581 0 0 1-.232-.39z"/></g><g><path fill="#1a5dc6" d="M14.577 9.223C15.426 9.51 16 10.33 16 11.254v4.241a.221.221 0 0 1-.034.119l-1.47 2.314v5.856a.212.212 0 0 1-.208.215H9.712a.211.211 0 0 1-.208-.215v-5.856l-1.47-2.314A.228.228 0 0 1 8 15.495v-4.23c0-.928.572-1.749 1.427-2.044 0 0 .71-.222.73-.222.089 0 .167.057.196.141l1.408 4a.251.251 0 0 0 .478 0l1.407-3.998a.206.206 0 0 1 .257-.132l.67.212.003.002zM13.999 5.5c0 1.379-1.122 2.5-2.5 2.5a2.503 2.503 0 0 1-2.5-2.5 2.503 2.503 0 0 1 2.5-2.5c1.378 0 2.5 1.122 2.5 2.5z"/></g><g><path fill="#1a5dc6" d="M11.937 9.089A.23.23 0 0 0 11.755 9h-.51a.23.23 0 0 0-.182.089.315.315 0 0 0-.031.326l.272.482-.127 1.26.25.784c.025.079.12.079.145 0l.25-.783-.126-1.261.272-.482a.315.315 0 0 0-.03-.326z"/></g></g></svg>