<svg xmlns="http://www.w3.org/2000/svg" width="17" height="22" viewBox="0 0 17 22"><g><g><g><path fill="#1a5dc6" d="M4.25 15.4v2.2h8.5v-2.2zm0-3.3v2.2h8.5v-2.2zm2.656-4.4c-.886 0-2.656.46-2.656 1.375V9.9h5.313v-.825c0-.914-1.77-1.375-2.657-1.375zm0-4.4c-.88 0-1.593.739-1.593 1.65 0 .911.713 1.65 1.593 1.65S8.5 5.861 8.5 4.95c0-.911-.714-1.65-1.594-1.65zM2.125 2.2h12.75v17.6H2.125zm0-2.2C.956 0 0 .99 0 2.2v17.6C0 21.01.956 22 2.125 22h12.75C16.044 22 17 21.01 17 19.8V2.2C17 .984 16.05 0 14.875 0z"/></g></g></g></svg>