<svg xmlns="http://www.w3.org/2000/svg" width="20" height="20" viewBox="0 0 20 20"><g><g><g><path fill="#1a5dc6" d="M7.811 14.058h2.656v1.562H7.81zm-2.929 1.766a.98.98 0 1 1 0-1.962c.54 0 .977.44.977.982 0 .54-.437.979-.977.98zM15.7 10.66H7.81V9.098h7.89zm-9.842-.77a.987.987 0 0 1-.285.696.976.976 0 0 1-.692.29.982.982 0 0 1-.976-.985c0-.546.437-.987.976-.987.54 0 .977.442.977.986zm9.84-3.916H7.81V4.413h7.89zM4.881 6.17a.976.976 0 1 1 0-1.952.976.976 0 0 1 0 1.952zm6.483 12.262v1.562h-9.02A2.346 2.346 0 0 1 0 17.651V2.343A2.346 2.346 0 0 1 2.343 0h15.308a2.346 2.346 0 0 1 2.343 2.343v8.826h-1.562V2.343c0-.43-.35-.781-.78-.781H2.342c-.43 0-.781.35-.781.781v15.308c0 .431.35.781.781.781zM18.895 20l-1.555-1.555a3.493 3.493 0 0 1-1.797.495 3.519 3.519 0 0 1-3.515-3.515 3.519 3.519 0 0 1 3.515-3.514 3.519 3.519 0 0 1 3.514 3.514c0 .717-.216 1.385-.586 1.941L20 18.896zm-1.4-4.57a1.958 1.958 0 0 0-1.952-1.957 1.958 1.958 0 0 0 0 3.915 1.958 1.958 0 0 0 1.952-1.958z"/></g></g></g></svg>