<svg xmlns="http://www.w3.org/2000/svg" width="507" height="338" viewBox="0 0 507 338"><defs><mask id="6atcb" width="2" height="2" x="-1" y="-1"><path fill="#fff" d="M25 119h282v148H25z"/><path d="M25 127a8 8 0 0 1 8-8h266a8 8 0 0 1 8 8v132a8 8 0 0 1-8 8H33a8 8 0 0 1-8-8z"/></mask><filter id="6atca" width="368" height="234" x="-18" y="76" filterUnits="userSpaceOnUse"><feOffset in="SourceGraphic" result="FeOffset1029Out"/><feGaussianBlur in="FeOffset1029Out" result="FeGaussianBlur1030Out" stdDeviation="13.2 13.2"/></filter><mask id="6atcd" width="2" height="2" x="-1" y="-1"><path fill="#fff" d="M45 106h282v148H45z"/><path d="M45 114a8 8 0 0 1 8-8h266a8 8 0 0 1 8 8v132a8 8 0 0 1-8 8H53a8 8 0 0 1-8-8z"/></mask><filter id="6atcc" width="368" height="234" x="2" y="63" filterUnits="userSpaceOnUse"><feOffset in="SourceGraphic" result="FeOffset1047Out"/><feGaussianBlur in="FeOffset1047Out" result="FeGaussianBlur1048Out" stdDeviation="13.2 13.2"/></filter><mask id="6atcf" width="2" height="2" x="-1" y="-1"><path fill="#fff" d="M215 25h267v288H215z"/><path d="M215 36c0-6.075 4.925-11 11-11h245c6.075 0 11 4.925 11 11v266c0 6.075-4.925 11-11 11H226c-6.075 0-11-4.925-11-11z"/></mask><filter id="6atce" width="353" height="374" x="172" y="-18" filterUnits="userSpaceOnUse"><feOffset in="SourceGraphic" result="FeOffset1091Out"/><feGaussianBlur in="FeOffset1091Out" result="FeGaussianBlur1092Out" stdDeviation="13.2 13.2"/></filter><clipPath id="6atci"><path fill="#fff" d="M281.088 317.912V179.088h136.824v138.824zm68.412-7.115c33.905 0 61.39-27.888 61.39-62.289 0-34.4-27.485-62.288-61.39-62.288s-61.39 27.887-61.39 62.288c0 34.401 27.485 62.289 61.39 62.289z"/></clipPath><clipPath id="6atck"><path fill="#fff" d="M257.352 335.648V155.352h180.296v180.296zm90.108-28.277c34.049 0 61.65-27.736 61.65-61.95 0-34.215-27.601-61.951-61.65-61.951-34.048 0-61.65 27.736-61.65 61.95 0 34.215 27.602 61.951 61.65 61.951z"/></clipPath><clipPath id="6atcl"><path fill="#fff" d="M278.088 314.912V176.088h138.824v138.824zm69.372-7.541c34.049 0 61.65-27.736 61.65-61.95 0-34.215-27.601-61.951-61.65-61.951-34.048 0-61.65 27.736-61.65 61.95 0 34.215 27.602 61.951 61.65 61.951z"/></clipPath><clipPath id="6atcg"><path d="M215 36c0-6.075 4.925-11 11-11h245c6.075 0 11 4.925 11 11v266c0 6.075-4.925 11-11 11H226c-6.075 0-11-4.925-11-11z"/></clipPath><clipPath id="6atch"><path d="M258.278 212.515l17.375-29.041s23.055-33.922 61.43-33.24c38.377.681 62.57 15.235 62.57 15.235l29.695 32.519 11.81 27.684v42.217l-33.021-6.502H287.194L255 267.889z"/></clipPath><clipPath id="6atcj"><path d="M291.89 159.325s28.17-13.395 46.77-14.953c18.6-1.558 55.273 6.409 55.273 6.409l32.128 49.892-24.588 15.375 5.672 55.29-166.275 6.548s9.385-53.986 18.07-82.245c8.685-28.259 32.95-36.316 32.95-36.316z"/></clipPath></defs><g><g><g><g><g><g filter="url(#6atca)"><path fill="none" d="M25 127a8 8 0 0 1 8-8h266a8 8 0 0 1 8 8v132a8 8 0 0 1-8 8H33a8 8 0 0 1-8-8z" mask="url(&quot;#6atcb&quot;)"/><path fill="#81818b" fill-opacity=".1" d="M25 127a8 8 0 0 1 8-8h266a8 8 0 0 1 8 8v132a8 8 0 0 1-8 8H33a8 8 0 0 1-8-8z"/></g><path fill="#fff" d="M25 127a8 8 0 0 1 8-8h266a8 8 0 0 1 8 8v132a8 8 0 0 1-8 8H33a8 8 0 0 1-8-8z"/></g></g><g><g><g filter="url(#6atcc)"><path fill="none" d="M45 114a8 8 0 0 1 8-8h266a8 8 0 0 1 8 8v132a8 8 0 0 1-8 8H53a8 8 0 0 1-8-8z" mask="url(&quot;#6atcd&quot;)"/><path fill="#81818b" fill-opacity=".1" d="M45 114a8 8 0 0 1 8-8h266a8 8 0 0 1 8 8v132a8 8 0 0 1-8 8H53a8 8 0 0 1-8-8z"/></g><path fill="#fff" d="M45 114a8 8 0 0 1 8-8h266a8 8 0 0 1 8 8v132a8 8 0 0 1-8 8H53a8 8 0 0 1-8-8z"/></g><g><g><text fill="#222634" dominant-baseline="text-before-edge" font-family="'Overpass','Overpass-Bold'" font-size="14" transform="translate(77 138)"><tspan>IT Worldwide</tspan></text></g></g><g><g><text fill="#666b7c" dominant-baseline="text-before-edge" font-family="'Roboto','Roboto-Regular'" font-size="13" transform="translate(101 207)"><tspan>Human Reource Manager</tspan></text></g></g><g><g><path fill="#1a5dc6" d="M78 216.784v1.804c0 .78.626 1.412 1.4 1.412h11.2c.774 0 1.4-.632 1.4-1.412v-1.804a2.754 2.754 0 0 1-1.4.392H79.4c-.512 0-.986-.15-1.4-.392zm7-3.843c.386 0 .7.316.7.706 0 .39-.314.706-.7.706a.703.703 0 0 1-.7-.706c0-.39.314-.706.7-.706zM82.9 208v.706h-3.5c-.773 0-1.4.632-1.4 1.412v4.235c0 .779.628 1.412 1.4 1.412h11.2c.772 0 1.4-.633 1.4-1.412v-4.235c0-.78-.626-1.412-1.4-1.412h-3.5V208z"/></g></g><g><g><text dominant-baseline="text-before-edge" style="line-height:16px" fill="#9ba0b5" font-family="'Roboto','Roboto-Regular'" font-size="12" transform="translate(77 163)"><tspan style="line-height:16px">September 2018 – November 2018</tspan></text></g></g></g></g><g><g><g><g><g filter="url(#6atce)"><path fill="none" d="M215 36c0-6.075 4.925-11 11-11h245c6.075 0 11 4.925 11 11v266c0 6.075-4.925 11-11 11H226c-6.075 0-11-4.925-11-11z" mask="url(&quot;#6atcf&quot;)"/><path fill="#81818b" fill-opacity=".1" d="M215 36c0-6.075 4.925-11 11-11h245c6.075 0 11 4.925 11 11v266c0 6.075-4.925 11-11 11H226c-6.075 0-11-4.925-11-11z"/></g><path fill="#fff" d="M215 36c0-6.075 4.925-11 11-11h245c6.075 0 11 4.925 11 11v266c0 6.075-4.925 11-11 11H226c-6.075 0-11-4.925-11-11z"/></g><g clip-path="url(#6atcg)"><g><g><text fill="#666b7c" dominant-baseline="text-before-edge" font-family="'Roboto','Roboto-Regular'" font-size="13" transform="translate(255 109)"><tspan>Potential Credit Risk</tspan></text></g></g><g><g><text dominant-baseline="text-before-edge" style="text-transform:uppercase" fill="#4caf50" font-family="'Roboto','Roboto-Black'" font-size="12" letter-spacing=".69" transform="translate(415 109)"><tspan style="text-transform:uppercase">LOw</tspan></text></g></g></g><g clip-path="url(#6atcg)"><path fill="#1a5dc6" d="M215 25h267v52H215z"/></g></g><g><g><text dominant-baseline="text-before-edge" style="text-transform:uppercase;line-height:24px" fill="#fff" font-family="'Overpass','Overpass-Bold'" font-size="14" transform="translate(223 38)"><tspan style="text-transform:uppercase;line-height:24px">My credit report</tspan></text></g></g></g><g><g><g><path fill="#fff" d="M258.278 212.515l17.375-29.041s23.055-33.922 61.43-33.24c38.377.681 62.57 15.235 62.57 15.235l29.695 32.519 11.81 27.684v42.217l-33.021-6.502H287.194L255 267.889z"/></g><g clip-path="url(#6atch)"><path fill="none" stroke="#dee5ef" stroke-miterlimit="50" stroke-width="13.82" d="M349.5 310.797c33.905 0 61.39-27.888 61.39-62.289 0-34.4-27.485-62.288-61.39-62.288s-61.39 27.887-61.39 62.288c0 34.401 27.485 62.289 61.39 62.289z" clip-path="url(&quot;#6atci&quot;)"/></g><g clip-path="url(#6atch)"><g><path fill="#fff" d="M291.89 159.325s28.17-13.395 46.77-14.953c18.6-1.558 55.273 6.409 55.273 6.409l32.128 49.892-24.588 15.375 5.672 55.29-166.275 6.548s9.385-53.986 18.07-82.245c8.685-28.259 32.95-36.316 32.95-36.316z"/></g><g clip-path="url(#6atcj)"><path fill="none" stroke="#000" stroke-miterlimit="50" stroke-width="55.3" d="M347.46 307.371c34.049 0 61.65-27.736 61.65-61.95 0-34.215-27.601-61.951-61.65-61.951-34.048 0-61.65 27.736-61.65 61.95 0 34.215 27.602 61.951 61.65 61.951z" clip-path="url(&quot;#6atck&quot;)"/></g><g clip-path="url(#6atcj)"><path fill="none" stroke="#000" stroke-miterlimit="50" stroke-width="13.82" d="M347.46 307.371c34.049 0 61.65-27.736 61.65-61.95 0-34.215-27.601-61.951-61.65-61.951-34.048 0-61.65 27.736-61.65 61.95 0 34.215 27.602 61.951 61.65 61.951z" clip-path="url(&quot;#6atcl&quot;)"/></g></g></g><g><g><g><text fill="#9ba0b5" dominant-baseline="text-before-edge" font-family="'Roboto','Roboto-Regular'" font-size="9.6" transform="translate(321 203)"><tspan>Credit score</tspan></text></g></g><g><g><text fill="#222634" dominant-baseline="text-before-edge" font-family="'Roboto','Roboto-Black'" font-size="24.96" letter-spacing=".29" transform="translate(324 216)"><tspan>720</tspan></text></g></g><g><g><text fill="#9ba0b5" dominant-baseline="text-before-edge" font-family="'Roboto','Roboto-Regular'" font-size="9.6" transform="translate(330 247)"><tspan>of 1000</tspan></text></g></g></g></g></g></g></g></svg>