<svg xmlns="http://www.w3.org/2000/svg" width="20" height="20" viewBox="0 0 20 20"><g><g><path fill="#1a5dc6" d="M20 10c0 5.514-4.486 10-10 10S0 15.514 0 10 4.486 0 10 0s10 4.486 10 10zm-5.795 6.697a7.965 7.965 0 0 0 2.352-2.288l-.905-.524a.527.527 0 0 1 .526-.912l.906.524a7.859 7.859 0 0 0 .806-3.232l-.86.002a.28.28 0 0 1-.2-.475.277.277 0 0 1 .198-.082l.86-.003a7.846 7.846 0 0 0-.804-3.183l-.906.523a.527.527 0 0 1-.526-.912l.904-.524a7.962 7.962 0 0 0-2.392-2.313l-.426.744a.28.28 0 0 1-.484-.277l.427-.745a7.828 7.828 0 0 0-3.155-.897v1.049a.527.527 0 1 1-1.052 0V2.123a7.83 7.83 0 0 0-3.198.919l.431.743a.277.277 0 0 1-.1.382.282.282 0 0 1-.28 0 .282.282 0 0 1-.101-.102l-.432-.741a7.961 7.961 0 0 0-2.35 2.287l.904.524a.528.528 0 0 1-.526.912l-.906-.523a7.859 7.859 0 0 0-.806 3.232l.86-.003a.28.28 0 0 1 .199.476.277.277 0 0 1-.198.082l-.859.002a7.857 7.857 0 0 0 .804 3.184l.906-.524a.527.527 0 0 1 .526.912l-.904.524a7.962 7.962 0 0 0 2.392 2.313l.426-.744a.28.28 0 0 1 .51.065c.02.072.01.148-.027.212L6.318 17a7.828 7.828 0 0 0 3.156.897v-1.049a.527.527 0 1 1 1.052 0v1.049a7.83 7.83 0 0 0 3.198-.919l-.431-.743a.277.277 0 0 1 .101-.38.28.28 0 0 1 .381.1z"/></g><g><path fill="#1a5dc6" d="M13.68 7l-3.198 1.78a1.041 1.041 0 0 0-.974 0L6.31 7a.625.625 0 0 0-.85.244.63.63 0 0 0 .243.854l3.263 1.818c.094.484.52.85 1.03.85s.935-.366 1.03-.85l3.262-1.818a.63.63 0 0 0-.13-1.154.625.625 0 0 0-.477.055z"/></g></g></svg>