<svg xmlns="http://www.w3.org/2000/svg" width="27" height="27" viewBox="0 0 27 27"><g><g><path fill="#1a5dc6" d="M0 14h5.991A23.48 23.48 0 0 0 7 20.567 17.928 17.928 0 0 0 3.208 22C1.237 19.743.11 16.93 0 14zm4.04 9.316L4 23.271c.983-.54 2.024-.967 3.104-1.271A12.103 12.103 0 0 0 10 27l-.111-.029c-.094-.027-.189-.057-.284-.087a8.052 8.052 0 0 1-.343-.11c-.095-.033-.189-.068-.284-.103a12.33 12.33 0 0 1-.613-.246c-.108-.048-.217-.094-.324-.144-.2-.093-.398-.193-.593-.297-.091-.049-.182-.101-.272-.149a12.88 12.88 0 0 1-1.408-.932l-.248-.193a7.056 7.056 0 0 1-.277-.231c-.08-.068-.16-.135-.238-.205a8.898 8.898 0 0 1-.266-.246c-.078-.074-.155-.145-.23-.219-.087-.086-.171-.175-.255-.263a5.072 5.072 0 0 1-.214-.23zM7.105 5.001A14.652 14.652 0 0 1 4 3.73l.039-.047c.072-.079.146-.154.219-.231.084-.088.168-.177.254-.263.076-.075.154-.147.232-.22.087-.083.174-.164.264-.244.079-.071.16-.139.24-.208.094-.077.182-.154.275-.228A12.71 12.71 0 0 1 8.041.72l.322-.144.282-.12c.11-.044.222-.086.332-.127.095-.035.189-.071.286-.104.114-.039.227-.074.34-.109.097-.03.191-.06.287-.088L10 0a12.104 12.104 0 0 0-2.895 5.001zM13 13H7c.023-2.03.33-4.05.91-6a24.97 24.97 0 0 0 5.09.59zm0-6a25.159 25.159 0 0 1-5-.57C9.136 3.361 10.94 1.283 13 1zm0 12.409c-1.714.021-3.42.22-5.09.591-.58-1.95-.887-3.97-.91-6h6zM13 27c-2.06-.283-3.864-2.361-5-5.43a25.25 25.25 0 0 1 5-.57zM0 13c.108-2.93 1.237-5.744 3.208-8C4.414 5.62 5.686 6.1 7 6.433A23.48 23.48 0 0 0 5.991 13zm23-9.272c-.983.542-2.025.968-3.106 1.272A12.103 12.103 0 0 0 17 0l.11.029c.096.026.19.056.284.086.115.035.23.071.343.11.096.034.19.068.284.104.112.04.223.083.333.127l.28.119c.108.048.217.094.324.144.093.043.185.088.276.134.107.052.212.107.317.163.091.049.181.101.271.149a12.477 12.477 0 0 1 1.932 1.355c.08.067.16.135.238.205.091.08.178.163.266.246.077.074.155.145.23.219.086.086.17.175.254.263.073.076.147.152.219.231zM27 13h-5.991A23.472 23.472 0 0 0 20 6.433 17.924 17.924 0 0 0 23.792 5c1.971 2.257 3.098 5.07 3.208 8zm-13 1h6c-.023 2.03-.33 4.05-.91 6a24.957 24.957 0 0 0-5.09-.591zm0-13c2.06.283 3.864 2.361 5 5.43A25.25 25.25 0 0 1 14 7zm0 6.59A24.97 24.97 0 0 0 19.09 7a21.94 21.94 0 0 1 .91 6h-6zM23.792 22A17.858 17.858 0 0 0 20 20.567c.646-2.13.986-4.341 1.009-6.567H27c-.108 2.93-1.237 5.744-3.208 8zm-6.682 4.972L17 27a12.1 12.1 0 0 0 2.896-5c1.08.303 2.121.73 3.104 1.27l-.04.046c-.071.078-.145.154-.218.231-.085.088-.169.177-.255.262-.075.075-.153.147-.23.22-.087.083-.175.165-.265.245-.08.071-.16.139-.24.207l-.275.229-.25.193c-.094.07-.188.142-.284.21-.361.258-.736.497-1.121.717-.282.16-.57.309-.862.447l-.323.144c-.295.127-.595.244-.898.35-.113.04-.228.075-.342.11zM14 21c1.681.023 3.356.214 5 .57-1.136 3.069-2.94 5.147-5 5.43z"/></g></g></svg>