<?xml version="1.0" encoding="UTF-8"?>
<svg width="174px" height="226px" viewBox="0 0 174 226" version="1.1" xmlns="http://www.w3.org/2000/svg" xmlns:xlink="http://www.w3.org/1999/xlink">
    <!-- Generator: Sketch 59 (86127) - https://sketch.com -->
    <title>Group 4</title>
    <desc>Created with Sketch.</desc>
    <defs>
        <rect id="path-1" x="0.5" y="0.5" width="173" height="225"></rect>
    </defs>
    <g id="archive" stroke="none" stroke-width="1" fill="none" fill-rule="evenodd">
        <g id="Find-a-home" transform="translate(-1014.000000, -7408.000000)">
            <g id="Group-4" transform="translate(1014.000000, 7407.000000)">
                <mask id="mask-2" fill="white">
                    <use xlink:href="#path-1"></use>
                </mask>
                <g id="Rectangle"></g>
                <g id="Group-16" mask="url(#mask-2)" fill="#749CDB">
                    <g transform="translate(-33.000000, -27.000000)" id="Oval">
                        <circle cx="41" cy="31" r="1"></circle>
                        <circle cx="51" cy="31" r="1"></circle>
                        <circle cx="61" cy="31" r="1"></circle>
                        <circle cx="71" cy="31" r="1"></circle>
                        <circle cx="81" cy="31" r="1"></circle>
                        <circle cx="91" cy="31" r="1"></circle>
                        <circle cx="101" cy="31" r="1"></circle>
                        <circle cx="41" cy="41" r="1"></circle>
                        <circle cx="51" cy="41" r="1"></circle>
                        <circle cx="61" cy="41" r="1"></circle>
                        <circle cx="71" cy="41" r="1"></circle>
                        <circle cx="81" cy="41" r="1"></circle>
                        <circle cx="91" cy="41" r="1"></circle>
                        <circle cx="101" cy="41" r="1"></circle>
                        <circle cx="41" cy="51" r="1"></circle>
                        <circle cx="51" cy="51" r="1"></circle>
                        <circle cx="61" cy="51" r="1"></circle>
                        <circle cx="71" cy="51" r="1"></circle>
                        <circle cx="81" cy="51" r="1"></circle>
                        <circle cx="91" cy="51" r="1"></circle>
                        <circle cx="101" cy="51" r="1"></circle>
                        <circle cx="41" cy="61" r="1"></circle>
                        <circle cx="51" cy="61" r="1"></circle>
                        <circle cx="61" cy="61" r="1"></circle>
                        <circle cx="71" cy="61" r="1"></circle>
                        <circle cx="81" cy="61" r="1"></circle>
                        <circle cx="91" cy="61" r="1"></circle>
                        <circle cx="101" cy="61" r="1"></circle>
                        <circle cx="41" cy="71" r="1"></circle>
                        <circle cx="51" cy="71" r="1"></circle>
                        <circle cx="61" cy="71" r="1"></circle>
                        <circle cx="71" cy="71" r="1"></circle>
                        <circle cx="81" cy="71" r="1"></circle>
                        <circle cx="91" cy="71" r="1"></circle>
                        <circle cx="101" cy="71" r="1"></circle>
                        <circle cx="41" cy="81" r="1"></circle>
                        <circle cx="51" cy="81" r="1"></circle>
                        <circle cx="61" cy="81" r="1"></circle>
                        <circle cx="71" cy="81" r="1"></circle>
                        <circle cx="81" cy="81" r="1"></circle>
                        <circle cx="91" cy="81" r="1"></circle>
                        <circle cx="101" cy="81" r="1"></circle>
                        <circle cx="41" cy="91" r="1"></circle>
                        <circle cx="51" cy="91" r="1"></circle>
                        <circle cx="61" cy="91" r="1"></circle>
                        <circle cx="71" cy="91" r="1"></circle>
                        <circle cx="81" cy="91" r="1"></circle>
                        <circle cx="91" cy="91" r="1"></circle>
                        <circle cx="101" cy="91" r="1"></circle>
                        <circle cx="41" cy="101" r="1"></circle>
                        <circle cx="51" cy="101" r="1"></circle>
                        <circle cx="61" cy="101" r="1"></circle>
                        <circle cx="71" cy="101" r="1"></circle>
                        <circle cx="81" cy="101" r="1"></circle>
                        <circle cx="91" cy="101" r="1"></circle>
                        <circle cx="101" cy="101" r="1"></circle>
                        <circle cx="41" cy="111" r="1"></circle>
                        <circle cx="51" cy="111" r="1"></circle>
                        <circle cx="61" cy="111" r="1"></circle>
                        <circle cx="71" cy="111" r="1"></circle>
                        <circle cx="81" cy="111" r="1"></circle>
                        <circle cx="91" cy="111" r="1"></circle>
                        <circle cx="101" cy="111" r="1"></circle>
                        <circle cx="41" cy="121" r="1"></circle>
                        <circle cx="51" cy="121" r="1"></circle>
                        <circle cx="61" cy="121" r="1"></circle>
                        <circle cx="71" cy="121" r="1"></circle>
                        <circle cx="81" cy="121" r="1"></circle>
                        <circle cx="91" cy="121" r="1"></circle>
                        <circle cx="101" cy="121" r="1"></circle>
                        <circle cx="41" cy="131" r="1"></circle>
                        <circle cx="51" cy="131" r="1"></circle>
                        <circle cx="61" cy="131" r="1"></circle>
                        <circle cx="71" cy="131" r="1"></circle>
                        <circle cx="81" cy="131" r="1"></circle>
                        <circle cx="91" cy="131" r="1"></circle>
                        <circle cx="101" cy="131" r="1"></circle>
                        <circle cx="111" cy="31" r="1"></circle>
                        <circle cx="121" cy="31" r="1"></circle>
                        <circle cx="131" cy="31" r="1"></circle>
                        <circle cx="141" cy="31" r="1"></circle>
                        <circle cx="151" cy="31" r="1"></circle>
                        <circle cx="161" cy="31" r="1"></circle>
                        <circle cx="171" cy="31" r="1"></circle>
                        <circle cx="181" cy="31" r="1"></circle>
                        <circle cx="191" cy="31" r="1"></circle>
                        <circle cx="201" cy="31" r="1"></circle>
                        <circle cx="111" cy="41" r="1"></circle>
                        <circle cx="121" cy="41" r="1"></circle>
                        <circle cx="131" cy="41" r="1"></circle>
                        <circle cx="141" cy="41" r="1"></circle>
                        <circle cx="151" cy="41" r="1"></circle>
                        <circle cx="161" cy="41" r="1"></circle>
                        <circle cx="171" cy="41" r="1"></circle>
                        <circle cx="181" cy="41" r="1"></circle>
                        <circle cx="191" cy="41" r="1"></circle>
                        <circle cx="201" cy="41" r="1"></circle>
                        <circle cx="111" cy="51" r="1"></circle>
                        <circle cx="121" cy="51" r="1"></circle>
                        <circle cx="131" cy="51" r="1"></circle>
                        <circle cx="141" cy="51" r="1"></circle>
                        <circle cx="151" cy="51" r="1"></circle>
                        <circle cx="161" cy="51" r="1"></circle>
                        <circle cx="171" cy="51" r="1"></circle>
                        <circle cx="181" cy="51" r="1"></circle>
                        <circle cx="191" cy="51" r="1"></circle>
                        <circle cx="201" cy="51" r="1"></circle>
                        <circle cx="111" cy="61" r="1"></circle>
                        <circle cx="121" cy="61" r="1"></circle>
                        <circle cx="131" cy="61" r="1"></circle>
                        <circle cx="141" cy="61" r="1"></circle>
                        <circle cx="151" cy="61" r="1"></circle>
                        <circle cx="161" cy="61" r="1"></circle>
                        <circle cx="171" cy="61" r="1"></circle>
                        <circle cx="181" cy="61" r="1"></circle>
                        <circle cx="191" cy="61" r="1"></circle>
                        <circle cx="201" cy="61" r="1"></circle>
                        <circle cx="111" cy="71" r="1"></circle>
                        <circle cx="121" cy="71" r="1"></circle>
                        <circle cx="131" cy="71" r="1"></circle>
                        <circle cx="141" cy="71" r="1"></circle>
                        <circle cx="151" cy="71" r="1"></circle>
                        <circle cx="161" cy="71" r="1"></circle>
                        <circle cx="171" cy="71" r="1"></circle>
                        <circle cx="181" cy="71" r="1"></circle>
                        <circle cx="191" cy="71" r="1"></circle>
                        <circle cx="201" cy="71" r="1"></circle>
                        <circle cx="111" cy="81" r="1"></circle>
                        <circle cx="121" cy="81" r="1"></circle>
                        <circle cx="131" cy="81" r="1"></circle>
                        <circle cx="141" cy="81" r="1"></circle>
                        <circle cx="151" cy="81" r="1"></circle>
                        <circle cx="161" cy="81" r="1"></circle>
                        <circle cx="171" cy="81" r="1"></circle>
                        <circle cx="181" cy="81" r="1"></circle>
                        <circle cx="191" cy="81" r="1"></circle>
                        <circle cx="201" cy="81" r="1"></circle>
                        <circle cx="111" cy="91" r="1"></circle>
                        <circle cx="121" cy="91" r="1"></circle>
                        <circle cx="131" cy="91" r="1"></circle>
                        <circle cx="141" cy="91" r="1"></circle>
                        <circle cx="151" cy="91" r="1"></circle>
                        <circle cx="161" cy="91" r="1"></circle>
                        <circle cx="171" cy="91" r="1"></circle>
                        <circle cx="181" cy="91" r="1"></circle>
                        <circle cx="191" cy="91" r="1"></circle>
                        <circle cx="201" cy="91" r="1"></circle>
                        <circle cx="111" cy="101" r="1"></circle>
                        <circle cx="121" cy="101" r="1"></circle>
                        <circle cx="131" cy="101" r="1"></circle>
                        <circle cx="141" cy="101" r="1"></circle>
                        <circle cx="151" cy="101" r="1"></circle>
                        <circle cx="161" cy="101" r="1"></circle>
                        <circle cx="171" cy="101" r="1"></circle>
                        <circle cx="181" cy="101" r="1"></circle>
                        <circle cx="191" cy="101" r="1"></circle>
                        <circle cx="201" cy="101" r="1"></circle>
                        <circle cx="111" cy="111" r="1"></circle>
                        <circle cx="121" cy="111" r="1"></circle>
                        <circle cx="131" cy="111" r="1"></circle>
                        <circle cx="141" cy="111" r="1"></circle>
                        <circle cx="151" cy="111" r="1"></circle>
                        <circle cx="161" cy="111" r="1"></circle>
                        <circle cx="171" cy="111" r="1"></circle>
                        <circle cx="181" cy="111" r="1"></circle>
                        <circle cx="191" cy="111" r="1"></circle>
                        <circle cx="201" cy="111" r="1"></circle>
                        <circle cx="111" cy="121" r="1"></circle>
                        <circle cx="121" cy="121" r="1"></circle>
                        <circle cx="131" cy="121" r="1"></circle>
                        <circle cx="141" cy="121" r="1"></circle>
                        <circle cx="151" cy="121" r="1"></circle>
                        <circle cx="161" cy="121" r="1"></circle>
                        <circle cx="171" cy="121" r="1"></circle>
                        <circle cx="181" cy="121" r="1"></circle>
                        <circle cx="191" cy="121" r="1"></circle>
                        <circle cx="201" cy="121" r="1"></circle>
                        <circle cx="111" cy="131" r="1"></circle>
                        <circle cx="121" cy="131" r="1"></circle>
                        <circle cx="131" cy="131" r="1"></circle>
                        <circle cx="141" cy="131" r="1"></circle>
                        <circle cx="151" cy="131" r="1"></circle>
                        <circle cx="161" cy="131" r="1"></circle>
                        <circle cx="171" cy="131" r="1"></circle>
                        <circle cx="181" cy="131" r="1"></circle>
                        <circle cx="191" cy="131" r="1"></circle>
                        <circle cx="201" cy="131" r="1"></circle>
                        <circle cx="181" cy="31" r="1"></circle>
                        <circle cx="191" cy="31" r="1"></circle>
                        <circle cx="201" cy="31" r="1"></circle>
                        <circle cx="181" cy="41" r="1"></circle>
                        <circle cx="191" cy="41" r="1"></circle>
                        <circle cx="201" cy="41" r="1"></circle>
                        <circle cx="181" cy="51" r="1"></circle>
                        <circle cx="191" cy="51" r="1"></circle>
                        <circle cx="201" cy="51" r="1"></circle>
                        <circle cx="181" cy="61" r="1"></circle>
                        <circle cx="191" cy="61" r="1"></circle>
                        <circle cx="201" cy="61" r="1"></circle>
                        <circle cx="181" cy="71" r="1"></circle>
                        <circle cx="191" cy="71" r="1"></circle>
                        <circle cx="201" cy="71" r="1"></circle>
                        <circle cx="181" cy="81" r="1"></circle>
                        <circle cx="191" cy="81" r="1"></circle>
                        <circle cx="201" cy="81" r="1"></circle>
                        <circle cx="181" cy="91" r="1"></circle>
                        <circle cx="191" cy="91" r="1"></circle>
                        <circle cx="201" cy="91" r="1"></circle>
                        <circle cx="181" cy="101" r="1"></circle>
                        <circle cx="191" cy="101" r="1"></circle>
                        <circle cx="201" cy="101" r="1"></circle>
                        <circle cx="181" cy="111" r="1"></circle>
                        <circle cx="191" cy="111" r="1"></circle>
                        <circle cx="201" cy="111" r="1"></circle>
                        <circle cx="181" cy="121" r="1"></circle>
                        <circle cx="191" cy="121" r="1"></circle>
                        <circle cx="201" cy="121" r="1"></circle>
                        <circle cx="181" cy="131" r="1"></circle>
                        <circle cx="191" cy="131" r="1"></circle>
                        <circle cx="201" cy="131" r="1"></circle>
                    </g>
                </g>
                <g id="Group-16" mask="url(#mask-2)" fill="#749CDB">
                    <g transform="translate(-33.000000, 113.000000)" id="Oval">
                        <circle cx="41" cy="1" r="1"></circle>
                        <circle cx="51" cy="1" r="1"></circle>
                        <circle cx="61" cy="1" r="1"></circle>
                        <circle cx="61" cy="1" r="1"></circle>
                        <circle cx="71" cy="1" r="1"></circle>
                        <circle cx="81" cy="1" r="1"></circle>
                        <circle cx="91" cy="1" r="1"></circle>
                        <circle cx="101" cy="1" r="1"></circle>
                        <circle cx="41" cy="11" r="1"></circle>
                        <circle cx="51" cy="11" r="1"></circle>
                        <circle cx="61" cy="11" r="1"></circle>
                        <circle cx="71" cy="11" r="1"></circle>
                        <circle cx="81" cy="11" r="1"></circle>
                        <circle cx="91" cy="11" r="1"></circle>
                        <circle cx="101" cy="11" r="1"></circle>
                        <circle cx="41" cy="21" r="1"></circle>
                        <circle cx="51" cy="21" r="1"></circle>
                        <circle cx="61" cy="21" r="1"></circle>
                        <circle cx="71" cy="21" r="1"></circle>
                        <circle cx="81" cy="21" r="1"></circle>
                        <circle cx="91" cy="21" r="1"></circle>
                        <circle cx="101" cy="21" r="1"></circle>
                        <circle cx="41" cy="31" r="1"></circle>
                        <circle cx="51" cy="31" r="1"></circle>
                        <circle cx="61" cy="31" r="1"></circle>
                        <circle cx="71" cy="31" r="1"></circle>
                        <circle cx="81" cy="31" r="1"></circle>
                        <circle cx="91" cy="31" r="1"></circle>
                        <circle cx="101" cy="31" r="1"></circle>
                        <circle cx="41" cy="41" r="1"></circle>
                        <circle cx="51" cy="41" r="1"></circle>
                        <circle cx="61" cy="41" r="1"></circle>
                        <circle cx="71" cy="41" r="1"></circle>
                        <circle cx="81" cy="41" r="1"></circle>
                        <circle cx="91" cy="41" r="1"></circle>
                        <circle cx="101" cy="41" r="1"></circle>
                        <circle cx="41" cy="51" r="1"></circle>
                        <circle cx="51" cy="51" r="1"></circle>
                        <circle cx="61" cy="51" r="1"></circle>
                        <circle cx="71" cy="51" r="1"></circle>
                        <circle cx="81" cy="51" r="1"></circle>
                        <circle cx="91" cy="51" r="1"></circle>
                        <circle cx="101" cy="51" r="1"></circle>
                        <circle cx="41" cy="61" r="1"></circle>
                        <circle cx="51" cy="61" r="1"></circle>
                        <circle cx="61" cy="61" r="1"></circle>
                        <circle cx="71" cy="61" r="1"></circle>
                        <circle cx="81" cy="61" r="1"></circle>
                        <circle cx="91" cy="61" r="1"></circle>
                        <circle cx="101" cy="61" r="1"></circle>
                        <circle cx="41" cy="71" r="1"></circle>
                        <circle cx="51" cy="71" r="1"></circle>
                        <circle cx="61" cy="71" r="1"></circle>
                        <circle cx="71" cy="71" r="1"></circle>
                        <circle cx="81" cy="71" r="1"></circle>
                        <circle cx="91" cy="71" r="1"></circle>
                        <circle cx="101" cy="71" r="1"></circle>
                        <circle cx="41" cy="81" r="1"></circle>
                        <circle cx="51" cy="81" r="1"></circle>
                        <circle cx="61" cy="81" r="1"></circle>
                        <circle cx="71" cy="81" r="1"></circle>
                        <circle cx="81" cy="81" r="1"></circle>
                        <circle cx="91" cy="81" r="1"></circle>
                        <circle cx="101" cy="81" r="1"></circle>
                        <circle cx="41" cy="91" r="1"></circle>
                        <circle cx="51" cy="91" r="1"></circle>
                        <circle cx="61" cy="91" r="1"></circle>
                        <circle cx="71" cy="91" r="1"></circle>
                        <circle cx="81" cy="91" r="1"></circle>
                        <circle cx="91" cy="91" r="1"></circle>
                        <circle cx="101" cy="91" r="1"></circle>
                        <circle cx="41" cy="101" r="1"></circle>
                        <circle cx="51" cy="101" r="1"></circle>
                        <circle cx="61" cy="101" r="1"></circle>
                        <circle cx="71" cy="101" r="1"></circle>
                        <circle cx="81" cy="101" r="1"></circle>
                        <circle cx="91" cy="101" r="1"></circle>
                        <circle cx="101" cy="101" r="1"></circle>
                        <circle cx="41" cy="111" r="1"></circle>
                        <circle cx="51" cy="111" r="1"></circle>
                        <circle cx="61" cy="111" r="1"></circle>
                        <circle cx="71" cy="111" r="1"></circle>
                        <circle cx="81" cy="111" r="1"></circle>
                        <circle cx="91" cy="111" r="1"></circle>
                        <circle cx="101" cy="111" r="1"></circle>
                        <circle cx="111" cy="1" r="1"></circle>
                        <circle cx="121" cy="1" r="1"></circle>
                        <circle cx="131" cy="1" r="1"></circle>
                        <circle cx="141" cy="1" r="1"></circle>
                        <circle cx="151" cy="1" r="1"></circle>
                        <circle cx="161" cy="1" r="1"></circle>
                        <circle cx="171" cy="1" r="1"></circle>
                        <circle cx="171" cy="1" r="1"></circle>
                        <circle cx="181" cy="1" r="1"></circle>
                        <circle cx="191" cy="1" r="1"></circle>
                        <circle cx="201" cy="1" r="1"></circle>
                        <circle cx="111" cy="11" r="1"></circle>
                        <circle cx="121" cy="11" r="1"></circle>
                        <circle cx="131" cy="11" r="1"></circle>
                        <circle cx="141" cy="11" r="1"></circle>
                        <circle cx="151" cy="11" r="1"></circle>
                        <circle cx="161" cy="11" r="1"></circle>
                        <circle cx="171" cy="11" r="1"></circle>
                        <circle cx="181" cy="11" r="1"></circle>
                        <circle cx="191" cy="11" r="1"></circle>
                        <circle cx="201" cy="11" r="1"></circle>
                        <circle cx="111" cy="21" r="1"></circle>
                        <circle cx="121" cy="21" r="1"></circle>
                        <circle cx="131" cy="21" r="1"></circle>
                        <circle cx="141" cy="21" r="1"></circle>
                        <circle cx="151" cy="21" r="1"></circle>
                        <circle cx="161" cy="21" r="1"></circle>
                        <circle cx="171" cy="21" r="1"></circle>
                        <circle cx="181" cy="21" r="1"></circle>
                        <circle cx="191" cy="21" r="1"></circle>
                        <circle cx="201" cy="21" r="1"></circle>
                        <circle cx="111" cy="31" r="1"></circle>
                        <circle cx="121" cy="31" r="1"></circle>
                        <circle cx="131" cy="31" r="1"></circle>
                        <circle cx="141" cy="31" r="1"></circle>
                        <circle cx="151" cy="31" r="1"></circle>
                        <circle cx="161" cy="31" r="1"></circle>
                        <circle cx="171" cy="31" r="1"></circle>
                        <circle cx="181" cy="31" r="1"></circle>
                        <circle cx="191" cy="31" r="1"></circle>
                        <circle cx="201" cy="31" r="1"></circle>
                        <circle cx="111" cy="41" r="1"></circle>
                        <circle cx="121" cy="41" r="1"></circle>
                        <circle cx="131" cy="41" r="1"></circle>
                        <circle cx="141" cy="41" r="1"></circle>
                        <circle cx="151" cy="41" r="1"></circle>
                        <circle cx="161" cy="41" r="1"></circle>
                        <circle cx="171" cy="41" r="1"></circle>
                        <circle cx="181" cy="41" r="1"></circle>
                        <circle cx="191" cy="41" r="1"></circle>
                        <circle cx="201" cy="41" r="1"></circle>
                        <circle cx="111" cy="51" r="1"></circle>
                        <circle cx="121" cy="51" r="1"></circle>
                        <circle cx="131" cy="51" r="1"></circle>
                        <circle cx="141" cy="51" r="1"></circle>
                        <circle cx="151" cy="51" r="1"></circle>
                        <circle cx="161" cy="51" r="1"></circle>
                        <circle cx="171" cy="51" r="1"></circle>
                        <circle cx="181" cy="51" r="1"></circle>
                        <circle cx="191" cy="51" r="1"></circle>
                        <circle cx="201" cy="51" r="1"></circle>
                        <circle cx="111" cy="61" r="1"></circle>
                        <circle cx="121" cy="61" r="1"></circle>
                        <circle cx="131" cy="61" r="1"></circle>
                        <circle cx="141" cy="61" r="1"></circle>
                        <circle cx="151" cy="61" r="1"></circle>
                        <circle cx="161" cy="61" r="1"></circle>
                        <circle cx="171" cy="61" r="1"></circle>
                        <circle cx="181" cy="61" r="1"></circle>
                        <circle cx="191" cy="61" r="1"></circle>
                        <circle cx="201" cy="61" r="1"></circle>
                        <circle cx="111" cy="71" r="1"></circle>
                        <circle cx="121" cy="71" r="1"></circle>
                        <circle cx="131" cy="71" r="1"></circle>
                        <circle cx="141" cy="71" r="1"></circle>
                        <circle cx="151" cy="71" r="1"></circle>
                        <circle cx="161" cy="71" r="1"></circle>
                        <circle cx="171" cy="71" r="1"></circle>
                        <circle cx="181" cy="71" r="1"></circle>
                        <circle cx="191" cy="71" r="1"></circle>
                        <circle cx="201" cy="71" r="1"></circle>
                        <circle cx="111" cy="81" r="1"></circle>
                        <circle cx="121" cy="81" r="1"></circle>
                        <circle cx="131" cy="81" r="1"></circle>
                        <circle cx="141" cy="81" r="1"></circle>
                        <circle cx="151" cy="81" r="1"></circle>
                        <circle cx="161" cy="81" r="1"></circle>
                        <circle cx="171" cy="81" r="1"></circle>
                        <circle cx="181" cy="81" r="1"></circle>
                        <circle cx="191" cy="81" r="1"></circle>
                        <circle cx="201" cy="81" r="1"></circle>
                        <circle cx="111" cy="91" r="1"></circle>
                        <circle cx="121" cy="91" r="1"></circle>
                        <circle cx="131" cy="91" r="1"></circle>
                        <circle cx="141" cy="91" r="1"></circle>
                        <circle cx="151" cy="91" r="1"></circle>
                        <circle cx="161" cy="91" r="1"></circle>
                        <circle cx="171" cy="91" r="1"></circle>
                        <circle cx="181" cy="91" r="1"></circle>
                        <circle cx="191" cy="91" r="1"></circle>
                        <circle cx="201" cy="91" r="1"></circle>
                        <circle cx="111" cy="101" r="1"></circle>
                        <circle cx="121" cy="101" r="1"></circle>
                        <circle cx="131" cy="101" r="1"></circle>
                        <circle cx="141" cy="101" r="1"></circle>
                        <circle cx="151" cy="101" r="1"></circle>
                        <circle cx="161" cy="101" r="1"></circle>
                        <circle cx="171" cy="101" r="1"></circle>
                        <circle cx="181" cy="101" r="1"></circle>
                        <circle cx="191" cy="101" r="1"></circle>
                        <circle cx="201" cy="101" r="1"></circle>
                        <circle cx="111" cy="111" r="1"></circle>
                        <circle cx="121" cy="111" r="1"></circle>
                        <circle cx="131" cy="111" r="1"></circle>
                        <circle cx="141" cy="111" r="1"></circle>
                        <circle cx="151" cy="111" r="1"></circle>
                        <circle cx="161" cy="111" r="1"></circle>
                        <circle cx="171" cy="111" r="1"></circle>
                        <circle cx="181" cy="111" r="1"></circle>
                        <circle cx="191" cy="111" r="1"></circle>
                        <circle cx="201" cy="111" r="1"></circle>
                        <circle cx="181" cy="1" r="1"></circle>
                        <circle cx="191" cy="1" r="1"></circle>
                        <circle cx="201" cy="1" r="1"></circle>
                        <circle cx="181" cy="11" r="1"></circle>
                        <circle cx="191" cy="11" r="1"></circle>
                        <circle cx="201" cy="11" r="1"></circle>
                        <circle cx="181" cy="21" r="1"></circle>
                        <circle cx="191" cy="21" r="1"></circle>
                        <circle cx="201" cy="21" r="1"></circle>
                        <circle cx="181" cy="31" r="1"></circle>
                        <circle cx="191" cy="31" r="1"></circle>
                        <circle cx="201" cy="31" r="1"></circle>
                        <circle cx="181" cy="41" r="1"></circle>
                        <circle cx="191" cy="41" r="1"></circle>
                        <circle cx="201" cy="41" r="1"></circle>
                        <circle cx="181" cy="51" r="1"></circle>
                        <circle cx="191" cy="51" r="1"></circle>
                        <circle cx="201" cy="51" r="1"></circle>
                        <circle cx="181" cy="61" r="1"></circle>
                        <circle cx="191" cy="61" r="1"></circle>
                        <circle cx="201" cy="61" r="1"></circle>
                        <circle cx="181" cy="71" r="1"></circle>
                        <circle cx="191" cy="71" r="1"></circle>
                        <circle cx="201" cy="71" r="1"></circle>
                        <circle cx="181" cy="81" r="1"></circle>
                        <circle cx="191" cy="81" r="1"></circle>
                        <circle cx="201" cy="81" r="1"></circle>
                        <circle cx="181" cy="91" r="1"></circle>
                        <circle cx="191" cy="91" r="1"></circle>
                        <circle cx="201" cy="91" r="1"></circle>
                        <circle cx="181" cy="101" r="1"></circle>
                        <circle cx="191" cy="101" r="1"></circle>
                        <circle cx="201" cy="101" r="1"></circle>
                        <circle cx="181" cy="111" r="1"></circle>
                        <circle cx="191" cy="111" r="1"></circle>
                        <circle cx="201" cy="111" r="1"></circle>
                    </g>
                </g>
            </g>
            <text id="Rentorr-–-Free-Prope" font-family="Helvetica" font-size="42" font-weight="normal" line-spacing="48" letter-spacing="-0.437499873" fill="#222634">
                <tspan x="134" y="7529">Rentorr – </tspan>
                <tspan x="134" y="7577">Free Property Management</tspan>
                <tspan x="134" y="7625">Software from Start to Finish</tspan>
            </text>
        </g>
    </g>
</svg>