<svg xmlns="http://www.w3.org/2000/svg" width="22" height="16" viewBox="0 0 22 16"><g><g><path fill="#1a5dc6" d="M17 11.009c-1.02 0-1.725-.508-1.935-1.393a.5.5 0 1 1 .973-.231c.069.291.241.625.962.625.907 0 .995-.563 1-.735 0-.148-.029-.276-.082-.351-.161-.231-.745-.368-1.172-.467-.388-.091-.754-.176-1.018-.344-.449-.287-.728-.776-.728-1.278 0-.525.208-.984.602-1.328.4-.35.809-.499 1.365-.499.368 0 .656.073.995.251a1.907 1.907 0 0 1 .931 1.079.5.5 0 0 1-.946.322.889.889 0 0 0-.45-.516.985.985 0 0 0-.529-.136c-.352 0-.52.089-.707.252a.716.716 0 0 0-.261.575c0 .16.104.33.264.432.121.077.434.149.71.214.648.152 1.384.324 1.764.868.174.25.262.563.262.932 0 .481-.359 1.728-2 1.728zm-4-1.995c0 .286-.044.55-.133.793a1.82 1.82 0 0 1-.386.63 1.753 1.753 0 0 1-.612.414c-.24.1-.513.149-.818.149h-1.044a1 1 0 0 1-1-1V6a1 1 0 0 1 1-1h1.044c.305 0 .578.049.818.148.24.099.444.237.612.414.168.177.296.387.386.63.089.244.133.509.133.794L12.999 7v2l.001.014zM7 10.5a.5.5 0 0 1-1 0V9H4v1.5a.5.5 0 0 1-1 0V7a2 2 0 1 1 4 0zM20 0H2C.897 0 0 .897 0 2v12c0 1.103.897 2 2 2h18c1.103 0 2-.897 2-2V2c0-1.103-.897-2-2-2z"/></g></g></svg>