<svg xmlns="http://www.w3.org/2000/svg" width="9" height="22" viewBox="0 0 9 22"><g><g><g><path fill="#1a5dc6" d="M4.13 5.133c1.516 0 2.75-1.151 2.75-2.566C6.88 1.15 5.646 0 4.13 0S1.38 1.151 1.38 2.567c0 1.415 1.234 2.566 2.75 2.566z"/></g><g><path fill="#1a5dc6" d="M6.607 6.842l-.617-.207a.676.676 0 0 0-.647.123l-1.218.998-1.218-.998a.675.675 0 0 0-.647-.123l-.617.207C.66 7.201 0 8.203 0 9.337v4.011c0 .155.041.306.12.436l1.228 2.047v5.376c0 .438.325.793.725.793h4.104c.4 0 .725-.355.725-.793v-5.376l1.229-2.047c.078-.13.119-.281.119-.436v-4.01c0-1.135-.66-2.137-1.643-2.496z"/></g></g></g></svg>