<?xml version="1.0" encoding="UTF-8"?>
<svg width="149px" height="127px" viewBox="0 0 149 127" version="1.1" xmlns="http://www.w3.org/2000/svg" xmlns:xlink="http://www.w3.org/1999/xlink">
    <!-- Generator: Sketch 59 (86127) - https://sketch.com -->
    <title>dots</title>
    <desc>Created with Sketch.</desc>
    <defs>
        <rect id="path-1" x="0.5" y="0.5" width="71" height="75"></rect>
        <rect id="path-3" x="0.5" y="0.5" width="71" height="75"></rect>
    </defs>
    <g id="Page-1" stroke="none" stroke-width="1" fill="none" fill-rule="evenodd">
        <g id="Rentorr-Landing---Landlord-1" transform="translate(-1006.000000, -864.000000)">
            <g id="Block-2" transform="translate(134.000000, 859.000000)">
                <g id="dots" transform="translate(947.000000, 65.000000)">
                    <g transform="translate(38.000000, 36.000000) scale(1, -1) rotate(90.000000) translate(-38.000000, -36.000000) translate(2.000000, -2.000000)">
                        <mask id="mask-2" fill="white">
                            <use xlink:href="#path-1"></use>
                        </mask>
                        <g id="Rectangle"></g>
                        <g id="Group-16" mask="url(#mask-2)" fill="#B9BBC0">
                            <g transform="translate(-135.000000, -58.000000)" id="Oval">
                                <circle cx="141" cy="61" r="1"></circle>
                                <circle cx="151" cy="61" r="1"></circle>
                                <circle cx="161" cy="61" r="1"></circle>
                                <circle cx="171" cy="61" r="1"></circle>
                                <circle cx="181" cy="61" r="1"></circle>
                                <circle cx="191" cy="61" r="1"></circle>
                                <circle cx="201" cy="61" r="1"></circle>
                                <circle cx="211" cy="61" r="1"></circle>
                                <circle cx="141" cy="71" r="1"></circle>
                                <circle cx="151" cy="71" r="1"></circle>
                                <circle cx="161" cy="71" r="1"></circle>
                                <circle cx="171" cy="71" r="1"></circle>
                                <circle cx="181" cy="71" r="1"></circle>
                                <circle cx="191" cy="71" r="1"></circle>
                                <circle cx="201" cy="71" r="1"></circle>
                                <circle cx="211" cy="71" r="1"></circle>
                                <circle cx="141" cy="81" r="1"></circle>
                                <circle cx="151" cy="81" r="1"></circle>
                                <circle cx="161" cy="81" r="1"></circle>
                                <circle cx="171" cy="81" r="1"></circle>
                                <circle cx="181" cy="81" r="1"></circle>
                                <circle cx="191" cy="81" r="1"></circle>
                                <circle cx="201" cy="81" r="1"></circle>
                                <circle cx="211" cy="81" r="1"></circle>
                                <circle cx="141" cy="91" r="1"></circle>
                                <circle cx="151" cy="91" r="1"></circle>
                                <circle cx="161" cy="91" r="1"></circle>
                                <circle cx="171" cy="91" r="1"></circle>
                                <circle cx="181" cy="91" r="1"></circle>
                                <circle cx="191" cy="91" r="1"></circle>
                                <circle cx="201" cy="91" r="1"></circle>
                                <circle cx="211" cy="91" r="1"></circle>
                                <circle cx="141" cy="101" r="1"></circle>
                                <circle cx="151" cy="101" r="1"></circle>
                                <circle cx="161" cy="101" r="1"></circle>
                                <circle cx="171" cy="101" r="1"></circle>
                                <circle cx="181" cy="101" r="1"></circle>
                                <circle cx="191" cy="101" r="1"></circle>
                                <circle cx="201" cy="101" r="1"></circle>
                                <circle cx="211" cy="101" r="1"></circle>
                                <circle cx="141" cy="111" r="1"></circle>
                                <circle cx="151" cy="111" r="1"></circle>
                                <circle cx="161" cy="111" r="1"></circle>
                                <circle cx="171" cy="111" r="1"></circle>
                                <circle cx="181" cy="111" r="1"></circle>
                                <circle cx="191" cy="111" r="1"></circle>
                                <circle cx="201" cy="111" r="1"></circle>
                                <circle cx="211" cy="111" r="1"></circle>
                                <circle cx="141" cy="121" r="1"></circle>
                                <circle cx="151" cy="121" r="1"></circle>
                                <circle cx="161" cy="121" r="1"></circle>
                                <circle cx="171" cy="121" r="1"></circle>
                                <circle cx="181" cy="121" r="1"></circle>
                                <circle cx="191" cy="121" r="1"></circle>
                                <circle cx="201" cy="121" r="1"></circle>
                                <circle cx="211" cy="121" r="1"></circle>
                                <circle cx="141" cy="131" r="1"></circle>
                                <circle cx="151" cy="131" r="1"></circle>
                                <circle cx="161" cy="131" r="1"></circle>
                                <circle cx="171" cy="131" r="1"></circle>
                                <circle cx="181" cy="131" r="1"></circle>
                                <circle cx="191" cy="131" r="1"></circle>
                                <circle cx="201" cy="131" r="1"></circle>
                                <circle cx="211" cy="131" r="1"></circle>
                                <circle cx="181" cy="61" r="1"></circle>
                                <circle cx="191" cy="61" r="1"></circle>
                                <circle cx="201" cy="61" r="1"></circle>
                                <circle cx="211" cy="61" r="1"></circle>
                                <circle cx="221" cy="61" r="1"></circle>
                                <circle cx="231" cy="61" r="1"></circle>
                                <circle cx="241" cy="61" r="1"></circle>
                                <circle cx="251" cy="61" r="1"></circle>
                                <circle cx="261" cy="61" r="1"></circle>
                                <circle cx="181" cy="71" r="1"></circle>
                                <circle cx="191" cy="71" r="1"></circle>
                                <circle cx="201" cy="71" r="1"></circle>
                                <circle cx="211" cy="71" r="1"></circle>
                                <circle cx="221" cy="71" r="1"></circle>
                                <circle cx="231" cy="71" r="1"></circle>
                                <circle cx="241" cy="71" r="1"></circle>
                                <circle cx="251" cy="71" r="1"></circle>
                                <circle cx="261" cy="71" r="1"></circle>
                                <circle cx="181" cy="81" r="1"></circle>
                                <circle cx="191" cy="81" r="1"></circle>
                                <circle cx="201" cy="81" r="1"></circle>
                                <circle cx="211" cy="81" r="1"></circle>
                                <circle cx="221" cy="81" r="1"></circle>
                                <circle cx="231" cy="81" r="1"></circle>
                                <circle cx="241" cy="81" r="1"></circle>
                                <circle cx="251" cy="81" r="1"></circle>
                                <circle cx="261" cy="81" r="1"></circle>
                                <circle cx="181" cy="91" r="1"></circle>
                                <circle cx="191" cy="91" r="1"></circle>
                                <circle cx="201" cy="91" r="1"></circle>
                                <circle cx="211" cy="91" r="1"></circle>
                                <circle cx="221" cy="91" r="1"></circle>
                                <circle cx="231" cy="91" r="1"></circle>
                                <circle cx="241" cy="91" r="1"></circle>
                                <circle cx="251" cy="91" r="1"></circle>
                                <circle cx="261" cy="91" r="1"></circle>
                                <circle cx="181" cy="101" r="1"></circle>
                                <circle cx="191" cy="101" r="1"></circle>
                                <circle cx="201" cy="101" r="1"></circle>
                                <circle cx="211" cy="101" r="1"></circle>
                                <circle cx="221" cy="101" r="1"></circle>
                                <circle cx="231" cy="101" r="1"></circle>
                                <circle cx="241" cy="101" r="1"></circle>
                                <circle cx="251" cy="101" r="1"></circle>
                                <circle cx="261" cy="101" r="1"></circle>
                                <circle cx="181" cy="111" r="1"></circle>
                                <circle cx="191" cy="111" r="1"></circle>
                                <circle cx="201" cy="111" r="1"></circle>
                                <circle cx="211" cy="111" r="1"></circle>
                                <circle cx="221" cy="111" r="1"></circle>
                                <circle cx="231" cy="111" r="1"></circle>
                                <circle cx="241" cy="111" r="1"></circle>
                                <circle cx="251" cy="111" r="1"></circle>
                                <circle cx="261" cy="111" r="1"></circle>
                                <circle cx="181" cy="121" r="1"></circle>
                                <circle cx="191" cy="121" r="1"></circle>
                                <circle cx="201" cy="121" r="1"></circle>
                                <circle cx="211" cy="121" r="1"></circle>
                                <circle cx="221" cy="121" r="1"></circle>
                                <circle cx="231" cy="121" r="1"></circle>
                                <circle cx="241" cy="121" r="1"></circle>
                                <circle cx="251" cy="121" r="1"></circle>
                                <circle cx="261" cy="121" r="1"></circle>
                                <circle cx="181" cy="131" r="1"></circle>
                                <circle cx="191" cy="131" r="1"></circle>
                                <circle cx="201" cy="131" r="1"></circle>
                                <circle cx="211" cy="131" r="1"></circle>
                                <circle cx="221" cy="131" r="1"></circle>
                                <circle cx="231" cy="131" r="1"></circle>
                                <circle cx="241" cy="131" r="1"></circle>
                                <circle cx="251" cy="131" r="1"></circle>
                                <circle cx="261" cy="131" r="1"></circle>
                            </g>
                        </g>
                    </g>
                </g>
                <g id="dots" transform="translate(870.000000, 0.000000)">
                    <g transform="translate(38.000000, 36.000000) scale(1, -1) rotate(90.000000) translate(-38.000000, -36.000000) translate(2.000000, -2.000000)">
                        <mask id="mask-4" fill="white">
                            <use xlink:href="#path-3"></use>
                        </mask>
                        <g id="Rectangle"></g>
                        <g id="Group-16" mask="url(#mask-4)" fill="#C7D7F1">
                            <g transform="translate(-135.000000, -58.000000)" id="Oval">
                                <circle cx="81" cy="1" r="1"></circle>
                                <circle cx="91" cy="1" r="1"></circle>
                                <circle cx="101" cy="1" r="1"></circle>
                                <circle cx="81" cy="11" r="1"></circle>
                                <circle cx="91" cy="11" r="1"></circle>
                                <circle cx="101" cy="11" r="1"></circle>
                                <circle cx="81" cy="21" r="1"></circle>
                                <circle cx="91" cy="21" r="1"></circle>
                                <circle cx="101" cy="21" r="1"></circle>
                                <circle cx="81" cy="31" r="1"></circle>
                                <circle cx="91" cy="31" r="1"></circle>
                                <circle cx="101" cy="31" r="1"></circle>
                                <circle cx="81" cy="41" r="1"></circle>
                                <circle cx="91" cy="41" r="1"></circle>
                                <circle cx="101" cy="41" r="1"></circle>
                                <circle cx="81" cy="51" r="1"></circle>
                                <circle cx="91" cy="51" r="1"></circle>
                                <circle cx="101" cy="51" r="1"></circle>
                                <circle cx="81" cy="61" r="1"></circle>
                                <circle cx="91" cy="61" r="1"></circle>
                                <circle cx="101" cy="61" r="1"></circle>
                                <circle cx="81" cy="71" r="1"></circle>
                                <circle cx="91" cy="71" r="1"></circle>
                                <circle cx="101" cy="71" r="1"></circle>
                                <circle cx="81" cy="81" r="1"></circle>
                                <circle cx="91" cy="81" r="1"></circle>
                                <circle cx="101" cy="81" r="1"></circle>
                                <circle cx="81" cy="91" r="1"></circle>
                                <circle cx="91" cy="91" r="1"></circle>
                                <circle cx="101" cy="91" r="1"></circle>
                                <circle cx="81" cy="101" r="1"></circle>
                                <circle cx="91" cy="101" r="1"></circle>
                                <circle cx="101" cy="101" r="1"></circle>
                                <circle cx="81" cy="111" r="1"></circle>
                                <circle cx="91" cy="111" r="1"></circle>
                                <circle cx="101" cy="111" r="1"></circle>
                                <circle cx="81" cy="121" r="1"></circle>
                                <circle cx="91" cy="121" r="1"></circle>
                                <circle cx="101" cy="121" r="1"></circle>
                                <circle cx="81" cy="131" r="1"></circle>
                                <circle cx="91" cy="131" r="1"></circle>
                                <circle cx="101" cy="131" r="1"></circle>
                                <circle cx="111" cy="1" r="1"></circle>
                                <circle cx="121" cy="1" r="1"></circle>
                                <circle cx="131" cy="1" r="1"></circle>
                                <circle cx="141" cy="1" r="1"></circle>
                                <circle cx="151" cy="1" r="1"></circle>
                                <circle cx="161" cy="1" r="1"></circle>
                                <circle cx="171" cy="1" r="1"></circle>
                                <circle cx="171" cy="1" r="1"></circle>
                                <circle cx="181" cy="1" r="1"></circle>
                                <circle cx="191" cy="1" r="1"></circle>
                                <circle cx="201" cy="1" r="1"></circle>
                                <circle cx="111" cy="11" r="1"></circle>
                                <circle cx="121" cy="11" r="1"></circle>
                                <circle cx="131" cy="11" r="1"></circle>
                                <circle cx="141" cy="11" r="1"></circle>
                                <circle cx="151" cy="11" r="1"></circle>
                                <circle cx="161" cy="11" r="1"></circle>
                                <circle cx="171" cy="11" r="1"></circle>
                                <circle cx="181" cy="11" r="1"></circle>
                                <circle cx="191" cy="11" r="1"></circle>
                                <circle cx="201" cy="11" r="1"></circle>
                                <circle cx="111" cy="21" r="1"></circle>
                                <circle cx="121" cy="21" r="1"></circle>
                                <circle cx="131" cy="21" r="1"></circle>
                                <circle cx="141" cy="21" r="1"></circle>
                                <circle cx="151" cy="21" r="1"></circle>
                                <circle cx="161" cy="21" r="1"></circle>
                                <circle cx="171" cy="21" r="1"></circle>
                                <circle cx="181" cy="21" r="1"></circle>
                                <circle cx="191" cy="21" r="1"></circle>
                                <circle cx="201" cy="21" r="1"></circle>
                                <circle cx="111" cy="31" r="1"></circle>
                                <circle cx="121" cy="31" r="1"></circle>
                                <circle cx="131" cy="31" r="1"></circle>
                                <circle cx="141" cy="31" r="1"></circle>
                                <circle cx="151" cy="31" r="1"></circle>
                                <circle cx="161" cy="31" r="1"></circle>
                                <circle cx="171" cy="31" r="1"></circle>
                                <circle cx="181" cy="31" r="1"></circle>
                                <circle cx="191" cy="31" r="1"></circle>
                                <circle cx="201" cy="31" r="1"></circle>
                                <circle cx="111" cy="41" r="1"></circle>
                                <circle cx="121" cy="41" r="1"></circle>
                                <circle cx="131" cy="41" r="1"></circle>
                                <circle cx="141" cy="41" r="1"></circle>
                                <circle cx="151" cy="41" r="1"></circle>
                                <circle cx="161" cy="41" r="1"></circle>
                                <circle cx="171" cy="41" r="1"></circle>
                                <circle cx="181" cy="41" r="1"></circle>
                                <circle cx="191" cy="41" r="1"></circle>
                                <circle cx="201" cy="41" r="1"></circle>
                                <circle cx="111" cy="51" r="1"></circle>
                                <circle cx="121" cy="51" r="1"></circle>
                                <circle cx="131" cy="51" r="1"></circle>
                                <circle cx="141" cy="51" r="1"></circle>
                                <circle cx="151" cy="51" r="1"></circle>
                                <circle cx="161" cy="51" r="1"></circle>
                                <circle cx="171" cy="51" r="1"></circle>
                                <circle cx="181" cy="51" r="1"></circle>
                                <circle cx="191" cy="51" r="1"></circle>
                                <circle cx="201" cy="51" r="1"></circle>
                                <circle cx="111" cy="61" r="1"></circle>
                                <circle cx="121" cy="61" r="1"></circle>
                                <circle cx="131" cy="61" r="1"></circle>
                                <circle cx="141" cy="61" r="1"></circle>
                                <circle cx="151" cy="61" r="1"></circle>
                                <circle cx="161" cy="61" r="1"></circle>
                                <circle cx="171" cy="61" r="1"></circle>
                                <circle cx="181" cy="61" r="1"></circle>
                                <circle cx="191" cy="61" r="1"></circle>
                                <circle cx="201" cy="61" r="1"></circle>
                                <circle cx="111" cy="71" r="1"></circle>
                                <circle cx="121" cy="71" r="1"></circle>
                                <circle cx="131" cy="71" r="1"></circle>
                                <circle cx="141" cy="71" r="1"></circle>
                                <circle cx="151" cy="71" r="1"></circle>
                                <circle cx="161" cy="71" r="1"></circle>
                                <circle cx="171" cy="71" r="1"></circle>
                                <circle cx="181" cy="71" r="1"></circle>
                                <circle cx="191" cy="71" r="1"></circle>
                                <circle cx="201" cy="71" r="1"></circle>
                                <circle cx="111" cy="81" r="1"></circle>
                                <circle cx="121" cy="81" r="1"></circle>
                                <circle cx="131" cy="81" r="1"></circle>
                                <circle cx="141" cy="81" r="1"></circle>
                                <circle cx="151" cy="81" r="1"></circle>
                                <circle cx="161" cy="81" r="1"></circle>
                                <circle cx="171" cy="81" r="1"></circle>
                                <circle cx="181" cy="81" r="1"></circle>
                                <circle cx="191" cy="81" r="1"></circle>
                                <circle cx="201" cy="81" r="1"></circle>
                                <circle cx="111" cy="91" r="1"></circle>
                                <circle cx="121" cy="91" r="1"></circle>
                                <circle cx="131" cy="91" r="1"></circle>
                                <circle cx="141" cy="91" r="1"></circle>
                                <circle cx="151" cy="91" r="1"></circle>
                                <circle cx="161" cy="91" r="1"></circle>
                                <circle cx="171" cy="91" r="1"></circle>
                                <circle cx="181" cy="91" r="1"></circle>
                                <circle cx="191" cy="91" r="1"></circle>
                                <circle cx="201" cy="91" r="1"></circle>
                                <circle cx="111" cy="101" r="1"></circle>
                                <circle cx="121" cy="101" r="1"></circle>
                                <circle cx="131" cy="101" r="1"></circle>
                                <circle cx="141" cy="101" r="1"></circle>
                                <circle cx="151" cy="101" r="1"></circle>
                                <circle cx="161" cy="101" r="1"></circle>
                                <circle cx="171" cy="101" r="1"></circle>
                                <circle cx="181" cy="101" r="1"></circle>
                                <circle cx="191" cy="101" r="1"></circle>
                                <circle cx="201" cy="101" r="1"></circle>
                                <circle cx="111" cy="111" r="1"></circle>
                                <circle cx="121" cy="111" r="1"></circle>
                                <circle cx="131" cy="111" r="1"></circle>
                                <circle cx="141" cy="111" r="1"></circle>
                                <circle cx="151" cy="111" r="1"></circle>
                                <circle cx="161" cy="111" r="1"></circle>
                                <circle cx="171" cy="111" r="1"></circle>
                                <circle cx="181" cy="111" r="1"></circle>
                                <circle cx="191" cy="111" r="1"></circle>
                                <circle cx="201" cy="111" r="1"></circle>
                                <circle cx="111" cy="121" r="1"></circle>
                                <circle cx="121" cy="121" r="1"></circle>
                                <circle cx="131" cy="121" r="1"></circle>
                                <circle cx="141" cy="121" r="1"></circle>
                                <circle cx="151" cy="121" r="1"></circle>
                                <circle cx="161" cy="121" r="1"></circle>
                                <circle cx="171" cy="121" r="1"></circle>
                                <circle cx="181" cy="121" r="1"></circle>
                                <circle cx="191" cy="121" r="1"></circle>
                                <circle cx="201" cy="121" r="1"></circle>
                                <circle cx="111" cy="131" r="1"></circle>
                                <circle cx="121" cy="131" r="1"></circle>
                                <circle cx="131" cy="131" r="1"></circle>
                                <circle cx="141" cy="131" r="1"></circle>
                                <circle cx="151" cy="131" r="1"></circle>
                                <circle cx="161" cy="131" r="1"></circle>
                                <circle cx="171" cy="131" r="1"></circle>
                                <circle cx="181" cy="131" r="1"></circle>
                                <circle cx="191" cy="131" r="1"></circle>
                                <circle cx="201" cy="131" r="1"></circle>
                                <circle cx="181" cy="1" r="1"></circle>
                                <circle cx="191" cy="1" r="1"></circle>
                                <circle cx="201" cy="1" r="1"></circle>
                                <circle cx="181" cy="11" r="1"></circle>
                                <circle cx="191" cy="11" r="1"></circle>
                                <circle cx="201" cy="11" r="1"></circle>
                                <circle cx="181" cy="21" r="1"></circle>
                                <circle cx="191" cy="21" r="1"></circle>
                                <circle cx="201" cy="21" r="1"></circle>
                                <circle cx="181" cy="31" r="1"></circle>
                                <circle cx="191" cy="31" r="1"></circle>
                                <circle cx="201" cy="31" r="1"></circle>
                                <circle cx="181" cy="41" r="1"></circle>
                                <circle cx="191" cy="41" r="1"></circle>
                                <circle cx="201" cy="41" r="1"></circle>
                                <circle cx="181" cy="51" r="1"></circle>
                                <circle cx="191" cy="51" r="1"></circle>
                                <circle cx="201" cy="51" r="1"></circle>
                                <circle cx="181" cy="61" r="1"></circle>
                                <circle cx="191" cy="61" r="1"></circle>
                                <circle cx="201" cy="61" r="1"></circle>
                                <circle cx="181" cy="71" r="1"></circle>
                                <circle cx="191" cy="71" r="1"></circle>
                                <circle cx="201" cy="71" r="1"></circle>
                                <circle cx="181" cy="81" r="1"></circle>
                                <circle cx="191" cy="81" r="1"></circle>
                                <circle cx="201" cy="81" r="1"></circle>
                                <circle cx="181" cy="91" r="1"></circle>
                                <circle cx="191" cy="91" r="1"></circle>
                                <circle cx="201" cy="91" r="1"></circle>
                                <circle cx="181" cy="101" r="1"></circle>
                                <circle cx="191" cy="101" r="1"></circle>
                                <circle cx="201" cy="101" r="1"></circle>
                                <circle cx="181" cy="111" r="1"></circle>
                                <circle cx="191" cy="111" r="1"></circle>
                                <circle cx="201" cy="111" r="1"></circle>
                                <circle cx="181" cy="121" r="1"></circle>
                                <circle cx="191" cy="121" r="1"></circle>
                                <circle cx="201" cy="121" r="1"></circle>
                                <circle cx="181" cy="131" r="1"></circle>
                                <circle cx="191" cy="131" r="1"></circle>
                                <circle cx="201" cy="131" r="1"></circle>
                            </g>
                        </g>
                    </g>
                </g>
                <g id="Content" transform="translate(0.000000, 24.000000)"></g>
            </g>
        </g>
    </g>
</svg>