<svg xmlns="http://www.w3.org/2000/svg" width="17" height="17" viewBox="0 0 17 17"><g><g><g><path fill="#1a5dc6" d="M13.989 5.124a1.495 1.495 0 0 1-2.113 0 1.495 1.495 0 0 1 0-2.113 1.495 1.495 0 0 1 2.113 0c.583.583.583 1.53 0 2.113zm1.409-3.522a5.485 5.485 0 0 0-7.748 0 5.477 5.477 0 0 0-1.334 5.56l-6.17 6.17a.498.498 0 0 0-.146.352v2.818c0 .275.223.498.498.498h2.818a.498.498 0 0 0 .352-.146l.704-.705a.498.498 0 0 0 .143-.41l-.088-.756 1.049-.099a.497.497 0 0 0 .449-.449l.098-1.048.757.088a.5.5 0 0 0 .555-.495v-.927h.911a.498.498 0 0 0 .352-.146l1.277-1.26c1.95.632 4.064.163 5.523-1.297a5.485 5.485 0 0 0 0-7.748z"/></g></g></g></svg>