<?xml version="1.0" encoding="UTF-8"?>
<svg width="199px" height="145px" viewBox="0 0 199 145" version="1.1" xmlns="http://www.w3.org/2000/svg" xmlns:xlink="http://www.w3.org/1999/xlink">
    <!-- Generator: Sketch 59 (86127) - https://sketch.com -->
    <title>dots</title>
    <desc>Created with Sketch.</desc>
    <defs>
        <rect id="path-1" x="0.5" y="0" width="175" height="132"></rect>
    </defs>
    <g id="Page-1" stroke="none" stroke-width="1" fill="none" fill-rule="evenodd">
        <g id="What-is-Rentorr---Main-Page" transform="translate(-851.000000, -3721.000000)">
            <g id="dots" transform="translate(851.000000, 3721.000000)">
                <g transform="translate(100.000000, 70.000000) scale(-1, 1) translate(-100.000000, -70.000000) translate(12.000000, 4.000000)">
                    <mask id="mask-2" fill="white">
                        <use xlink:href="#path-1"></use>
                    </mask>
                    <g id="Rectangle"></g>
                    <g id="Group-16" mask="url(#mask-2)" fill="#C7D7F1">
                        <g transform="translate(-28.000000, 8.000000)" id="Oval">
                            <circle cx="21" cy="1" r="1"></circle>
                            <circle cx="31" cy="1" r="1"></circle>
                            <circle cx="41" cy="1" r="1"></circle>
                            <circle cx="51" cy="1" r="1"></circle>
                            <circle cx="61" cy="1" r="1"></circle>
                            <circle cx="61" cy="1" r="1"></circle>
                            <circle cx="71" cy="1" r="1"></circle>
                            <circle cx="81" cy="1" r="1"></circle>
                            <circle cx="91" cy="1" r="1"></circle>
                            <circle cx="101" cy="1" r="1"></circle>
                            <circle cx="21" cy="11" r="1"></circle>
                            <circle cx="31" cy="11" r="1"></circle>
                            <circle cx="41" cy="11" r="1"></circle>
                            <circle cx="51" cy="11" r="1"></circle>
                            <circle cx="61" cy="11" r="1"></circle>
                            <circle cx="71" cy="11" r="1"></circle>
                            <circle cx="81" cy="11" r="1"></circle>
                            <circle cx="91" cy="11" r="1"></circle>
                            <circle cx="101" cy="11" r="1"></circle>
                            <circle cx="21" cy="21" r="1"></circle>
                            <circle cx="31" cy="21" r="1"></circle>
                            <circle cx="41" cy="21" r="1"></circle>
                            <circle cx="51" cy="21" r="1"></circle>
                            <circle cx="61" cy="21" r="1"></circle>
                            <circle cx="71" cy="21" r="1"></circle>
                            <circle cx="81" cy="21" r="1"></circle>
                            <circle cx="91" cy="21" r="1"></circle>
                            <circle cx="101" cy="21" r="1"></circle>
                            <circle cx="21" cy="31" r="1"></circle>
                            <circle cx="31" cy="31" r="1"></circle>
                            <circle cx="41" cy="31" r="1"></circle>
                            <circle cx="51" cy="31" r="1"></circle>
                            <circle cx="61" cy="31" r="1"></circle>
                            <circle cx="71" cy="31" r="1"></circle>
                            <circle cx="81" cy="31" r="1"></circle>
                            <circle cx="91" cy="31" r="1"></circle>
                            <circle cx="101" cy="31" r="1"></circle>
                            <circle cx="21" cy="41" r="1"></circle>
                            <circle cx="31" cy="41" r="1"></circle>
                            <circle cx="41" cy="41" r="1"></circle>
                            <circle cx="51" cy="41" r="1"></circle>
                            <circle cx="61" cy="41" r="1"></circle>
                            <circle cx="71" cy="41" r="1"></circle>
                            <circle cx="81" cy="41" r="1"></circle>
                            <circle cx="91" cy="41" r="1"></circle>
                            <circle cx="101" cy="41" r="1"></circle>
                            <circle cx="21" cy="51" r="1"></circle>
                            <circle cx="31" cy="51" r="1"></circle>
                            <circle cx="41" cy="51" r="1"></circle>
                            <circle cx="51" cy="51" r="1"></circle>
                            <circle cx="61" cy="51" r="1"></circle>
                            <circle cx="71" cy="51" r="1"></circle>
                            <circle cx="81" cy="51" r="1"></circle>
                            <circle cx="91" cy="51" r="1"></circle>
                            <circle cx="101" cy="51" r="1"></circle>
                            <circle cx="21" cy="61" r="1"></circle>
                            <circle cx="31" cy="61" r="1"></circle>
                            <circle cx="41" cy="61" r="1"></circle>
                            <circle cx="51" cy="61" r="1"></circle>
                            <circle cx="61" cy="61" r="1"></circle>
                            <circle cx="71" cy="61" r="1"></circle>
                            <circle cx="81" cy="61" r="1"></circle>
                            <circle cx="91" cy="61" r="1"></circle>
                            <circle cx="101" cy="61" r="1"></circle>
                            <circle cx="21" cy="71" r="1"></circle>
                            <circle cx="31" cy="71" r="1"></circle>
                            <circle cx="41" cy="71" r="1"></circle>
                            <circle cx="51" cy="71" r="1"></circle>
                            <circle cx="61" cy="71" r="1"></circle>
                            <circle cx="71" cy="71" r="1"></circle>
                            <circle cx="81" cy="71" r="1"></circle>
                            <circle cx="91" cy="71" r="1"></circle>
                            <circle cx="101" cy="71" r="1"></circle>
                            <circle cx="21" cy="81" r="1"></circle>
                            <circle cx="31" cy="81" r="1"></circle>
                            <circle cx="41" cy="81" r="1"></circle>
                            <circle cx="51" cy="81" r="1"></circle>
                            <circle cx="61" cy="81" r="1"></circle>
                            <circle cx="71" cy="81" r="1"></circle>
                            <circle cx="81" cy="81" r="1"></circle>
                            <circle cx="91" cy="81" r="1"></circle>
                            <circle cx="101" cy="81" r="1"></circle>
                            <circle cx="21" cy="91" r="1"></circle>
                            <circle cx="31" cy="91" r="1"></circle>
                            <circle cx="41" cy="91" r="1"></circle>
                            <circle cx="51" cy="91" r="1"></circle>
                            <circle cx="61" cy="91" r="1"></circle>
                            <circle cx="71" cy="91" r="1"></circle>
                            <circle cx="81" cy="91" r="1"></circle>
                            <circle cx="91" cy="91" r="1"></circle>
                            <circle cx="101" cy="91" r="1"></circle>
                            <circle cx="21" cy="101" r="1"></circle>
                            <circle cx="31" cy="101" r="1"></circle>
                            <circle cx="41" cy="101" r="1"></circle>
                            <circle cx="51" cy="101" r="1"></circle>
                            <circle cx="61" cy="101" r="1"></circle>
                            <circle cx="71" cy="101" r="1"></circle>
                            <circle cx="81" cy="101" r="1"></circle>
                            <circle cx="91" cy="101" r="1"></circle>
                            <circle cx="101" cy="101" r="1"></circle>
                            <circle cx="21" cy="111" r="1"></circle>
                            <circle cx="31" cy="111" r="1"></circle>
                            <circle cx="41" cy="111" r="1"></circle>
                            <circle cx="51" cy="111" r="1"></circle>
                            <circle cx="61" cy="111" r="1"></circle>
                            <circle cx="71" cy="111" r="1"></circle>
                            <circle cx="81" cy="111" r="1"></circle>
                            <circle cx="91" cy="111" r="1"></circle>
                            <circle cx="101" cy="111" r="1"></circle>
                            <circle cx="21" cy="121" r="1"></circle>
                            <circle cx="31" cy="121" r="1"></circle>
                            <circle cx="41" cy="121" r="1"></circle>
                            <circle cx="51" cy="121" r="1"></circle>
                            <circle cx="61" cy="121" r="1"></circle>
                            <circle cx="71" cy="121" r="1"></circle>
                            <circle cx="81" cy="121" r="1"></circle>
                            <circle cx="91" cy="121" r="1"></circle>
                            <circle cx="101" cy="121" r="1"></circle>
                            <circle cx="21" cy="131" r="1"></circle>
                            <circle cx="31" cy="131" r="1"></circle>
                            <circle cx="41" cy="131" r="1"></circle>
                            <circle cx="51" cy="131" r="1"></circle>
                            <circle cx="61" cy="131" r="1"></circle>
                            <circle cx="71" cy="131" r="1"></circle>
                            <circle cx="81" cy="131" r="1"></circle>
                            <circle cx="91" cy="131" r="1"></circle>
                            <circle cx="101" cy="131" r="1"></circle>
                            <circle cx="111" cy="1" r="1"></circle>
                            <circle cx="121" cy="1" r="1"></circle>
                            <circle cx="131" cy="1" r="1"></circle>
                            <circle cx="141" cy="1" r="1"></circle>
                            <circle cx="151" cy="1" r="1"></circle>
                            <circle cx="161" cy="1" r="1"></circle>
                            <circle cx="171" cy="1" r="1"></circle>
                            <circle cx="171" cy="1" r="1"></circle>
                            <circle cx="181" cy="1" r="1"></circle>
                            <circle cx="191" cy="1" r="1"></circle>
                            <circle cx="201" cy="1" r="1"></circle>
                            <circle cx="211" cy="1" r="1"></circle>
                            <circle cx="111" cy="11" r="1"></circle>
                            <circle cx="121" cy="11" r="1"></circle>
                            <circle cx="131" cy="11" r="1"></circle>
                            <circle cx="141" cy="11" r="1"></circle>
                            <circle cx="151" cy="11" r="1"></circle>
                            <circle cx="161" cy="11" r="1"></circle>
                            <circle cx="171" cy="11" r="1"></circle>
                            <circle cx="181" cy="11" r="1"></circle>
                            <circle cx="191" cy="11" r="1"></circle>
                            <circle cx="201" cy="11" r="1"></circle>
                            <circle cx="211" cy="11" r="1"></circle>
                            <circle cx="111" cy="21" r="1"></circle>
                            <circle cx="121" cy="21" r="1"></circle>
                            <circle cx="131" cy="21" r="1"></circle>
                            <circle cx="141" cy="21" r="1"></circle>
                            <circle cx="151" cy="21" r="1"></circle>
                            <circle cx="161" cy="21" r="1"></circle>
                            <circle cx="171" cy="21" r="1"></circle>
                            <circle cx="181" cy="21" r="1"></circle>
                            <circle cx="191" cy="21" r="1"></circle>
                            <circle cx="201" cy="21" r="1"></circle>
                            <circle cx="211" cy="21" r="1"></circle>
                            <circle cx="111" cy="31" r="1"></circle>
                            <circle cx="121" cy="31" r="1"></circle>
                            <circle cx="131" cy="31" r="1"></circle>
                            <circle cx="141" cy="31" r="1"></circle>
                            <circle cx="151" cy="31" r="1"></circle>
                            <circle cx="161" cy="31" r="1"></circle>
                            <circle cx="171" cy="31" r="1"></circle>
                            <circle cx="181" cy="31" r="1"></circle>
                            <circle cx="191" cy="31" r="1"></circle>
                            <circle cx="201" cy="31" r="1"></circle>
                            <circle cx="211" cy="31" r="1"></circle>
                            <circle cx="111" cy="41" r="1"></circle>
                            <circle cx="121" cy="41" r="1"></circle>
                            <circle cx="131" cy="41" r="1"></circle>
                            <circle cx="141" cy="41" r="1"></circle>
                            <circle cx="151" cy="41" r="1"></circle>
                            <circle cx="161" cy="41" r="1"></circle>
                            <circle cx="171" cy="41" r="1"></circle>
                            <circle cx="181" cy="41" r="1"></circle>
                            <circle cx="191" cy="41" r="1"></circle>
                            <circle cx="201" cy="41" r="1"></circle>
                            <circle cx="211" cy="41" r="1"></circle>
                            <circle cx="111" cy="51" r="1"></circle>
                            <circle cx="121" cy="51" r="1"></circle>
                            <circle cx="131" cy="51" r="1"></circle>
                            <circle cx="141" cy="51" r="1"></circle>
                            <circle cx="151" cy="51" r="1"></circle>
                            <circle cx="161" cy="51" r="1"></circle>
                            <circle cx="171" cy="51" r="1"></circle>
                            <circle cx="181" cy="51" r="1"></circle>
                            <circle cx="191" cy="51" r="1"></circle>
                            <circle cx="201" cy="51" r="1"></circle>
                            <circle cx="211" cy="51" r="1"></circle>
                            <circle cx="111" cy="61" r="1"></circle>
                            <circle cx="121" cy="61" r="1"></circle>
                            <circle cx="131" cy="61" r="1"></circle>
                            <circle cx="141" cy="61" r="1"></circle>
                            <circle cx="151" cy="61" r="1"></circle>
                            <circle cx="161" cy="61" r="1"></circle>
                            <circle cx="171" cy="61" r="1"></circle>
                            <circle cx="181" cy="61" r="1"></circle>
                            <circle cx="191" cy="61" r="1"></circle>
                            <circle cx="201" cy="61" r="1"></circle>
                            <circle cx="211" cy="61" r="1"></circle>
                            <circle cx="111" cy="71" r="1"></circle>
                            <circle cx="121" cy="71" r="1"></circle>
                            <circle cx="131" cy="71" r="1"></circle>
                            <circle cx="141" cy="71" r="1"></circle>
                            <circle cx="151" cy="71" r="1"></circle>
                            <circle cx="161" cy="71" r="1"></circle>
                            <circle cx="171" cy="71" r="1"></circle>
                            <circle cx="181" cy="71" r="1"></circle>
                            <circle cx="191" cy="71" r="1"></circle>
                            <circle cx="201" cy="71" r="1"></circle>
                            <circle cx="211" cy="71" r="1"></circle>
                            <circle cx="111" cy="81" r="1"></circle>
                            <circle cx="121" cy="81" r="1"></circle>
                            <circle cx="131" cy="81" r="1"></circle>
                            <circle cx="141" cy="81" r="1"></circle>
                            <circle cx="151" cy="81" r="1"></circle>
                            <circle cx="161" cy="81" r="1"></circle>
                            <circle cx="171" cy="81" r="1"></circle>
                            <circle cx="181" cy="81" r="1"></circle>
                            <circle cx="191" cy="81" r="1"></circle>
                            <circle cx="201" cy="81" r="1"></circle>
                            <circle cx="211" cy="81" r="1"></circle>
                            <circle cx="111" cy="91" r="1"></circle>
                            <circle cx="121" cy="91" r="1"></circle>
                            <circle cx="131" cy="91" r="1"></circle>
                            <circle cx="141" cy="91" r="1"></circle>
                            <circle cx="151" cy="91" r="1"></circle>
                            <circle cx="161" cy="91" r="1"></circle>
                            <circle cx="171" cy="91" r="1"></circle>
                            <circle cx="181" cy="91" r="1"></circle>
                            <circle cx="191" cy="91" r="1"></circle>
                            <circle cx="201" cy="91" r="1"></circle>
                            <circle cx="211" cy="91" r="1"></circle>
                            <circle cx="111" cy="101" r="1"></circle>
                            <circle cx="121" cy="101" r="1"></circle>
                            <circle cx="131" cy="101" r="1"></circle>
                            <circle cx="141" cy="101" r="1"></circle>
                            <circle cx="151" cy="101" r="1"></circle>
                            <circle cx="161" cy="101" r="1"></circle>
                            <circle cx="171" cy="101" r="1"></circle>
                            <circle cx="181" cy="101" r="1"></circle>
                            <circle cx="191" cy="101" r="1"></circle>
                            <circle cx="201" cy="101" r="1"></circle>
                            <circle cx="211" cy="101" r="1"></circle>
                            <circle cx="111" cy="111" r="1"></circle>
                            <circle cx="121" cy="111" r="1"></circle>
                            <circle cx="131" cy="111" r="1"></circle>
                            <circle cx="141" cy="111" r="1"></circle>
                            <circle cx="151" cy="111" r="1"></circle>
                            <circle cx="161" cy="111" r="1"></circle>
                            <circle cx="171" cy="111" r="1"></circle>
                            <circle cx="181" cy="111" r="1"></circle>
                            <circle cx="191" cy="111" r="1"></circle>
                            <circle cx="201" cy="111" r="1"></circle>
                            <circle cx="211" cy="111" r="1"></circle>
                            <circle cx="111" cy="121" r="1"></circle>
                            <circle cx="121" cy="121" r="1"></circle>
                            <circle cx="131" cy="121" r="1"></circle>
                            <circle cx="141" cy="121" r="1"></circle>
                            <circle cx="151" cy="121" r="1"></circle>
                            <circle cx="161" cy="121" r="1"></circle>
                            <circle cx="171" cy="121" r="1"></circle>
                            <circle cx="181" cy="121" r="1"></circle>
                            <circle cx="191" cy="121" r="1"></circle>
                            <circle cx="201" cy="121" r="1"></circle>
                            <circle cx="211" cy="121" r="1"></circle>
                            <circle cx="111" cy="131" r="1"></circle>
                            <circle cx="121" cy="131" r="1"></circle>
                            <circle cx="131" cy="131" r="1"></circle>
                            <circle cx="141" cy="131" r="1"></circle>
                            <circle cx="151" cy="131" r="1"></circle>
                            <circle cx="161" cy="131" r="1"></circle>
                            <circle cx="171" cy="131" r="1"></circle>
                            <circle cx="181" cy="131" r="1"></circle>
                            <circle cx="191" cy="131" r="1"></circle>
                            <circle cx="201" cy="131" r="1"></circle>
                            <circle cx="211" cy="131" r="1"></circle>
                            <circle cx="181" cy="1" r="1"></circle>
                            <circle cx="191" cy="1" r="1"></circle>
                            <circle cx="201" cy="1" r="1"></circle>
                            <circle cx="211" cy="1" r="1"></circle>
                            <circle cx="181" cy="11" r="1"></circle>
                            <circle cx="191" cy="11" r="1"></circle>
                            <circle cx="201" cy="11" r="1"></circle>
                            <circle cx="211" cy="11" r="1"></circle>
                            <circle cx="181" cy="21" r="1"></circle>
                            <circle cx="191" cy="21" r="1"></circle>
                            <circle cx="201" cy="21" r="1"></circle>
                            <circle cx="211" cy="21" r="1"></circle>
                            <circle cx="181" cy="31" r="1"></circle>
                            <circle cx="191" cy="31" r="1"></circle>
                            <circle cx="201" cy="31" r="1"></circle>
                            <circle cx="211" cy="31" r="1"></circle>
                            <circle cx="181" cy="41" r="1"></circle>
                            <circle cx="191" cy="41" r="1"></circle>
                            <circle cx="201" cy="41" r="1"></circle>
                            <circle cx="211" cy="41" r="1"></circle>
                            <circle cx="181" cy="51" r="1"></circle>
                            <circle cx="191" cy="51" r="1"></circle>
                            <circle cx="201" cy="51" r="1"></circle>
                            <circle cx="211" cy="51" r="1"></circle>
                            <circle cx="181" cy="61" r="1"></circle>
                            <circle cx="191" cy="61" r="1"></circle>
                            <circle cx="201" cy="61" r="1"></circle>
                            <circle cx="211" cy="61" r="1"></circle>
                            <circle cx="181" cy="71" r="1"></circle>
                            <circle cx="191" cy="71" r="1"></circle>
                            <circle cx="201" cy="71" r="1"></circle>
                            <circle cx="211" cy="71" r="1"></circle>
                            <circle cx="181" cy="81" r="1"></circle>
                            <circle cx="191" cy="81" r="1"></circle>
                            <circle cx="201" cy="81" r="1"></circle>
                            <circle cx="211" cy="81" r="1"></circle>
                            <circle cx="181" cy="91" r="1"></circle>
                            <circle cx="191" cy="91" r="1"></circle>
                            <circle cx="201" cy="91" r="1"></circle>
                            <circle cx="211" cy="91" r="1"></circle>
                            <circle cx="181" cy="101" r="1"></circle>
                            <circle cx="191" cy="101" r="1"></circle>
                            <circle cx="201" cy="101" r="1"></circle>
                            <circle cx="211" cy="101" r="1"></circle>
                            <circle cx="181" cy="111" r="1"></circle>
                            <circle cx="191" cy="111" r="1"></circle>
                            <circle cx="201" cy="111" r="1"></circle>
                            <circle cx="211" cy="111" r="1"></circle>
                            <circle cx="181" cy="121" r="1"></circle>
                            <circle cx="191" cy="121" r="1"></circle>
                            <circle cx="201" cy="121" r="1"></circle>
                            <circle cx="211" cy="121" r="1"></circle>
                            <circle cx="181" cy="131" r="1"></circle>
                            <circle cx="191" cy="131" r="1"></circle>
                            <circle cx="201" cy="131" r="1"></circle>
                            <circle cx="211" cy="131" r="1"></circle>
                        </g>
                    </g>
                </g>
            </g>
        </g>
    </g>
</svg>