<svg xmlns="http://www.w3.org/2000/svg" width="232" height="162" viewBox="0 0 232 162"><defs><clipPath id="7w08a"><path d="M32.5-39.5h172v242h-172z"/></clipPath></defs><g><g transform="matrix(0 -1 -1 0 161 161)"><g/><g clip-path="url(#7w08a)"><g><path fill="#c7d7f1" d="M-1-30a1 1 0 1 0 0-2 1 1 0 0 0 0 2z"/></g><g><path fill="#c7d7f1" d="M9-30a1 1 0 1 0 0-2 1 1 0 0 0 0 2z"/></g><g><path fill="#c7d7f1" d="M19-30a1 1 0 1 0 0-2 1 1 0 0 0 0 2z"/></g><g><path fill="#c7d7f1" d="M29-30a1 1 0 1 0 0-2 1 1 0 0 0 0 2z"/></g><g><path fill="#c7d7f1" d="M39-30a1 1 0 1 0 0-2 1 1 0 0 0 0 2z"/></g><g><path fill="#c7d7f1" d="M49-30a1 1 0 1 0 0-2 1 1 0 0 0 0 2z"/></g><g><path fill="#c7d7f1" d="M59-30a1 1 0 1 0 0-2 1 1 0 0 0 0 2z"/></g><g><path fill="#c7d7f1" d="M59-30a1 1 0 1 0 0-2 1 1 0 0 0 0 2z"/></g><g><path fill="#c7d7f1" d="M69-30a1 1 0 1 0 0-2 1 1 0 0 0 0 2z"/></g><g><path fill="#c7d7f1" d="M79-30a1 1 0 1 0 0-2 1 1 0 0 0 0 2z"/></g><g><path fill="#c7d7f1" d="M89-30a1 1 0 1 0 0-2 1 1 0 0 0 0 2z"/></g><g><path fill="#c7d7f1" d="M99-30a1 1 0 1 0 0-2 1 1 0 0 0 0 2z"/></g><g><path fill="#c7d7f1" d="M-1-20a1 1 0 1 0 0-2 1 1 0 0 0 0 2z"/></g><g><path fill="#c7d7f1" d="M9-20a1 1 0 1 0 0-2 1 1 0 0 0 0 2z"/></g><g><path fill="#c7d7f1" d="M19-20a1 1 0 1 0 0-2 1 1 0 0 0 0 2z"/></g><g><path fill="#c7d7f1" d="M29-20a1 1 0 1 0 0-2 1 1 0 0 0 0 2z"/></g><g><path fill="#c7d7f1" d="M39-20a1 1 0 1 0 0-2 1 1 0 0 0 0 2z"/></g><g><path fill="#c7d7f1" d="M49-20a1 1 0 1 0 0-2 1 1 0 0 0 0 2z"/></g><g><path fill="#c7d7f1" d="M59-20a1 1 0 1 0 0-2 1 1 0 0 0 0 2z"/></g><g><path fill="#c7d7f1" d="M69-20a1 1 0 1 0 0-2 1 1 0 0 0 0 2z"/></g><g><path fill="#c7d7f1" d="M79-20a1 1 0 1 0 0-2 1 1 0 0 0 0 2z"/></g><g><path fill="#c7d7f1" d="M89-20a1 1 0 1 0 0-2 1 1 0 0 0 0 2z"/></g><g><path fill="#c7d7f1" d="M99-20a1 1 0 1 0 0-2 1 1 0 0 0 0 2z"/></g><g><path fill="#c7d7f1" d="M-1-10a1 1 0 1 0 0-2 1 1 0 0 0 0 2z"/></g><g><path fill="#c7d7f1" d="M9-10a1 1 0 1 0 0-2 1 1 0 0 0 0 2z"/></g><g><path fill="#c7d7f1" d="M19-10a1 1 0 1 0 0-2 1 1 0 0 0 0 2z"/></g><g><path fill="#c7d7f1" d="M29-10a1 1 0 1 0 0-2 1 1 0 0 0 0 2z"/></g><g><path fill="#c7d7f1" d="M39-10a1 1 0 1 0 0-2 1 1 0 0 0 0 2z"/></g><g><path fill="#c7d7f1" d="M49-10a1 1 0 1 0 0-2 1 1 0 0 0 0 2z"/></g><g><path fill="#c7d7f1" d="M59-10a1 1 0 1 0 0-2 1 1 0 0 0 0 2z"/></g><g><path fill="#c7d7f1" d="M69-10a1 1 0 1 0 0-2 1 1 0 0 0 0 2z"/></g><g><path fill="#c7d7f1" d="M79-10a1 1 0 1 0 0-2 1 1 0 0 0 0 2z"/></g><g><path fill="#c7d7f1" d="M89-10a1 1 0 1 0 0-2 1 1 0 0 0 0 2z"/></g><g><path fill="#c7d7f1" d="M99-10a1 1 0 1 0 0-2 1 1 0 0 0 0 2z"/></g><g><path fill="#c7d7f1" d="M-1 0a1 1 0 1 0 0-2 1 1 0 0 0 0 2z"/></g><g><path fill="#c7d7f1" d="M9 0a1 1 0 1 0 0-2 1 1 0 0 0 0 2z"/></g><g><path fill="#c7d7f1" d="M19 0a1 1 0 1 0 0-2 1 1 0 0 0 0 2z"/></g><g><path fill="#c7d7f1" d="M29 0a1 1 0 1 0 0-2 1 1 0 0 0 0 2z"/></g><g><path fill="#c7d7f1" d="M39 0a1 1 0 1 0 0-2 1 1 0 0 0 0 2z"/></g><g><path fill="#c7d7f1" d="M49 0a1 1 0 1 0 0-2 1 1 0 0 0 0 2z"/></g><g><path fill="#c7d7f1" d="M59 0a1 1 0 1 0 0-2 1 1 0 0 0 0 2z"/></g><g><path fill="#c7d7f1" d="M69 0a1 1 0 1 0 0-2 1 1 0 0 0 0 2z"/></g><g><path fill="#c7d7f1" d="M79 0a1 1 0 1 0 0-2 1 1 0 0 0 0 2z"/></g><g><path fill="#c7d7f1" d="M89 0a1 1 0 1 0 0-2 1 1 0 0 0 0 2z"/></g><g><path fill="#c7d7f1" d="M99 0a1 1 0 1 0 0-2 1 1 0 0 0 0 2z"/></g><g><path fill="#c7d7f1" d="M-1 10a1 1 0 1 0 0-2 1 1 0 0 0 0 2z"/></g><g><path fill="#c7d7f1" d="M9 10a1 1 0 1 0 0-2 1 1 0 0 0 0 2z"/></g><g><path fill="#c7d7f1" d="M19 10a1 1 0 1 0 0-2 1 1 0 0 0 0 2z"/></g><g><path fill="#c7d7f1" d="M29 10a1 1 0 1 0 0-2 1 1 0 0 0 0 2z"/></g><g><path fill="#c7d7f1" d="M39 10a1 1 0 1 0 0-2 1 1 0 0 0 0 2z"/></g><g><path fill="#c7d7f1" d="M49 10a1 1 0 1 0 0-2 1 1 0 0 0 0 2z"/></g><g><path fill="#c7d7f1" d="M59 10a1 1 0 1 0 0-2 1 1 0 0 0 0 2z"/></g><g><path fill="#c7d7f1" d="M69 10a1 1 0 1 0 0-2 1 1 0 0 0 0 2z"/></g><g><path fill="#c7d7f1" d="M79 10a1 1 0 1 0 0-2 1 1 0 0 0 0 2z"/></g><g><path fill="#c7d7f1" d="M89 10a1 1 0 1 0 0-2 1 1 0 0 0 0 2z"/></g><g><path fill="#c7d7f1" d="M99 10a1 1 0 1 0 0-2 1 1 0 0 0 0 2z"/></g><g><path fill="#c7d7f1" d="M-1 20a1 1 0 1 0 0-2 1 1 0 0 0 0 2z"/></g><g><path fill="#c7d7f1" d="M9 20a1 1 0 1 0 0-2 1 1 0 0 0 0 2z"/></g><g><path fill="#c7d7f1" d="M19 20a1 1 0 1 0 0-2 1 1 0 0 0 0 2z"/></g><g><path fill="#c7d7f1" d="M29 20a1 1 0 1 0 0-2 1 1 0 0 0 0 2z"/></g><g><path fill="#c7d7f1" d="M39 20a1 1 0 1 0 0-2 1 1 0 0 0 0 2z"/></g><g><path fill="#c7d7f1" d="M49 20a1 1 0 1 0 0-2 1 1 0 0 0 0 2z"/></g><g><path fill="#c7d7f1" d="M59 20a1 1 0 1 0 0-2 1 1 0 0 0 0 2z"/></g><g><path fill="#c7d7f1" d="M69 20a1 1 0 1 0 0-2 1 1 0 0 0 0 2z"/></g><g><path fill="#c7d7f1" d="M79 20a1 1 0 1 0 0-2 1 1 0 0 0 0 2z"/></g><g><path fill="#c7d7f1" d="M89 20a1 1 0 1 0 0-2 1 1 0 0 0 0 2z"/></g><g><path fill="#c7d7f1" d="M99 20a1 1 0 1 0 0-2 1 1 0 0 0 0 2z"/></g><g><path fill="#c7d7f1" d="M-1 30a1 1 0 1 0 0-2 1 1 0 0 0 0 2z"/></g><g><path fill="#c7d7f1" d="M9 30a1 1 0 1 0 0-2 1 1 0 0 0 0 2z"/></g><g><path fill="#c7d7f1" d="M19 30a1 1 0 1 0 0-2 1 1 0 0 0 0 2z"/></g><g><path fill="#c7d7f1" d="M29 30a1 1 0 1 0 0-2 1 1 0 0 0 0 2z"/></g><g><path fill="#c7d7f1" d="M39 30a1 1 0 1 0 0-2 1 1 0 0 0 0 2z"/></g><g><path fill="#c7d7f1" d="M49 30a1 1 0 1 0 0-2 1 1 0 0 0 0 2z"/></g><g><path fill="#c7d7f1" d="M59 30a1 1 0 1 0 0-2 1 1 0 0 0 0 2z"/></g><g><path fill="#c7d7f1" d="M69 30a1 1 0 1 0 0-2 1 1 0 0 0 0 2z"/></g><g><path fill="#c7d7f1" d="M79 30a1 1 0 1 0 0-2 1 1 0 0 0 0 2z"/></g><g><path fill="#c7d7f1" d="M89 30a1 1 0 1 0 0-2 1 1 0 0 0 0 2z"/></g><g><path fill="#c7d7f1" d="M99 30a1 1 0 1 0 0-2 1 1 0 0 0 0 2z"/></g><g><path fill="#c7d7f1" d="M-1 40a1 1 0 1 0 0-2 1 1 0 0 0 0 2z"/></g><g><path fill="#c7d7f1" d="M9 40a1 1 0 1 0 0-2 1 1 0 0 0 0 2z"/></g><g><path fill="#c7d7f1" d="M19 40a1 1 0 1 0 0-2 1 1 0 0 0 0 2z"/></g><g><path fill="#c7d7f1" d="M29 40a1 1 0 1 0 0-2 1 1 0 0 0 0 2z"/></g><g><path fill="#c7d7f1" d="M39 40a1 1 0 1 0 0-2 1 1 0 0 0 0 2z"/></g><g><path fill="#c7d7f1" d="M49 40a1 1 0 1 0 0-2 1 1 0 0 0 0 2z"/></g><g><path fill="#c7d7f1" d="M59 40a1 1 0 1 0 0-2 1 1 0 0 0 0 2z"/></g><g><path fill="#c7d7f1" d="M69 40a1 1 0 1 0 0-2 1 1 0 0 0 0 2z"/></g><g><path fill="#c7d7f1" d="M79 40a1 1 0 1 0 0-2 1 1 0 0 0 0 2z"/></g><g><path fill="#c7d7f1" d="M89 40a1 1 0 1 0 0-2 1 1 0 0 0 0 2z"/></g><g><path fill="#c7d7f1" d="M99 40a1 1 0 1 0 0-2 1 1 0 0 0 0 2z"/></g><g><path fill="#c7d7f1" d="M-1 50a1 1 0 1 0 0-2 1 1 0 0 0 0 2z"/></g><g><path fill="#c7d7f1" d="M9 50a1 1 0 1 0 0-2 1 1 0 0 0 0 2z"/></g><g><path fill="#c7d7f1" d="M19 50a1 1 0 1 0 0-2 1 1 0 0 0 0 2z"/></g><g><path fill="#c7d7f1" d="M29 50a1 1 0 1 0 0-2 1 1 0 0 0 0 2z"/></g><g><path fill="#c7d7f1" d="M39 50a1 1 0 1 0 0-2 1 1 0 0 0 0 2z"/></g><g><path fill="#c7d7f1" d="M49 50a1 1 0 1 0 0-2 1 1 0 0 0 0 2z"/></g><g><path fill="#c7d7f1" d="M59 50a1 1 0 1 0 0-2 1 1 0 0 0 0 2z"/></g><g><path fill="#c7d7f1" d="M69 50a1 1 0 1 0 0-2 1 1 0 0 0 0 2z"/></g><g><path fill="#c7d7f1" d="M79 50a1 1 0 1 0 0-2 1 1 0 0 0 0 2z"/></g><g><path fill="#c7d7f1" d="M89 50a1 1 0 1 0 0-2 1 1 0 0 0 0 2z"/></g><g><path fill="#c7d7f1" d="M99 50a1 1 0 1 0 0-2 1 1 0 0 0 0 2z"/></g><g><path fill="#c7d7f1" d="M-1 60a1 1 0 1 0 0-2 1 1 0 0 0 0 2z"/></g><g><path fill="#c7d7f1" d="M9 60a1 1 0 1 0 0-2 1 1 0 0 0 0 2z"/></g><g><path fill="#c7d7f1" d="M19 60a1 1 0 1 0 0-2 1 1 0 0 0 0 2z"/></g><g><path fill="#c7d7f1" d="M29 60a1 1 0 1 0 0-2 1 1 0 0 0 0 2z"/></g><g><path fill="#c7d7f1" d="M39 60a1 1 0 1 0 0-2 1 1 0 0 0 0 2z"/></g><g><path fill="#c7d7f1" d="M49 60a1 1 0 1 0 0-2 1 1 0 0 0 0 2z"/></g><g><path fill="#c7d7f1" d="M59 60a1 1 0 1 0 0-2 1 1 0 0 0 0 2z"/></g><g><path fill="#c7d7f1" d="M69 60a1 1 0 1 0 0-2 1 1 0 0 0 0 2z"/></g><g><path fill="#c7d7f1" d="M79 60a1 1 0 1 0 0-2 1 1 0 0 0 0 2z"/></g><g><path fill="#c7d7f1" d="M89 60a1 1 0 1 0 0-2 1 1 0 0 0 0 2z"/></g><g><path fill="#c7d7f1" d="M99 60a1 1 0 1 0 0-2 1 1 0 0 0 0 2z"/></g><g><path fill="#c7d7f1" d="M-1 70a1 1 0 1 0 0-2 1 1 0 0 0 0 2z"/></g><g><path fill="#c7d7f1" d="M9 70a1 1 0 1 0 0-2 1 1 0 0 0 0 2z"/></g><g><path fill="#c7d7f1" d="M19 70a1 1 0 1 0 0-2 1 1 0 0 0 0 2z"/></g><g><path fill="#c7d7f1" d="M29 70a1 1 0 1 0 0-2 1 1 0 0 0 0 2z"/></g><g><path fill="#c7d7f1" d="M39 70a1 1 0 1 0 0-2 1 1 0 0 0 0 2z"/></g><g><path fill="#c7d7f1" d="M49 70a1 1 0 1 0 0-2 1 1 0 0 0 0 2z"/></g><g><path fill="#c7d7f1" d="M59 70a1 1 0 1 0 0-2 1 1 0 0 0 0 2z"/></g><g><path fill="#c7d7f1" d="M69 70a1 1 0 1 0 0-2 1 1 0 0 0 0 2z"/></g><g><path fill="#c7d7f1" d="M79 70a1 1 0 1 0 0-2 1 1 0 0 0 0 2z"/></g><g><path fill="#c7d7f1" d="M89 70a1 1 0 1 0 0-2 1 1 0 0 0 0 2z"/></g><g><path fill="#c7d7f1" d="M99 70a1 1 0 1 0 0-2 1 1 0 0 0 0 2z"/></g><g><path fill="#c7d7f1" d="M-1 80a1 1 0 1 0 0-2 1 1 0 0 0 0 2z"/></g><g><path fill="#c7d7f1" d="M9 80a1 1 0 1 0 0-2 1 1 0 0 0 0 2z"/></g><g><path fill="#c7d7f1" d="M19 80a1 1 0 1 0 0-2 1 1 0 0 0 0 2z"/></g><g><path fill="#c7d7f1" d="M29 80a1 1 0 1 0 0-2 1 1 0 0 0 0 2z"/></g><g><path fill="#c7d7f1" d="M39 80a1 1 0 1 0 0-2 1 1 0 0 0 0 2z"/></g><g><path fill="#c7d7f1" d="M49 80a1 1 0 1 0 0-2 1 1 0 0 0 0 2z"/></g><g><path fill="#c7d7f1" d="M59 80a1 1 0 1 0 0-2 1 1 0 0 0 0 2z"/></g><g><path fill="#c7d7f1" d="M69 80a1 1 0 1 0 0-2 1 1 0 0 0 0 2z"/></g><g><path fill="#c7d7f1" d="M79 80a1 1 0 1 0 0-2 1 1 0 0 0 0 2z"/></g><g><path fill="#c7d7f1" d="M89 80a1 1 0 1 0 0-2 1 1 0 0 0 0 2z"/></g><g><path fill="#c7d7f1" d="M99 80a1 1 0 1 0 0-2 1 1 0 0 0 0 2z"/></g><g><path fill="#c7d7f1" d="M-1 90a1 1 0 1 0 0-2 1 1 0 0 0 0 2z"/></g><g><path fill="#c7d7f1" d="M9 90a1 1 0 1 0 0-2 1 1 0 0 0 0 2z"/></g><g><path fill="#c7d7f1" d="M19 90a1 1 0 1 0 0-2 1 1 0 0 0 0 2z"/></g><g><path fill="#c7d7f1" d="M29 90a1 1 0 1 0 0-2 1 1 0 0 0 0 2z"/></g><g><path fill="#c7d7f1" d="M39 90a1 1 0 1 0 0-2 1 1 0 0 0 0 2z"/></g><g><path fill="#c7d7f1" d="M49 90a1 1 0 1 0 0-2 1 1 0 0 0 0 2z"/></g><g><path fill="#c7d7f1" d="M59 90a1 1 0 1 0 0-2 1 1 0 0 0 0 2z"/></g><g><path fill="#c7d7f1" d="M69 90a1 1 0 1 0 0-2 1 1 0 0 0 0 2z"/></g><g><path fill="#c7d7f1" d="M79 90a1 1 0 1 0 0-2 1 1 0 0 0 0 2z"/></g><g><path fill="#c7d7f1" d="M89 90a1 1 0 1 0 0-2 1 1 0 0 0 0 2z"/></g><g><path fill="#c7d7f1" d="M99 90a1 1 0 1 0 0-2 1 1 0 0 0 0 2z"/></g><g><path fill="#c7d7f1" d="M-1 100a1 1 0 1 0 0-2 1 1 0 0 0 0 2z"/></g><g><path fill="#c7d7f1" d="M9 100a1 1 0 1 0 0-2 1 1 0 0 0 0 2z"/></g><g><path fill="#c7d7f1" d="M19 100a1 1 0 1 0 0-2 1 1 0 0 0 0 2z"/></g><g><path fill="#c7d7f1" d="M29 100a1 1 0 1 0 0-2 1 1 0 0 0 0 2z"/></g><g><path fill="#c7d7f1" d="M39 100a1 1 0 1 0 0-2 1 1 0 0 0 0 2z"/></g><g><path fill="#c7d7f1" d="M49 100a1 1 0 1 0 0-2 1 1 0 0 0 0 2z"/></g><g><path fill="#c7d7f1" d="M59 100a1 1 0 1 0 0-2 1 1 0 0 0 0 2z"/></g><g><path fill="#c7d7f1" d="M69 100a1 1 0 1 0 0-2 1 1 0 0 0 0 2z"/></g><g><path fill="#c7d7f1" d="M79 100a1 1 0 1 0 0-2 1 1 0 0 0 0 2z"/></g><g><path fill="#c7d7f1" d="M89 100a1 1 0 1 0 0-2 1 1 0 0 0 0 2z"/></g><g><path fill="#c7d7f1" d="M99 100a1 1 0 1 0 0-2 1 1 0 0 0 0 2z"/></g><g><path fill="#c7d7f1" d="M109-30a1 1 0 1 0 0-2 1 1 0 0 0 0 2z"/></g><g><path fill="#c7d7f1" d="M119-30a1 1 0 1 0 0-2 1 1 0 0 0 0 2z"/></g><g><path fill="#c7d7f1" d="M129-30a1 1 0 1 0 0-2 1 1 0 0 0 0 2z"/></g><g><path fill="#c7d7f1" d="M139-30a1 1 0 1 0 0-2 1 1 0 0 0 0 2z"/></g><g><path fill="#c7d7f1" d="M149-30a1 1 0 1 0 0-2 1 1 0 0 0 0 2z"/></g><g><path fill="#c7d7f1" d="M159-30a1 1 0 1 0 0-2 1 1 0 0 0 0 2z"/></g><g><path fill="#c7d7f1" d="M169-30a1 1 0 1 0 0-2 1 1 0 0 0 0 2z"/></g><g><path fill="#c7d7f1" d="M169-30a1 1 0 1 0 0-2 1 1 0 0 0 0 2z"/></g><g><path fill="#c7d7f1" d="M179-30a1 1 0 1 0 0-2 1 1 0 0 0 0 2z"/></g><g><path fill="#c7d7f1" d="M189-30a1 1 0 1 0 0-2 1 1 0 0 0 0 2z"/></g><g><path fill="#c7d7f1" d="M199-30a1 1 0 1 0 0-2 1 1 0 0 0 0 2z"/></g><g><path fill="#c7d7f1" d="M209-30a1 1 0 1 0 0-2 1 1 0 0 0 0 2z"/></g><g><path fill="#c7d7f1" d="M109-20a1 1 0 1 0 0-2 1 1 0 0 0 0 2z"/></g><g><path fill="#c7d7f1" d="M119-20a1 1 0 1 0 0-2 1 1 0 0 0 0 2z"/></g><g><path fill="#c7d7f1" d="M129-20a1 1 0 1 0 0-2 1 1 0 0 0 0 2z"/></g><g><path fill="#c7d7f1" d="M139-20a1 1 0 1 0 0-2 1 1 0 0 0 0 2z"/></g><g><path fill="#c7d7f1" d="M149-20a1 1 0 1 0 0-2 1 1 0 0 0 0 2z"/></g><g><path fill="#c7d7f1" d="M159-20a1 1 0 1 0 0-2 1 1 0 0 0 0 2z"/></g><g><path fill="#c7d7f1" d="M169-20a1 1 0 1 0 0-2 1 1 0 0 0 0 2z"/></g><g><path fill="#c7d7f1" d="M179-20a1 1 0 1 0 0-2 1 1 0 0 0 0 2z"/></g><g><path fill="#c7d7f1" d="M189-20a1 1 0 1 0 0-2 1 1 0 0 0 0 2z"/></g><g><path fill="#c7d7f1" d="M199-20a1 1 0 1 0 0-2 1 1 0 0 0 0 2z"/></g><g><path fill="#c7d7f1" d="M209-20a1 1 0 1 0 0-2 1 1 0 0 0 0 2z"/></g><g><path fill="#c7d7f1" d="M109-10a1 1 0 1 0 0-2 1 1 0 0 0 0 2z"/></g><g><path fill="#c7d7f1" d="M119-10a1 1 0 1 0 0-2 1 1 0 0 0 0 2z"/></g><g><path fill="#c7d7f1" d="M129-10a1 1 0 1 0 0-2 1 1 0 0 0 0 2z"/></g><g><path fill="#c7d7f1" d="M139-10a1 1 0 1 0 0-2 1 1 0 0 0 0 2z"/></g><g><path fill="#c7d7f1" d="M149-10a1 1 0 1 0 0-2 1 1 0 0 0 0 2z"/></g><g><path fill="#c7d7f1" d="M159-10a1 1 0 1 0 0-2 1 1 0 0 0 0 2z"/></g><g><path fill="#c7d7f1" d="M169-10a1 1 0 1 0 0-2 1 1 0 0 0 0 2z"/></g><g><path fill="#c7d7f1" d="M179-10a1 1 0 1 0 0-2 1 1 0 0 0 0 2z"/></g><g><path fill="#c7d7f1" d="M189-10a1 1 0 1 0 0-2 1 1 0 0 0 0 2z"/></g><g><path fill="#c7d7f1" d="M199-10a1 1 0 1 0 0-2 1 1 0 0 0 0 2z"/></g><g><path fill="#c7d7f1" d="M209-10a1 1 0 1 0 0-2 1 1 0 0 0 0 2z"/></g><g><path fill="#c7d7f1" d="M109 0a1 1 0 1 0 0-2 1 1 0 0 0 0 2z"/></g><g><path fill="#c7d7f1" d="M119 0a1 1 0 1 0 0-2 1 1 0 0 0 0 2z"/></g><g><path fill="#c7d7f1" d="M129 0a1 1 0 1 0 0-2 1 1 0 0 0 0 2z"/></g><g><path fill="#c7d7f1" d="M139 0a1 1 0 1 0 0-2 1 1 0 0 0 0 2z"/></g><g><path fill="#c7d7f1" d="M149 0a1 1 0 1 0 0-2 1 1 0 0 0 0 2z"/></g><g><path fill="#c7d7f1" d="M159 0a1 1 0 1 0 0-2 1 1 0 0 0 0 2z"/></g><g><path fill="#c7d7f1" d="M169 0a1 1 0 1 0 0-2 1 1 0 0 0 0 2z"/></g><g><path fill="#c7d7f1" d="M179 0a1 1 0 1 0 0-2 1 1 0 0 0 0 2z"/></g><g><path fill="#c7d7f1" d="M189 0a1 1 0 1 0 0-2 1 1 0 0 0 0 2z"/></g><g><path fill="#c7d7f1" d="M199 0a1 1 0 1 0 0-2 1 1 0 0 0 0 2z"/></g><g><path fill="#c7d7f1" d="M209 0a1 1 0 1 0 0-2 1 1 0 0 0 0 2z"/></g><g><path fill="#c7d7f1" d="M109 10a1 1 0 1 0 0-2 1 1 0 0 0 0 2z"/></g><g><path fill="#c7d7f1" d="M119 10a1 1 0 1 0 0-2 1 1 0 0 0 0 2z"/></g><g><path fill="#c7d7f1" d="M129 10a1 1 0 1 0 0-2 1 1 0 0 0 0 2z"/></g><g><path fill="#c7d7f1" d="M139 10a1 1 0 1 0 0-2 1 1 0 0 0 0 2z"/></g><g><path fill="#c7d7f1" d="M149 10a1 1 0 1 0 0-2 1 1 0 0 0 0 2z"/></g><g><path fill="#c7d7f1" d="M159 10a1 1 0 1 0 0-2 1 1 0 0 0 0 2z"/></g><g><path fill="#c7d7f1" d="M169 10a1 1 0 1 0 0-2 1 1 0 0 0 0 2z"/></g><g><path fill="#c7d7f1" d="M179 10a1 1 0 1 0 0-2 1 1 0 0 0 0 2z"/></g><g><path fill="#c7d7f1" d="M189 10a1 1 0 1 0 0-2 1 1 0 0 0 0 2z"/></g><g><path fill="#c7d7f1" d="M199 10a1 1 0 1 0 0-2 1 1 0 0 0 0 2z"/></g><g><path fill="#c7d7f1" d="M209 10a1 1 0 1 0 0-2 1 1 0 0 0 0 2z"/></g><g><path fill="#c7d7f1" d="M109 20a1 1 0 1 0 0-2 1 1 0 0 0 0 2z"/></g><g><path fill="#c7d7f1" d="M119 20a1 1 0 1 0 0-2 1 1 0 0 0 0 2z"/></g><g><path fill="#c7d7f1" d="M129 20a1 1 0 1 0 0-2 1 1 0 0 0 0 2z"/></g><g><path fill="#c7d7f1" d="M139 20a1 1 0 1 0 0-2 1 1 0 0 0 0 2z"/></g><g><path fill="#c7d7f1" d="M149 20a1 1 0 1 0 0-2 1 1 0 0 0 0 2z"/></g><g><path fill="#c7d7f1" d="M159 20a1 1 0 1 0 0-2 1 1 0 0 0 0 2z"/></g><g><path fill="#c7d7f1" d="M169 20a1 1 0 1 0 0-2 1 1 0 0 0 0 2z"/></g><g><path fill="#c7d7f1" d="M179 20a1 1 0 1 0 0-2 1 1 0 0 0 0 2z"/></g><g><path fill="#c7d7f1" d="M189 20a1 1 0 1 0 0-2 1 1 0 0 0 0 2z"/></g><g><path fill="#c7d7f1" d="M199 20a1 1 0 1 0 0-2 1 1 0 0 0 0 2z"/></g><g><path fill="#c7d7f1" d="M209 20a1 1 0 1 0 0-2 1 1 0 0 0 0 2z"/></g><g><path fill="#c7d7f1" d="M109 30a1 1 0 1 0 0-2 1 1 0 0 0 0 2z"/></g><g><path fill="#c7d7f1" d="M119 30a1 1 0 1 0 0-2 1 1 0 0 0 0 2z"/></g><g><path fill="#c7d7f1" d="M129 30a1 1 0 1 0 0-2 1 1 0 0 0 0 2z"/></g><g><path fill="#c7d7f1" d="M139 30a1 1 0 1 0 0-2 1 1 0 0 0 0 2z"/></g><g><path fill="#c7d7f1" d="M149 30a1 1 0 1 0 0-2 1 1 0 0 0 0 2z"/></g><g><path fill="#c7d7f1" d="M159 30a1 1 0 1 0 0-2 1 1 0 0 0 0 2z"/></g><g><path fill="#c7d7f1" d="M169 30a1 1 0 1 0 0-2 1 1 0 0 0 0 2z"/></g><g><path fill="#c7d7f1" d="M179 30a1 1 0 1 0 0-2 1 1 0 0 0 0 2z"/></g><g><path fill="#c7d7f1" d="M189 30a1 1 0 1 0 0-2 1 1 0 0 0 0 2z"/></g><g><path fill="#c7d7f1" d="M199 30a1 1 0 1 0 0-2 1 1 0 0 0 0 2z"/></g><g><path fill="#c7d7f1" d="M209 30a1 1 0 1 0 0-2 1 1 0 0 0 0 2z"/></g><g><path fill="#c7d7f1" d="M109 40a1 1 0 1 0 0-2 1 1 0 0 0 0 2z"/></g><g><path fill="#c7d7f1" d="M119 40a1 1 0 1 0 0-2 1 1 0 0 0 0 2z"/></g><g><path fill="#c7d7f1" d="M129 40a1 1 0 1 0 0-2 1 1 0 0 0 0 2z"/></g><g><path fill="#c7d7f1" d="M139 40a1 1 0 1 0 0-2 1 1 0 0 0 0 2z"/></g><g><path fill="#c7d7f1" d="M149 40a1 1 0 1 0 0-2 1 1 0 0 0 0 2z"/></g><g><path fill="#c7d7f1" d="M159 40a1 1 0 1 0 0-2 1 1 0 0 0 0 2z"/></g><g><path fill="#c7d7f1" d="M169 40a1 1 0 1 0 0-2 1 1 0 0 0 0 2z"/></g><g><path fill="#c7d7f1" d="M179 40a1 1 0 1 0 0-2 1 1 0 0 0 0 2z"/></g><g><path fill="#c7d7f1" d="M189 40a1 1 0 1 0 0-2 1 1 0 0 0 0 2z"/></g><g><path fill="#c7d7f1" d="M199 40a1 1 0 1 0 0-2 1 1 0 0 0 0 2z"/></g><g><path fill="#c7d7f1" d="M209 40a1 1 0 1 0 0-2 1 1 0 0 0 0 2z"/></g><g><path fill="#c7d7f1" d="M109 50a1 1 0 1 0 0-2 1 1 0 0 0 0 2z"/></g><g><path fill="#c7d7f1" d="M119 50a1 1 0 1 0 0-2 1 1 0 0 0 0 2z"/></g><g><path fill="#c7d7f1" d="M129 50a1 1 0 1 0 0-2 1 1 0 0 0 0 2z"/></g><g><path fill="#c7d7f1" d="M139 50a1 1 0 1 0 0-2 1 1 0 0 0 0 2z"/></g><g><path fill="#c7d7f1" d="M149 50a1 1 0 1 0 0-2 1 1 0 0 0 0 2z"/></g><g><path fill="#c7d7f1" d="M159 50a1 1 0 1 0 0-2 1 1 0 0 0 0 2z"/></g><g><path fill="#c7d7f1" d="M169 50a1 1 0 1 0 0-2 1 1 0 0 0 0 2z"/></g><g><path fill="#c7d7f1" d="M179 50a1 1 0 1 0 0-2 1 1 0 0 0 0 2z"/></g><g><path fill="#c7d7f1" d="M189 50a1 1 0 1 0 0-2 1 1 0 0 0 0 2z"/></g><g><path fill="#c7d7f1" d="M199 50a1 1 0 1 0 0-2 1 1 0 0 0 0 2z"/></g><g><path fill="#c7d7f1" d="M209 50a1 1 0 1 0 0-2 1 1 0 0 0 0 2z"/></g><g><path fill="#c7d7f1" d="M109 60a1 1 0 1 0 0-2 1 1 0 0 0 0 2z"/></g><g><path fill="#c7d7f1" d="M119 60a1 1 0 1 0 0-2 1 1 0 0 0 0 2z"/></g><g><path fill="#c7d7f1" d="M129 60a1 1 0 1 0 0-2 1 1 0 0 0 0 2z"/></g><g><path fill="#c7d7f1" d="M139 60a1 1 0 1 0 0-2 1 1 0 0 0 0 2z"/></g><g><path fill="#c7d7f1" d="M149 60a1 1 0 1 0 0-2 1 1 0 0 0 0 2z"/></g><g><path fill="#c7d7f1" d="M159 60a1 1 0 1 0 0-2 1 1 0 0 0 0 2z"/></g><g><path fill="#c7d7f1" d="M169 60a1 1 0 1 0 0-2 1 1 0 0 0 0 2z"/></g><g><path fill="#c7d7f1" d="M179 60a1 1 0 1 0 0-2 1 1 0 0 0 0 2z"/></g><g><path fill="#c7d7f1" d="M189 60a1 1 0 1 0 0-2 1 1 0 0 0 0 2z"/></g><g><path fill="#c7d7f1" d="M199 60a1 1 0 1 0 0-2 1 1 0 0 0 0 2z"/></g><g><path fill="#c7d7f1" d="M209 60a1 1 0 1 0 0-2 1 1 0 0 0 0 2z"/></g><g><path fill="#c7d7f1" d="M109 70a1 1 0 1 0 0-2 1 1 0 0 0 0 2z"/></g><g><path fill="#c7d7f1" d="M119 70a1 1 0 1 0 0-2 1 1 0 0 0 0 2z"/></g><g><path fill="#c7d7f1" d="M129 70a1 1 0 1 0 0-2 1 1 0 0 0 0 2z"/></g><g><path fill="#c7d7f1" d="M139 70a1 1 0 1 0 0-2 1 1 0 0 0 0 2z"/></g><g><path fill="#c7d7f1" d="M149 70a1 1 0 1 0 0-2 1 1 0 0 0 0 2z"/></g><g><path fill="#c7d7f1" d="M159 70a1 1 0 1 0 0-2 1 1 0 0 0 0 2z"/></g><g><path fill="#c7d7f1" d="M169 70a1 1 0 1 0 0-2 1 1 0 0 0 0 2z"/></g><g><path fill="#c7d7f1" d="M179 70a1 1 0 1 0 0-2 1 1 0 0 0 0 2z"/></g><g><path fill="#c7d7f1" d="M189 70a1 1 0 1 0 0-2 1 1 0 0 0 0 2z"/></g><g><path fill="#c7d7f1" d="M199 70a1 1 0 1 0 0-2 1 1 0 0 0 0 2z"/></g><g><path fill="#c7d7f1" d="M209 70a1 1 0 1 0 0-2 1 1 0 0 0 0 2z"/></g><g><path fill="#c7d7f1" d="M109 80a1 1 0 1 0 0-2 1 1 0 0 0 0 2z"/></g><g><path fill="#c7d7f1" d="M119 80a1 1 0 1 0 0-2 1 1 0 0 0 0 2z"/></g><g><path fill="#c7d7f1" d="M129 80a1 1 0 1 0 0-2 1 1 0 0 0 0 2z"/></g><g><path fill="#c7d7f1" d="M139 80a1 1 0 1 0 0-2 1 1 0 0 0 0 2z"/></g><g><path fill="#c7d7f1" d="M149 80a1 1 0 1 0 0-2 1 1 0 0 0 0 2z"/></g><g><path fill="#c7d7f1" d="M159 80a1 1 0 1 0 0-2 1 1 0 0 0 0 2z"/></g><g><path fill="#c7d7f1" d="M169 80a1 1 0 1 0 0-2 1 1 0 0 0 0 2z"/></g><g><path fill="#c7d7f1" d="M179 80a1 1 0 1 0 0-2 1 1 0 0 0 0 2z"/></g><g><path fill="#c7d7f1" d="M189 80a1 1 0 1 0 0-2 1 1 0 0 0 0 2z"/></g><g><path fill="#c7d7f1" d="M199 80a1 1 0 1 0 0-2 1 1 0 0 0 0 2z"/></g><g><path fill="#c7d7f1" d="M209 80a1 1 0 1 0 0-2 1 1 0 0 0 0 2z"/></g><g><path fill="#c7d7f1" d="M109 90a1 1 0 1 0 0-2 1 1 0 0 0 0 2z"/></g><g><path fill="#c7d7f1" d="M119 90a1 1 0 1 0 0-2 1 1 0 0 0 0 2z"/></g><g><path fill="#c7d7f1" d="M129 90a1 1 0 1 0 0-2 1 1 0 0 0 0 2z"/></g><g><path fill="#c7d7f1" d="M139 90a1 1 0 1 0 0-2 1 1 0 0 0 0 2z"/></g><g><path fill="#c7d7f1" d="M149 90a1 1 0 1 0 0-2 1 1 0 0 0 0 2z"/></g><g><path fill="#c7d7f1" d="M159 90a1 1 0 1 0 0-2 1 1 0 0 0 0 2z"/></g><g><path fill="#c7d7f1" d="M169 90a1 1 0 1 0 0-2 1 1 0 0 0 0 2z"/></g><g><path fill="#c7d7f1" d="M179 90a1 1 0 1 0 0-2 1 1 0 0 0 0 2z"/></g><g><path fill="#c7d7f1" d="M189 90a1 1 0 1 0 0-2 1 1 0 0 0 0 2z"/></g><g><path fill="#c7d7f1" d="M199 90a1 1 0 1 0 0-2 1 1 0 0 0 0 2z"/></g><g><path fill="#c7d7f1" d="M209 90a1 1 0 1 0 0-2 1 1 0 0 0 0 2z"/></g><g><path fill="#c7d7f1" d="M109 100a1 1 0 1 0 0-2 1 1 0 0 0 0 2z"/></g><g><path fill="#c7d7f1" d="M119 100a1 1 0 1 0 0-2 1 1 0 0 0 0 2z"/></g><g><path fill="#c7d7f1" d="M129 100a1 1 0 1 0 0-2 1 1 0 0 0 0 2z"/></g><g><path fill="#c7d7f1" d="M139 100a1 1 0 1 0 0-2 1 1 0 0 0 0 2z"/></g><g><path fill="#c7d7f1" d="M149 100a1 1 0 1 0 0-2 1 1 0 0 0 0 2z"/></g><g><path fill="#c7d7f1" d="M159 100a1 1 0 1 0 0-2 1 1 0 0 0 0 2z"/></g><g><path fill="#c7d7f1" d="M169 100a1 1 0 1 0 0-2 1 1 0 0 0 0 2z"/></g><g><path fill="#c7d7f1" d="M179 100a1 1 0 1 0 0-2 1 1 0 0 0 0 2z"/></g><g><path fill="#c7d7f1" d="M189 100a1 1 0 1 0 0-2 1 1 0 0 0 0 2z"/></g><g><path fill="#c7d7f1" d="M199 100a1 1 0 1 0 0-2 1 1 0 0 0 0 2z"/></g><g><path fill="#c7d7f1" d="M209 100a1 1 0 1 0 0-2 1 1 0 0 0 0 2z"/></g><g><path fill="#c7d7f1" d="M179-30a1 1 0 1 0 0-2 1 1 0 0 0 0 2z"/></g><g><path fill="#c7d7f1" d="M189-30a1 1 0 1 0 0-2 1 1 0 0 0 0 2z"/></g><g><path fill="#c7d7f1" d="M199-30a1 1 0 1 0 0-2 1 1 0 0 0 0 2z"/></g><g><path fill="#c7d7f1" d="M209-30a1 1 0 1 0 0-2 1 1 0 0 0 0 2z"/></g><g><path fill="#c7d7f1" d="M219-30a1 1 0 1 0 0-2 1 1 0 0 0 0 2z"/></g><g><path fill="#c7d7f1" d="M229-30a1 1 0 1 0 0-2 1 1 0 0 0 0 2z"/></g><g><path fill="#c7d7f1" d="M239-30a1 1 0 1 0 0-2 1 1 0 0 0 0 2z"/></g><g><path fill="#c7d7f1" d="M239-30a1 1 0 1 0 0-2 1 1 0 0 0 0 2z"/></g><g><path fill="#c7d7f1" d="M249-30a1 1 0 1 0 0-2 1 1 0 0 0 0 2z"/></g><g><path fill="#c7d7f1" d="M259-30a1 1 0 1 0 0-2 1 1 0 0 0 0 2z"/></g><g><path fill="#c7d7f1" d="M269-30a1 1 0 1 0 0-2 1 1 0 0 0 0 2z"/></g><g><path fill="#c7d7f1" d="M279-30a1 1 0 1 0 0-2 1 1 0 0 0 0 2z"/></g><g><path fill="#c7d7f1" d="M179-20a1 1 0 1 0 0-2 1 1 0 0 0 0 2z"/></g><g><path fill="#c7d7f1" d="M189-20a1 1 0 1 0 0-2 1 1 0 0 0 0 2z"/></g><g><path fill="#c7d7f1" d="M199-20a1 1 0 1 0 0-2 1 1 0 0 0 0 2z"/></g><g><path fill="#c7d7f1" d="M209-20a1 1 0 1 0 0-2 1 1 0 0 0 0 2z"/></g><g><path fill="#c7d7f1" d="M219-20a1 1 0 1 0 0-2 1 1 0 0 0 0 2z"/></g><g><path fill="#c7d7f1" d="M229-20a1 1 0 1 0 0-2 1 1 0 0 0 0 2z"/></g><g><path fill="#c7d7f1" d="M239-20a1 1 0 1 0 0-2 1 1 0 0 0 0 2z"/></g><g><path fill="#c7d7f1" d="M249-20a1 1 0 1 0 0-2 1 1 0 0 0 0 2z"/></g><g><path fill="#c7d7f1" d="M259-20a1 1 0 1 0 0-2 1 1 0 0 0 0 2z"/></g><g><path fill="#c7d7f1" d="M269-20a1 1 0 1 0 0-2 1 1 0 0 0 0 2z"/></g><g><path fill="#c7d7f1" d="M279-20a1 1 0 1 0 0-2 1 1 0 0 0 0 2z"/></g><g><path fill="#c7d7f1" d="M179-10a1 1 0 1 0 0-2 1 1 0 0 0 0 2z"/></g><g><path fill="#c7d7f1" d="M189-10a1 1 0 1 0 0-2 1 1 0 0 0 0 2z"/></g><g><path fill="#c7d7f1" d="M199-10a1 1 0 1 0 0-2 1 1 0 0 0 0 2z"/></g><g><path fill="#c7d7f1" d="M209-10a1 1 0 1 0 0-2 1 1 0 0 0 0 2z"/></g><g><path fill="#c7d7f1" d="M219-10a1 1 0 1 0 0-2 1 1 0 0 0 0 2z"/></g><g><path fill="#c7d7f1" d="M229-10a1 1 0 1 0 0-2 1 1 0 0 0 0 2z"/></g><g><path fill="#c7d7f1" d="M239-10a1 1 0 1 0 0-2 1 1 0 0 0 0 2z"/></g><g><path fill="#c7d7f1" d="M249-10a1 1 0 1 0 0-2 1 1 0 0 0 0 2z"/></g><g><path fill="#c7d7f1" d="M259-10a1 1 0 1 0 0-2 1 1 0 0 0 0 2z"/></g><g><path fill="#c7d7f1" d="M269-10a1 1 0 1 0 0-2 1 1 0 0 0 0 2z"/></g><g><path fill="#c7d7f1" d="M279-10a1 1 0 1 0 0-2 1 1 0 0 0 0 2z"/></g><g><path fill="#c7d7f1" d="M179 0a1 1 0 1 0 0-2 1 1 0 0 0 0 2z"/></g><g><path fill="#c7d7f1" d="M189 0a1 1 0 1 0 0-2 1 1 0 0 0 0 2z"/></g><g><path fill="#c7d7f1" d="M199 0a1 1 0 1 0 0-2 1 1 0 0 0 0 2z"/></g><g><path fill="#c7d7f1" d="M209 0a1 1 0 1 0 0-2 1 1 0 0 0 0 2z"/></g><g><path fill="#c7d7f1" d="M219 0a1 1 0 1 0 0-2 1 1 0 0 0 0 2z"/></g><g><path fill="#c7d7f1" d="M229 0a1 1 0 1 0 0-2 1 1 0 0 0 0 2z"/></g><g><path fill="#c7d7f1" d="M239 0a1 1 0 1 0 0-2 1 1 0 0 0 0 2z"/></g><g><path fill="#c7d7f1" d="M249 0a1 1 0 1 0 0-2 1 1 0 0 0 0 2z"/></g><g><path fill="#c7d7f1" d="M259 0a1 1 0 1 0 0-2 1 1 0 0 0 0 2z"/></g><g><path fill="#c7d7f1" d="M269 0a1 1 0 1 0 0-2 1 1 0 0 0 0 2z"/></g><g><path fill="#c7d7f1" d="M279 0a1 1 0 1 0 0-2 1 1 0 0 0 0 2z"/></g><g><path fill="#c7d7f1" d="M179 10a1 1 0 1 0 0-2 1 1 0 0 0 0 2z"/></g><g><path fill="#c7d7f1" d="M189 10a1 1 0 1 0 0-2 1 1 0 0 0 0 2z"/></g><g><path fill="#c7d7f1" d="M199 10a1 1 0 1 0 0-2 1 1 0 0 0 0 2z"/></g><g><path fill="#c7d7f1" d="M209 10a1 1 0 1 0 0-2 1 1 0 0 0 0 2z"/></g><g><path fill="#c7d7f1" d="M219 10a1 1 0 1 0 0-2 1 1 0 0 0 0 2z"/></g><g><path fill="#c7d7f1" d="M229 10a1 1 0 1 0 0-2 1 1 0 0 0 0 2z"/></g><g><path fill="#c7d7f1" d="M239 10a1 1 0 1 0 0-2 1 1 0 0 0 0 2z"/></g><g><path fill="#c7d7f1" d="M249 10a1 1 0 1 0 0-2 1 1 0 0 0 0 2z"/></g><g><path fill="#c7d7f1" d="M259 10a1 1 0 1 0 0-2 1 1 0 0 0 0 2z"/></g><g><path fill="#c7d7f1" d="M269 10a1 1 0 1 0 0-2 1 1 0 0 0 0 2z"/></g><g><path fill="#c7d7f1" d="M279 10a1 1 0 1 0 0-2 1 1 0 0 0 0 2z"/></g><g><path fill="#c7d7f1" d="M179 20a1 1 0 1 0 0-2 1 1 0 0 0 0 2z"/></g><g><path fill="#c7d7f1" d="M189 20a1 1 0 1 0 0-2 1 1 0 0 0 0 2z"/></g><g><path fill="#c7d7f1" d="M199 20a1 1 0 1 0 0-2 1 1 0 0 0 0 2z"/></g><g><path fill="#c7d7f1" d="M209 20a1 1 0 1 0 0-2 1 1 0 0 0 0 2z"/></g><g><path fill="#c7d7f1" d="M219 20a1 1 0 1 0 0-2 1 1 0 0 0 0 2z"/></g><g><path fill="#c7d7f1" d="M229 20a1 1 0 1 0 0-2 1 1 0 0 0 0 2z"/></g><g><path fill="#c7d7f1" d="M239 20a1 1 0 1 0 0-2 1 1 0 0 0 0 2z"/></g><g><path fill="#c7d7f1" d="M249 20a1 1 0 1 0 0-2 1 1 0 0 0 0 2z"/></g><g><path fill="#c7d7f1" d="M259 20a1 1 0 1 0 0-2 1 1 0 0 0 0 2z"/></g><g><path fill="#c7d7f1" d="M269 20a1 1 0 1 0 0-2 1 1 0 0 0 0 2z"/></g><g><path fill="#c7d7f1" d="M279 20a1 1 0 1 0 0-2 1 1 0 0 0 0 2z"/></g><g><path fill="#c7d7f1" d="M179 30a1 1 0 1 0 0-2 1 1 0 0 0 0 2z"/></g><g><path fill="#c7d7f1" d="M189 30a1 1 0 1 0 0-2 1 1 0 0 0 0 2z"/></g><g><path fill="#c7d7f1" d="M199 30a1 1 0 1 0 0-2 1 1 0 0 0 0 2z"/></g><g><path fill="#c7d7f1" d="M209 30a1 1 0 1 0 0-2 1 1 0 0 0 0 2z"/></g><g><path fill="#c7d7f1" d="M219 30a1 1 0 1 0 0-2 1 1 0 0 0 0 2z"/></g><g><path fill="#c7d7f1" d="M229 30a1 1 0 1 0 0-2 1 1 0 0 0 0 2z"/></g><g><path fill="#c7d7f1" d="M239 30a1 1 0 1 0 0-2 1 1 0 0 0 0 2z"/></g><g><path fill="#c7d7f1" d="M249 30a1 1 0 1 0 0-2 1 1 0 0 0 0 2z"/></g><g><path fill="#c7d7f1" d="M259 30a1 1 0 1 0 0-2 1 1 0 0 0 0 2z"/></g><g><path fill="#c7d7f1" d="M269 30a1 1 0 1 0 0-2 1 1 0 0 0 0 2z"/></g><g><path fill="#c7d7f1" d="M279 30a1 1 0 1 0 0-2 1 1 0 0 0 0 2z"/></g><g><path fill="#c7d7f1" d="M179 40a1 1 0 1 0 0-2 1 1 0 0 0 0 2z"/></g><g><path fill="#c7d7f1" d="M189 40a1 1 0 1 0 0-2 1 1 0 0 0 0 2z"/></g><g><path fill="#c7d7f1" d="M199 40a1 1 0 1 0 0-2 1 1 0 0 0 0 2z"/></g><g><path fill="#c7d7f1" d="M209 40a1 1 0 1 0 0-2 1 1 0 0 0 0 2z"/></g><g><path fill="#c7d7f1" d="M219 40a1 1 0 1 0 0-2 1 1 0 0 0 0 2z"/></g><g><path fill="#c7d7f1" d="M229 40a1 1 0 1 0 0-2 1 1 0 0 0 0 2z"/></g><g><path fill="#c7d7f1" d="M239 40a1 1 0 1 0 0-2 1 1 0 0 0 0 2z"/></g><g><path fill="#c7d7f1" d="M249 40a1 1 0 1 0 0-2 1 1 0 0 0 0 2z"/></g><g><path fill="#c7d7f1" d="M259 40a1 1 0 1 0 0-2 1 1 0 0 0 0 2z"/></g><g><path fill="#c7d7f1" d="M269 40a1 1 0 1 0 0-2 1 1 0 0 0 0 2z"/></g><g><path fill="#c7d7f1" d="M279 40a1 1 0 1 0 0-2 1 1 0 0 0 0 2z"/></g><g><path fill="#c7d7f1" d="M179 50a1 1 0 1 0 0-2 1 1 0 0 0 0 2z"/></g><g><path fill="#c7d7f1" d="M189 50a1 1 0 1 0 0-2 1 1 0 0 0 0 2z"/></g><g><path fill="#c7d7f1" d="M199 50a1 1 0 1 0 0-2 1 1 0 0 0 0 2z"/></g><g><path fill="#c7d7f1" d="M209 50a1 1 0 1 0 0-2 1 1 0 0 0 0 2z"/></g><g><path fill="#c7d7f1" d="M219 50a1 1 0 1 0 0-2 1 1 0 0 0 0 2z"/></g><g><path fill="#c7d7f1" d="M229 50a1 1 0 1 0 0-2 1 1 0 0 0 0 2z"/></g><g><path fill="#c7d7f1" d="M239 50a1 1 0 1 0 0-2 1 1 0 0 0 0 2z"/></g><g><path fill="#c7d7f1" d="M249 50a1 1 0 1 0 0-2 1 1 0 0 0 0 2z"/></g><g><path fill="#c7d7f1" d="M259 50a1 1 0 1 0 0-2 1 1 0 0 0 0 2z"/></g><g><path fill="#c7d7f1" d="M269 50a1 1 0 1 0 0-2 1 1 0 0 0 0 2z"/></g><g><path fill="#c7d7f1" d="M279 50a1 1 0 1 0 0-2 1 1 0 0 0 0 2z"/></g><g><path fill="#c7d7f1" d="M179 60a1 1 0 1 0 0-2 1 1 0 0 0 0 2z"/></g><g><path fill="#c7d7f1" d="M189 60a1 1 0 1 0 0-2 1 1 0 0 0 0 2z"/></g><g><path fill="#c7d7f1" d="M199 60a1 1 0 1 0 0-2 1 1 0 0 0 0 2z"/></g><g><path fill="#c7d7f1" d="M209 60a1 1 0 1 0 0-2 1 1 0 0 0 0 2z"/></g><g><path fill="#c7d7f1" d="M219 60a1 1 0 1 0 0-2 1 1 0 0 0 0 2z"/></g><g><path fill="#c7d7f1" d="M229 60a1 1 0 1 0 0-2 1 1 0 0 0 0 2z"/></g><g><path fill="#c7d7f1" d="M239 60a1 1 0 1 0 0-2 1 1 0 0 0 0 2z"/></g><g><path fill="#c7d7f1" d="M249 60a1 1 0 1 0 0-2 1 1 0 0 0 0 2z"/></g><g><path fill="#c7d7f1" d="M259 60a1 1 0 1 0 0-2 1 1 0 0 0 0 2z"/></g><g><path fill="#c7d7f1" d="M269 60a1 1 0 1 0 0-2 1 1 0 0 0 0 2z"/></g><g><path fill="#c7d7f1" d="M279 60a1 1 0 1 0 0-2 1 1 0 0 0 0 2z"/></g><g><path fill="#c7d7f1" d="M179 70a1 1 0 1 0 0-2 1 1 0 0 0 0 2z"/></g><g><path fill="#c7d7f1" d="M189 70a1 1 0 1 0 0-2 1 1 0 0 0 0 2z"/></g><g><path fill="#c7d7f1" d="M199 70a1 1 0 1 0 0-2 1 1 0 0 0 0 2z"/></g><g><path fill="#c7d7f1" d="M209 70a1 1 0 1 0 0-2 1 1 0 0 0 0 2z"/></g><g><path fill="#c7d7f1" d="M219 70a1 1 0 1 0 0-2 1 1 0 0 0 0 2z"/></g><g><path fill="#c7d7f1" d="M229 70a1 1 0 1 0 0-2 1 1 0 0 0 0 2z"/></g><g><path fill="#c7d7f1" d="M239 70a1 1 0 1 0 0-2 1 1 0 0 0 0 2z"/></g><g><path fill="#c7d7f1" d="M249 70a1 1 0 1 0 0-2 1 1 0 0 0 0 2z"/></g><g><path fill="#c7d7f1" d="M259 70a1 1 0 1 0 0-2 1 1 0 0 0 0 2z"/></g><g><path fill="#c7d7f1" d="M269 70a1 1 0 1 0 0-2 1 1 0 0 0 0 2z"/></g><g><path fill="#c7d7f1" d="M279 70a1 1 0 1 0 0-2 1 1 0 0 0 0 2z"/></g><g><path fill="#c7d7f1" d="M179 80a1 1 0 1 0 0-2 1 1 0 0 0 0 2z"/></g><g><path fill="#c7d7f1" d="M189 80a1 1 0 1 0 0-2 1 1 0 0 0 0 2z"/></g><g><path fill="#c7d7f1" d="M199 80a1 1 0 1 0 0-2 1 1 0 0 0 0 2z"/></g><g><path fill="#c7d7f1" d="M209 80a1 1 0 1 0 0-2 1 1 0 0 0 0 2z"/></g><g><path fill="#c7d7f1" d="M219 80a1 1 0 1 0 0-2 1 1 0 0 0 0 2z"/></g><g><path fill="#c7d7f1" d="M229 80a1 1 0 1 0 0-2 1 1 0 0 0 0 2z"/></g><g><path fill="#c7d7f1" d="M239 80a1 1 0 1 0 0-2 1 1 0 0 0 0 2z"/></g><g><path fill="#c7d7f1" d="M249 80a1 1 0 1 0 0-2 1 1 0 0 0 0 2z"/></g><g><path fill="#c7d7f1" d="M259 80a1 1 0 1 0 0-2 1 1 0 0 0 0 2z"/></g><g><path fill="#c7d7f1" d="M269 80a1 1 0 1 0 0-2 1 1 0 0 0 0 2z"/></g><g><path fill="#c7d7f1" d="M279 80a1 1 0 1 0 0-2 1 1 0 0 0 0 2z"/></g><g><path fill="#c7d7f1" d="M179 90a1 1 0 1 0 0-2 1 1 0 0 0 0 2z"/></g><g><path fill="#c7d7f1" d="M189 90a1 1 0 1 0 0-2 1 1 0 0 0 0 2z"/></g><g><path fill="#c7d7f1" d="M199 90a1 1 0 1 0 0-2 1 1 0 0 0 0 2z"/></g><g><path fill="#c7d7f1" d="M209 90a1 1 0 1 0 0-2 1 1 0 0 0 0 2z"/></g><g><path fill="#c7d7f1" d="M219 90a1 1 0 1 0 0-2 1 1 0 0 0 0 2z"/></g><g><path fill="#c7d7f1" d="M229 90a1 1 0 1 0 0-2 1 1 0 0 0 0 2z"/></g><g><path fill="#c7d7f1" d="M239 90a1 1 0 1 0 0-2 1 1 0 0 0 0 2z"/></g><g><path fill="#c7d7f1" d="M249 90a1 1 0 1 0 0-2 1 1 0 0 0 0 2z"/></g><g><path fill="#c7d7f1" d="M259 90a1 1 0 1 0 0-2 1 1 0 0 0 0 2z"/></g><g><path fill="#c7d7f1" d="M269 90a1 1 0 1 0 0-2 1 1 0 0 0 0 2z"/></g><g><path fill="#c7d7f1" d="M279 90a1 1 0 1 0 0-2 1 1 0 0 0 0 2z"/></g><g><path fill="#c7d7f1" d="M179 100a1 1 0 1 0 0-2 1 1 0 0 0 0 2z"/></g><g><path fill="#c7d7f1" d="M189 100a1 1 0 1 0 0-2 1 1 0 0 0 0 2z"/></g><g><path fill="#c7d7f1" d="M199 100a1 1 0 1 0 0-2 1 1 0 0 0 0 2z"/></g><g><path fill="#c7d7f1" d="M209 100a1 1 0 1 0 0-2 1 1 0 0 0 0 2z"/></g><g><path fill="#c7d7f1" d="M219 100a1 1 0 1 0 0-2 1 1 0 0 0 0 2z"/></g><g><path fill="#c7d7f1" d="M229 100a1 1 0 1 0 0-2 1 1 0 0 0 0 2z"/></g><g><path fill="#c7d7f1" d="M239 100a1 1 0 1 0 0-2 1 1 0 0 0 0 2z"/></g><g><path fill="#c7d7f1" d="M249 100a1 1 0 1 0 0-2 1 1 0 0 0 0 2z"/></g><g><path fill="#c7d7f1" d="M259 100a1 1 0 1 0 0-2 1 1 0 0 0 0 2z"/></g><g><path fill="#c7d7f1" d="M269 100a1 1 0 1 0 0-2 1 1 0 0 0 0 2z"/></g><g><path fill="#c7d7f1" d="M279 100a1 1 0 1 0 0-2 1 1 0 0 0 0 2z"/></g></g><g clip-path="url(#7w08a)"><g><path fill="#c7d7f1" d="M-1 110a1 1 0 1 0 0-2 1 1 0 0 0 0 2z"/></g><g><path fill="#c7d7f1" d="M9 110a1 1 0 1 0 0-2 1 1 0 0 0 0 2z"/></g><g><path fill="#c7d7f1" d="M19 110a1 1 0 1 0 0-2 1 1 0 0 0 0 2z"/></g><g><path fill="#c7d7f1" d="M29 110a1 1 0 1 0 0-2 1 1 0 0 0 0 2z"/></g><g><path fill="#c7d7f1" d="M39 110a1 1 0 1 0 0-2 1 1 0 0 0 0 2z"/></g><g><path fill="#c7d7f1" d="M49 110a1 1 0 1 0 0-2 1 1 0 0 0 0 2z"/></g><g><path fill="#c7d7f1" d="M59 110a1 1 0 1 0 0-2 1 1 0 0 0 0 2z"/></g><g><path fill="#c7d7f1" d="M59 110a1 1 0 1 0 0-2 1 1 0 0 0 0 2z"/></g><g><path fill="#c7d7f1" d="M69 110a1 1 0 1 0 0-2 1 1 0 0 0 0 2z"/></g><g><path fill="#c7d7f1" d="M79 110a1 1 0 1 0 0-2 1 1 0 0 0 0 2z"/></g><g><path fill="#c7d7f1" d="M89 110a1 1 0 1 0 0-2 1 1 0 0 0 0 2z"/></g><g><path fill="#c7d7f1" d="M99 110a1 1 0 1 0 0-2 1 1 0 0 0 0 2z"/></g><g><path fill="#c7d7f1" d="M-1 120a1 1 0 1 0 0-2 1 1 0 0 0 0 2z"/></g><g><path fill="#c7d7f1" d="M9 120a1 1 0 1 0 0-2 1 1 0 0 0 0 2z"/></g><g><path fill="#c7d7f1" d="M19 120a1 1 0 1 0 0-2 1 1 0 0 0 0 2z"/></g><g><path fill="#c7d7f1" d="M29 120a1 1 0 1 0 0-2 1 1 0 0 0 0 2z"/></g><g><path fill="#c7d7f1" d="M39 120a1 1 0 1 0 0-2 1 1 0 0 0 0 2z"/></g><g><path fill="#c7d7f1" d="M49 120a1 1 0 1 0 0-2 1 1 0 0 0 0 2z"/></g><g><path fill="#c7d7f1" d="M59 120a1 1 0 1 0 0-2 1 1 0 0 0 0 2z"/></g><g><path fill="#c7d7f1" d="M69 120a1 1 0 1 0 0-2 1 1 0 0 0 0 2z"/></g><g><path fill="#c7d7f1" d="M79 120a1 1 0 1 0 0-2 1 1 0 0 0 0 2z"/></g><g><path fill="#c7d7f1" d="M89 120a1 1 0 1 0 0-2 1 1 0 0 0 0 2z"/></g><g><path fill="#c7d7f1" d="M99 120a1 1 0 1 0 0-2 1 1 0 0 0 0 2z"/></g><g><path fill="#c7d7f1" d="M-1 130a1 1 0 1 0 0-2 1 1 0 0 0 0 2z"/></g><g><path fill="#c7d7f1" d="M9 130a1 1 0 1 0 0-2 1 1 0 0 0 0 2z"/></g><g><path fill="#c7d7f1" d="M19 130a1 1 0 1 0 0-2 1 1 0 0 0 0 2z"/></g><g><path fill="#c7d7f1" d="M29 130a1 1 0 1 0 0-2 1 1 0 0 0 0 2z"/></g><g><path fill="#c7d7f1" d="M39 130a1 1 0 1 0 0-2 1 1 0 0 0 0 2z"/></g><g><path fill="#c7d7f1" d="M49 130a1 1 0 1 0 0-2 1 1 0 0 0 0 2z"/></g><g><path fill="#c7d7f1" d="M59 130a1 1 0 1 0 0-2 1 1 0 0 0 0 2z"/></g><g><path fill="#c7d7f1" d="M69 130a1 1 0 1 0 0-2 1 1 0 0 0 0 2z"/></g><g><path fill="#c7d7f1" d="M79 130a1 1 0 1 0 0-2 1 1 0 0 0 0 2z"/></g><g><path fill="#c7d7f1" d="M89 130a1 1 0 1 0 0-2 1 1 0 0 0 0 2z"/></g><g><path fill="#c7d7f1" d="M99 130a1 1 0 1 0 0-2 1 1 0 0 0 0 2z"/></g><g><path fill="#c7d7f1" d="M-1 140a1 1 0 1 0 0-2 1 1 0 0 0 0 2z"/></g><g><path fill="#c7d7f1" d="M9 140a1 1 0 1 0 0-2 1 1 0 0 0 0 2z"/></g><g><path fill="#c7d7f1" d="M19 140a1 1 0 1 0 0-2 1 1 0 0 0 0 2z"/></g><g><path fill="#c7d7f1" d="M29 140a1 1 0 1 0 0-2 1 1 0 0 0 0 2z"/></g><g><path fill="#c7d7f1" d="M39 140a1 1 0 1 0 0-2 1 1 0 0 0 0 2z"/></g><g><path fill="#c7d7f1" d="M49 140a1 1 0 1 0 0-2 1 1 0 0 0 0 2z"/></g><g><path fill="#c7d7f1" d="M59 140a1 1 0 1 0 0-2 1 1 0 0 0 0 2z"/></g><g><path fill="#c7d7f1" d="M69 140a1 1 0 1 0 0-2 1 1 0 0 0 0 2z"/></g><g><path fill="#c7d7f1" d="M79 140a1 1 0 1 0 0-2 1 1 0 0 0 0 2z"/></g><g><path fill="#c7d7f1" d="M89 140a1 1 0 1 0 0-2 1 1 0 0 0 0 2z"/></g><g><path fill="#c7d7f1" d="M99 140a1 1 0 1 0 0-2 1 1 0 0 0 0 2z"/></g><g><path fill="#c7d7f1" d="M-1 150a1 1 0 1 0 0-2 1 1 0 0 0 0 2z"/></g><g><path fill="#c7d7f1" d="M9 150a1 1 0 1 0 0-2 1 1 0 0 0 0 2z"/></g><g><path fill="#c7d7f1" d="M19 150a1 1 0 1 0 0-2 1 1 0 0 0 0 2z"/></g><g><path fill="#c7d7f1" d="M29 150a1 1 0 1 0 0-2 1 1 0 0 0 0 2z"/></g><g><path fill="#c7d7f1" d="M39 150a1 1 0 1 0 0-2 1 1 0 0 0 0 2z"/></g><g><path fill="#c7d7f1" d="M49 150a1 1 0 1 0 0-2 1 1 0 0 0 0 2z"/></g><g><path fill="#c7d7f1" d="M59 150a1 1 0 1 0 0-2 1 1 0 0 0 0 2z"/></g><g><path fill="#c7d7f1" d="M69 150a1 1 0 1 0 0-2 1 1 0 0 0 0 2z"/></g><g><path fill="#c7d7f1" d="M79 150a1 1 0 1 0 0-2 1 1 0 0 0 0 2z"/></g><g><path fill="#c7d7f1" d="M89 150a1 1 0 1 0 0-2 1 1 0 0 0 0 2z"/></g><g><path fill="#c7d7f1" d="M99 150a1 1 0 1 0 0-2 1 1 0 0 0 0 2z"/></g><g><path fill="#c7d7f1" d="M-1 160a1 1 0 1 0 0-2 1 1 0 0 0 0 2z"/></g><g><path fill="#c7d7f1" d="M9 160a1 1 0 1 0 0-2 1 1 0 0 0 0 2z"/></g><g><path fill="#c7d7f1" d="M19 160a1 1 0 1 0 0-2 1 1 0 0 0 0 2z"/></g><g><path fill="#c7d7f1" d="M29 160a1 1 0 1 0 0-2 1 1 0 0 0 0 2z"/></g><g><path fill="#c7d7f1" d="M39 160a1 1 0 1 0 0-2 1 1 0 0 0 0 2z"/></g><g><path fill="#c7d7f1" d="M49 160a1 1 0 1 0 0-2 1 1 0 0 0 0 2z"/></g><g><path fill="#c7d7f1" d="M59 160a1 1 0 1 0 0-2 1 1 0 0 0 0 2z"/></g><g><path fill="#c7d7f1" d="M69 160a1 1 0 1 0 0-2 1 1 0 0 0 0 2z"/></g><g><path fill="#c7d7f1" d="M79 160a1 1 0 1 0 0-2 1 1 0 0 0 0 2z"/></g><g><path fill="#c7d7f1" d="M89 160a1 1 0 1 0 0-2 1 1 0 0 0 0 2z"/></g><g><path fill="#c7d7f1" d="M99 160a1 1 0 1 0 0-2 1 1 0 0 0 0 2z"/></g><g><path fill="#c7d7f1" d="M-1 170a1 1 0 1 0 0-2 1 1 0 0 0 0 2z"/></g><g><path fill="#c7d7f1" d="M9 170a1 1 0 1 0 0-2 1 1 0 0 0 0 2z"/></g><g><path fill="#c7d7f1" d="M19 170a1 1 0 1 0 0-2 1 1 0 0 0 0 2z"/></g><g><path fill="#c7d7f1" d="M29 170a1 1 0 1 0 0-2 1 1 0 0 0 0 2z"/></g><g><path fill="#c7d7f1" d="M39 170a1 1 0 1 0 0-2 1 1 0 0 0 0 2z"/></g><g><path fill="#c7d7f1" d="M49 170a1 1 0 1 0 0-2 1 1 0 0 0 0 2z"/></g><g><path fill="#c7d7f1" d="M59 170a1 1 0 1 0 0-2 1 1 0 0 0 0 2z"/></g><g><path fill="#c7d7f1" d="M69 170a1 1 0 1 0 0-2 1 1 0 0 0 0 2z"/></g><g><path fill="#c7d7f1" d="M79 170a1 1 0 1 0 0-2 1 1 0 0 0 0 2z"/></g><g><path fill="#c7d7f1" d="M89 170a1 1 0 1 0 0-2 1 1 0 0 0 0 2z"/></g><g><path fill="#c7d7f1" d="M99 170a1 1 0 1 0 0-2 1 1 0 0 0 0 2z"/></g><g><path fill="#c7d7f1" d="M-1 180a1 1 0 1 0 0-2 1 1 0 0 0 0 2z"/></g><g><path fill="#c7d7f1" d="M9 180a1 1 0 1 0 0-2 1 1 0 0 0 0 2z"/></g><g><path fill="#c7d7f1" d="M19 180a1 1 0 1 0 0-2 1 1 0 0 0 0 2z"/></g><g><path fill="#c7d7f1" d="M29 180a1 1 0 1 0 0-2 1 1 0 0 0 0 2z"/></g><g><path fill="#c7d7f1" d="M39 180a1 1 0 1 0 0-2 1 1 0 0 0 0 2z"/></g><g><path fill="#c7d7f1" d="M49 180a1 1 0 1 0 0-2 1 1 0 0 0 0 2z"/></g><g><path fill="#c7d7f1" d="M59 180a1 1 0 1 0 0-2 1 1 0 0 0 0 2z"/></g><g><path fill="#c7d7f1" d="M69 180a1 1 0 1 0 0-2 1 1 0 0 0 0 2z"/></g><g><path fill="#c7d7f1" d="M79 180a1 1 0 1 0 0-2 1 1 0 0 0 0 2z"/></g><g><path fill="#c7d7f1" d="M89 180a1 1 0 1 0 0-2 1 1 0 0 0 0 2z"/></g><g><path fill="#c7d7f1" d="M99 180a1 1 0 1 0 0-2 1 1 0 0 0 0 2z"/></g><g><path fill="#c7d7f1" d="M-1 190a1 1 0 1 0 0-2 1 1 0 0 0 0 2z"/></g><g><path fill="#c7d7f1" d="M9 190a1 1 0 1 0 0-2 1 1 0 0 0 0 2z"/></g><g><path fill="#c7d7f1" d="M19 190a1 1 0 1 0 0-2 1 1 0 0 0 0 2z"/></g><g><path fill="#c7d7f1" d="M29 190a1 1 0 1 0 0-2 1 1 0 0 0 0 2z"/></g><g><path fill="#c7d7f1" d="M39 190a1 1 0 1 0 0-2 1 1 0 0 0 0 2z"/></g><g><path fill="#c7d7f1" d="M49 190a1 1 0 1 0 0-2 1 1 0 0 0 0 2z"/></g><g><path fill="#c7d7f1" d="M59 190a1 1 0 1 0 0-2 1 1 0 0 0 0 2z"/></g><g><path fill="#c7d7f1" d="M69 190a1 1 0 1 0 0-2 1 1 0 0 0 0 2z"/></g><g><path fill="#c7d7f1" d="M79 190a1 1 0 1 0 0-2 1 1 0 0 0 0 2z"/></g><g><path fill="#c7d7f1" d="M89 190a1 1 0 1 0 0-2 1 1 0 0 0 0 2z"/></g><g><path fill="#c7d7f1" d="M99 190a1 1 0 1 0 0-2 1 1 0 0 0 0 2z"/></g><g><path fill="#c7d7f1" d="M-1 200a1 1 0 1 0 0-2 1 1 0 0 0 0 2z"/></g><g><path fill="#c7d7f1" d="M9 200a1 1 0 1 0 0-2 1 1 0 0 0 0 2z"/></g><g><path fill="#c7d7f1" d="M19 200a1 1 0 1 0 0-2 1 1 0 0 0 0 2z"/></g><g><path fill="#c7d7f1" d="M29 200a1 1 0 1 0 0-2 1 1 0 0 0 0 2z"/></g><g><path fill="#c7d7f1" d="M39 200a1 1 0 1 0 0-2 1 1 0 0 0 0 2z"/></g><g><path fill="#c7d7f1" d="M49 200a1 1 0 1 0 0-2 1 1 0 0 0 0 2z"/></g><g><path fill="#c7d7f1" d="M59 200a1 1 0 1 0 0-2 1 1 0 0 0 0 2z"/></g><g><path fill="#c7d7f1" d="M69 200a1 1 0 1 0 0-2 1 1 0 0 0 0 2z"/></g><g><path fill="#c7d7f1" d="M79 200a1 1 0 1 0 0-2 1 1 0 0 0 0 2z"/></g><g><path fill="#c7d7f1" d="M89 200a1 1 0 1 0 0-2 1 1 0 0 0 0 2z"/></g><g><path fill="#c7d7f1" d="M99 200a1 1 0 1 0 0-2 1 1 0 0 0 0 2z"/></g><g><path fill="#c7d7f1" d="M-1 210a1 1 0 1 0 0-2 1 1 0 0 0 0 2z"/></g><g><path fill="#c7d7f1" d="M9 210a1 1 0 1 0 0-2 1 1 0 0 0 0 2z"/></g><g><path fill="#c7d7f1" d="M19 210a1 1 0 1 0 0-2 1 1 0 0 0 0 2z"/></g><g><path fill="#c7d7f1" d="M29 210a1 1 0 1 0 0-2 1 1 0 0 0 0 2z"/></g><g><path fill="#c7d7f1" d="M39 210a1 1 0 1 0 0-2 1 1 0 0 0 0 2z"/></g><g><path fill="#c7d7f1" d="M49 210a1 1 0 1 0 0-2 1 1 0 0 0 0 2z"/></g><g><path fill="#c7d7f1" d="M59 210a1 1 0 1 0 0-2 1 1 0 0 0 0 2z"/></g><g><path fill="#c7d7f1" d="M69 210a1 1 0 1 0 0-2 1 1 0 0 0 0 2z"/></g><g><path fill="#c7d7f1" d="M79 210a1 1 0 1 0 0-2 1 1 0 0 0 0 2z"/></g><g><path fill="#c7d7f1" d="M89 210a1 1 0 1 0 0-2 1 1 0 0 0 0 2z"/></g><g><path fill="#c7d7f1" d="M99 210a1 1 0 1 0 0-2 1 1 0 0 0 0 2z"/></g><g><path fill="#c7d7f1" d="M-1 220a1 1 0 1 0 0-2 1 1 0 0 0 0 2z"/></g><g><path fill="#c7d7f1" d="M9 220a1 1 0 1 0 0-2 1 1 0 0 0 0 2z"/></g><g><path fill="#c7d7f1" d="M19 220a1 1 0 1 0 0-2 1 1 0 0 0 0 2z"/></g><g><path fill="#c7d7f1" d="M29 220a1 1 0 1 0 0-2 1 1 0 0 0 0 2z"/></g><g><path fill="#c7d7f1" d="M39 220a1 1 0 1 0 0-2 1 1 0 0 0 0 2z"/></g><g><path fill="#c7d7f1" d="M49 220a1 1 0 1 0 0-2 1 1 0 0 0 0 2z"/></g><g><path fill="#c7d7f1" d="M59 220a1 1 0 1 0 0-2 1 1 0 0 0 0 2z"/></g><g><path fill="#c7d7f1" d="M69 220a1 1 0 1 0 0-2 1 1 0 0 0 0 2z"/></g><g><path fill="#c7d7f1" d="M79 220a1 1 0 1 0 0-2 1 1 0 0 0 0 2z"/></g><g><path fill="#c7d7f1" d="M89 220a1 1 0 1 0 0-2 1 1 0 0 0 0 2z"/></g><g><path fill="#c7d7f1" d="M99 220a1 1 0 1 0 0-2 1 1 0 0 0 0 2z"/></g><g><path fill="#c7d7f1" d="M-1 230a1 1 0 1 0 0-2 1 1 0 0 0 0 2z"/></g><g><path fill="#c7d7f1" d="M9 230a1 1 0 1 0 0-2 1 1 0 0 0 0 2z"/></g><g><path fill="#c7d7f1" d="M19 230a1 1 0 1 0 0-2 1 1 0 0 0 0 2z"/></g><g><path fill="#c7d7f1" d="M29 230a1 1 0 1 0 0-2 1 1 0 0 0 0 2z"/></g><g><path fill="#c7d7f1" d="M39 230a1 1 0 1 0 0-2 1 1 0 0 0 0 2z"/></g><g><path fill="#c7d7f1" d="M49 230a1 1 0 1 0 0-2 1 1 0 0 0 0 2z"/></g><g><path fill="#c7d7f1" d="M59 230a1 1 0 1 0 0-2 1 1 0 0 0 0 2z"/></g><g><path fill="#c7d7f1" d="M69 230a1 1 0 1 0 0-2 1 1 0 0 0 0 2z"/></g><g><path fill="#c7d7f1" d="M79 230a1 1 0 1 0 0-2 1 1 0 0 0 0 2z"/></g><g><path fill="#c7d7f1" d="M89 230a1 1 0 1 0 0-2 1 1 0 0 0 0 2z"/></g><g><path fill="#c7d7f1" d="M99 230a1 1 0 1 0 0-2 1 1 0 0 0 0 2z"/></g><g><path fill="#c7d7f1" d="M-1 240a1 1 0 1 0 0-2 1 1 0 0 0 0 2z"/></g><g><path fill="#c7d7f1" d="M9 240a1 1 0 1 0 0-2 1 1 0 0 0 0 2z"/></g><g><path fill="#c7d7f1" d="M19 240a1 1 0 1 0 0-2 1 1 0 0 0 0 2z"/></g><g><path fill="#c7d7f1" d="M29 240a1 1 0 1 0 0-2 1 1 0 0 0 0 2z"/></g><g><path fill="#c7d7f1" d="M39 240a1 1 0 1 0 0-2 1 1 0 0 0 0 2z"/></g><g><path fill="#c7d7f1" d="M49 240a1 1 0 1 0 0-2 1 1 0 0 0 0 2z"/></g><g><path fill="#c7d7f1" d="M59 240a1 1 0 1 0 0-2 1 1 0 0 0 0 2z"/></g><g><path fill="#c7d7f1" d="M69 240a1 1 0 1 0 0-2 1 1 0 0 0 0 2z"/></g><g><path fill="#c7d7f1" d="M79 240a1 1 0 1 0 0-2 1 1 0 0 0 0 2z"/></g><g><path fill="#c7d7f1" d="M89 240a1 1 0 1 0 0-2 1 1 0 0 0 0 2z"/></g><g><path fill="#c7d7f1" d="M99 240a1 1 0 1 0 0-2 1 1 0 0 0 0 2z"/></g><g><path fill="#c7d7f1" d="M109 110a1 1 0 1 0 0-2 1 1 0 0 0 0 2z"/></g><g><path fill="#c7d7f1" d="M119 110a1 1 0 1 0 0-2 1 1 0 0 0 0 2z"/></g><g><path fill="#c7d7f1" d="M129 110a1 1 0 1 0 0-2 1 1 0 0 0 0 2z"/></g><g><path fill="#c7d7f1" d="M139 110a1 1 0 1 0 0-2 1 1 0 0 0 0 2z"/></g><g><path fill="#c7d7f1" d="M149 110a1 1 0 1 0 0-2 1 1 0 0 0 0 2z"/></g><g><path fill="#c7d7f1" d="M159 110a1 1 0 1 0 0-2 1 1 0 0 0 0 2z"/></g><g><path fill="#c7d7f1" d="M169 110a1 1 0 1 0 0-2 1 1 0 0 0 0 2z"/></g><g><path fill="#c7d7f1" d="M169 110a1 1 0 1 0 0-2 1 1 0 0 0 0 2z"/></g><g><path fill="#c7d7f1" d="M179 110a1 1 0 1 0 0-2 1 1 0 0 0 0 2z"/></g><g><path fill="#c7d7f1" d="M189 110a1 1 0 1 0 0-2 1 1 0 0 0 0 2z"/></g><g><path fill="#c7d7f1" d="M199 110a1 1 0 1 0 0-2 1 1 0 0 0 0 2z"/></g><g><path fill="#c7d7f1" d="M209 110a1 1 0 1 0 0-2 1 1 0 0 0 0 2z"/></g><g><path fill="#c7d7f1" d="M109 120a1 1 0 1 0 0-2 1 1 0 0 0 0 2z"/></g><g><path fill="#c7d7f1" d="M119 120a1 1 0 1 0 0-2 1 1 0 0 0 0 2z"/></g><g><path fill="#c7d7f1" d="M129 120a1 1 0 1 0 0-2 1 1 0 0 0 0 2z"/></g><g><path fill="#c7d7f1" d="M139 120a1 1 0 1 0 0-2 1 1 0 0 0 0 2z"/></g><g><path fill="#c7d7f1" d="M149 120a1 1 0 1 0 0-2 1 1 0 0 0 0 2z"/></g><g><path fill="#c7d7f1" d="M159 120a1 1 0 1 0 0-2 1 1 0 0 0 0 2z"/></g><g><path fill="#c7d7f1" d="M169 120a1 1 0 1 0 0-2 1 1 0 0 0 0 2z"/></g><g><path fill="#c7d7f1" d="M179 120a1 1 0 1 0 0-2 1 1 0 0 0 0 2z"/></g><g><path fill="#c7d7f1" d="M189 120a1 1 0 1 0 0-2 1 1 0 0 0 0 2z"/></g><g><path fill="#c7d7f1" d="M199 120a1 1 0 1 0 0-2 1 1 0 0 0 0 2z"/></g><g><path fill="#c7d7f1" d="M209 120a1 1 0 1 0 0-2 1 1 0 0 0 0 2z"/></g><g><path fill="#c7d7f1" d="M109 130a1 1 0 1 0 0-2 1 1 0 0 0 0 2z"/></g><g><path fill="#c7d7f1" d="M119 130a1 1 0 1 0 0-2 1 1 0 0 0 0 2z"/></g><g><path fill="#c7d7f1" d="M129 130a1 1 0 1 0 0-2 1 1 0 0 0 0 2z"/></g><g><path fill="#c7d7f1" d="M139 130a1 1 0 1 0 0-2 1 1 0 0 0 0 2z"/></g><g><path fill="#c7d7f1" d="M149 130a1 1 0 1 0 0-2 1 1 0 0 0 0 2z"/></g><g><path fill="#c7d7f1" d="M159 130a1 1 0 1 0 0-2 1 1 0 0 0 0 2z"/></g><g><path fill="#c7d7f1" d="M169 130a1 1 0 1 0 0-2 1 1 0 0 0 0 2z"/></g><g><path fill="#c7d7f1" d="M179 130a1 1 0 1 0 0-2 1 1 0 0 0 0 2z"/></g><g><path fill="#c7d7f1" d="M189 130a1 1 0 1 0 0-2 1 1 0 0 0 0 2z"/></g><g><path fill="#c7d7f1" d="M199 130a1 1 0 1 0 0-2 1 1 0 0 0 0 2z"/></g><g><path fill="#c7d7f1" d="M209 130a1 1 0 1 0 0-2 1 1 0 0 0 0 2z"/></g><g><path fill="#c7d7f1" d="M109 140a1 1 0 1 0 0-2 1 1 0 0 0 0 2z"/></g><g><path fill="#c7d7f1" d="M119 140a1 1 0 1 0 0-2 1 1 0 0 0 0 2z"/></g><g><path fill="#c7d7f1" d="M129 140a1 1 0 1 0 0-2 1 1 0 0 0 0 2z"/></g><g><path fill="#c7d7f1" d="M139 140a1 1 0 1 0 0-2 1 1 0 0 0 0 2z"/></g><g><path fill="#c7d7f1" d="M149 140a1 1 0 1 0 0-2 1 1 0 0 0 0 2z"/></g><g><path fill="#c7d7f1" d="M159 140a1 1 0 1 0 0-2 1 1 0 0 0 0 2z"/></g><g><path fill="#c7d7f1" d="M169 140a1 1 0 1 0 0-2 1 1 0 0 0 0 2z"/></g><g><path fill="#c7d7f1" d="M179 140a1 1 0 1 0 0-2 1 1 0 0 0 0 2z"/></g><g><path fill="#c7d7f1" d="M189 140a1 1 0 1 0 0-2 1 1 0 0 0 0 2z"/></g><g><path fill="#c7d7f1" d="M199 140a1 1 0 1 0 0-2 1 1 0 0 0 0 2z"/></g><g><path fill="#c7d7f1" d="M209 140a1 1 0 1 0 0-2 1 1 0 0 0 0 2z"/></g><g><path fill="#c7d7f1" d="M109 150a1 1 0 1 0 0-2 1 1 0 0 0 0 2z"/></g><g><path fill="#c7d7f1" d="M119 150a1 1 0 1 0 0-2 1 1 0 0 0 0 2z"/></g><g><path fill="#c7d7f1" d="M129 150a1 1 0 1 0 0-2 1 1 0 0 0 0 2z"/></g><g><path fill="#c7d7f1" d="M139 150a1 1 0 1 0 0-2 1 1 0 0 0 0 2z"/></g><g><path fill="#c7d7f1" d="M149 150a1 1 0 1 0 0-2 1 1 0 0 0 0 2z"/></g><g><path fill="#c7d7f1" d="M159 150a1 1 0 1 0 0-2 1 1 0 0 0 0 2z"/></g><g><path fill="#c7d7f1" d="M169 150a1 1 0 1 0 0-2 1 1 0 0 0 0 2z"/></g><g><path fill="#c7d7f1" d="M179 150a1 1 0 1 0 0-2 1 1 0 0 0 0 2z"/></g><g><path fill="#c7d7f1" d="M189 150a1 1 0 1 0 0-2 1 1 0 0 0 0 2z"/></g><g><path fill="#c7d7f1" d="M199 150a1 1 0 1 0 0-2 1 1 0 0 0 0 2z"/></g><g><path fill="#c7d7f1" d="M209 150a1 1 0 1 0 0-2 1 1 0 0 0 0 2z"/></g><g><path fill="#c7d7f1" d="M109 160a1 1 0 1 0 0-2 1 1 0 0 0 0 2z"/></g><g><path fill="#c7d7f1" d="M119 160a1 1 0 1 0 0-2 1 1 0 0 0 0 2z"/></g><g><path fill="#c7d7f1" d="M129 160a1 1 0 1 0 0-2 1 1 0 0 0 0 2z"/></g><g><path fill="#c7d7f1" d="M139 160a1 1 0 1 0 0-2 1 1 0 0 0 0 2z"/></g><g><path fill="#c7d7f1" d="M149 160a1 1 0 1 0 0-2 1 1 0 0 0 0 2z"/></g><g><path fill="#c7d7f1" d="M159 160a1 1 0 1 0 0-2 1 1 0 0 0 0 2z"/></g><g><path fill="#c7d7f1" d="M169 160a1 1 0 1 0 0-2 1 1 0 0 0 0 2z"/></g><g><path fill="#c7d7f1" d="M179 160a1 1 0 1 0 0-2 1 1 0 0 0 0 2z"/></g><g><path fill="#c7d7f1" d="M189 160a1 1 0 1 0 0-2 1 1 0 0 0 0 2z"/></g><g><path fill="#c7d7f1" d="M199 160a1 1 0 1 0 0-2 1 1 0 0 0 0 2z"/></g><g><path fill="#c7d7f1" d="M209 160a1 1 0 1 0 0-2 1 1 0 0 0 0 2z"/></g><g><path fill="#c7d7f1" d="M109 170a1 1 0 1 0 0-2 1 1 0 0 0 0 2z"/></g><g><path fill="#c7d7f1" d="M119 170a1 1 0 1 0 0-2 1 1 0 0 0 0 2z"/></g><g><path fill="#c7d7f1" d="M129 170a1 1 0 1 0 0-2 1 1 0 0 0 0 2z"/></g><g><path fill="#c7d7f1" d="M139 170a1 1 0 1 0 0-2 1 1 0 0 0 0 2z"/></g><g><path fill="#c7d7f1" d="M149 170a1 1 0 1 0 0-2 1 1 0 0 0 0 2z"/></g><g><path fill="#c7d7f1" d="M159 170a1 1 0 1 0 0-2 1 1 0 0 0 0 2z"/></g><g><path fill="#c7d7f1" d="M169 170a1 1 0 1 0 0-2 1 1 0 0 0 0 2z"/></g><g><path fill="#c7d7f1" d="M179 170a1 1 0 1 0 0-2 1 1 0 0 0 0 2z"/></g><g><path fill="#c7d7f1" d="M189 170a1 1 0 1 0 0-2 1 1 0 0 0 0 2z"/></g><g><path fill="#c7d7f1" d="M199 170a1 1 0 1 0 0-2 1 1 0 0 0 0 2z"/></g><g><path fill="#c7d7f1" d="M209 170a1 1 0 1 0 0-2 1 1 0 0 0 0 2z"/></g><g><path fill="#c7d7f1" d="M109 180a1 1 0 1 0 0-2 1 1 0 0 0 0 2z"/></g><g><path fill="#c7d7f1" d="M119 180a1 1 0 1 0 0-2 1 1 0 0 0 0 2z"/></g><g><path fill="#c7d7f1" d="M129 180a1 1 0 1 0 0-2 1 1 0 0 0 0 2z"/></g><g><path fill="#c7d7f1" d="M139 180a1 1 0 1 0 0-2 1 1 0 0 0 0 2z"/></g><g><path fill="#c7d7f1" d="M149 180a1 1 0 1 0 0-2 1 1 0 0 0 0 2z"/></g><g><path fill="#c7d7f1" d="M159 180a1 1 0 1 0 0-2 1 1 0 0 0 0 2z"/></g><g><path fill="#c7d7f1" d="M169 180a1 1 0 1 0 0-2 1 1 0 0 0 0 2z"/></g><g><path fill="#c7d7f1" d="M179 180a1 1 0 1 0 0-2 1 1 0 0 0 0 2z"/></g><g><path fill="#c7d7f1" d="M189 180a1 1 0 1 0 0-2 1 1 0 0 0 0 2z"/></g><g><path fill="#c7d7f1" d="M199 180a1 1 0 1 0 0-2 1 1 0 0 0 0 2z"/></g><g><path fill="#c7d7f1" d="M209 180a1 1 0 1 0 0-2 1 1 0 0 0 0 2z"/></g><g><path fill="#c7d7f1" d="M109 190a1 1 0 1 0 0-2 1 1 0 0 0 0 2z"/></g><g><path fill="#c7d7f1" d="M119 190a1 1 0 1 0 0-2 1 1 0 0 0 0 2z"/></g><g><path fill="#c7d7f1" d="M129 190a1 1 0 1 0 0-2 1 1 0 0 0 0 2z"/></g><g><path fill="#c7d7f1" d="M139 190a1 1 0 1 0 0-2 1 1 0 0 0 0 2z"/></g><g><path fill="#c7d7f1" d="M149 190a1 1 0 1 0 0-2 1 1 0 0 0 0 2z"/></g><g><path fill="#c7d7f1" d="M159 190a1 1 0 1 0 0-2 1 1 0 0 0 0 2z"/></g><g><path fill="#c7d7f1" d="M169 190a1 1 0 1 0 0-2 1 1 0 0 0 0 2z"/></g><g><path fill="#c7d7f1" d="M179 190a1 1 0 1 0 0-2 1 1 0 0 0 0 2z"/></g><g><path fill="#c7d7f1" d="M189 190a1 1 0 1 0 0-2 1 1 0 0 0 0 2z"/></g><g><path fill="#c7d7f1" d="M199 190a1 1 0 1 0 0-2 1 1 0 0 0 0 2z"/></g><g><path fill="#c7d7f1" d="M209 190a1 1 0 1 0 0-2 1 1 0 0 0 0 2z"/></g><g><path fill="#c7d7f1" d="M109 200a1 1 0 1 0 0-2 1 1 0 0 0 0 2z"/></g><g><path fill="#c7d7f1" d="M119 200a1 1 0 1 0 0-2 1 1 0 0 0 0 2z"/></g><g><path fill="#c7d7f1" d="M129 200a1 1 0 1 0 0-2 1 1 0 0 0 0 2z"/></g><g><path fill="#c7d7f1" d="M139 200a1 1 0 1 0 0-2 1 1 0 0 0 0 2z"/></g><g><path fill="#c7d7f1" d="M149 200a1 1 0 1 0 0-2 1 1 0 0 0 0 2z"/></g><g><path fill="#c7d7f1" d="M159 200a1 1 0 1 0 0-2 1 1 0 0 0 0 2z"/></g><g><path fill="#c7d7f1" d="M169 200a1 1 0 1 0 0-2 1 1 0 0 0 0 2z"/></g><g><path fill="#c7d7f1" d="M179 200a1 1 0 1 0 0-2 1 1 0 0 0 0 2z"/></g><g><path fill="#c7d7f1" d="M189 200a1 1 0 1 0 0-2 1 1 0 0 0 0 2z"/></g><g><path fill="#c7d7f1" d="M199 200a1 1 0 1 0 0-2 1 1 0 0 0 0 2z"/></g><g><path fill="#c7d7f1" d="M209 200a1 1 0 1 0 0-2 1 1 0 0 0 0 2z"/></g><g><path fill="#c7d7f1" d="M109 210a1 1 0 1 0 0-2 1 1 0 0 0 0 2z"/></g><g><path fill="#c7d7f1" d="M119 210a1 1 0 1 0 0-2 1 1 0 0 0 0 2z"/></g><g><path fill="#c7d7f1" d="M129 210a1 1 0 1 0 0-2 1 1 0 0 0 0 2z"/></g><g><path fill="#c7d7f1" d="M139 210a1 1 0 1 0 0-2 1 1 0 0 0 0 2z"/></g><g><path fill="#c7d7f1" d="M149 210a1 1 0 1 0 0-2 1 1 0 0 0 0 2z"/></g><g><path fill="#c7d7f1" d="M159 210a1 1 0 1 0 0-2 1 1 0 0 0 0 2z"/></g><g><path fill="#c7d7f1" d="M169 210a1 1 0 1 0 0-2 1 1 0 0 0 0 2z"/></g><g><path fill="#c7d7f1" d="M179 210a1 1 0 1 0 0-2 1 1 0 0 0 0 2z"/></g><g><path fill="#c7d7f1" d="M189 210a1 1 0 1 0 0-2 1 1 0 0 0 0 2z"/></g><g><path fill="#c7d7f1" d="M199 210a1 1 0 1 0 0-2 1 1 0 0 0 0 2z"/></g><g><path fill="#c7d7f1" d="M209 210a1 1 0 1 0 0-2 1 1 0 0 0 0 2z"/></g><g><path fill="#c7d7f1" d="M109 220a1 1 0 1 0 0-2 1 1 0 0 0 0 2z"/></g><g><path fill="#c7d7f1" d="M119 220a1 1 0 1 0 0-2 1 1 0 0 0 0 2z"/></g><g><path fill="#c7d7f1" d="M129 220a1 1 0 1 0 0-2 1 1 0 0 0 0 2z"/></g><g><path fill="#c7d7f1" d="M139 220a1 1 0 1 0 0-2 1 1 0 0 0 0 2z"/></g><g><path fill="#c7d7f1" d="M149 220a1 1 0 1 0 0-2 1 1 0 0 0 0 2z"/></g><g><path fill="#c7d7f1" d="M159 220a1 1 0 1 0 0-2 1 1 0 0 0 0 2z"/></g><g><path fill="#c7d7f1" d="M169 220a1 1 0 1 0 0-2 1 1 0 0 0 0 2z"/></g><g><path fill="#c7d7f1" d="M179 220a1 1 0 1 0 0-2 1 1 0 0 0 0 2z"/></g><g><path fill="#c7d7f1" d="M189 220a1 1 0 1 0 0-2 1 1 0 0 0 0 2z"/></g><g><path fill="#c7d7f1" d="M199 220a1 1 0 1 0 0-2 1 1 0 0 0 0 2z"/></g><g><path fill="#c7d7f1" d="M209 220a1 1 0 1 0 0-2 1 1 0 0 0 0 2z"/></g><g><path fill="#c7d7f1" d="M109 230a1 1 0 1 0 0-2 1 1 0 0 0 0 2z"/></g><g><path fill="#c7d7f1" d="M119 230a1 1 0 1 0 0-2 1 1 0 0 0 0 2z"/></g><g><path fill="#c7d7f1" d="M129 230a1 1 0 1 0 0-2 1 1 0 0 0 0 2z"/></g><g><path fill="#c7d7f1" d="M139 230a1 1 0 1 0 0-2 1 1 0 0 0 0 2z"/></g><g><path fill="#c7d7f1" d="M149 230a1 1 0 1 0 0-2 1 1 0 0 0 0 2z"/></g><g><path fill="#c7d7f1" d="M159 230a1 1 0 1 0 0-2 1 1 0 0 0 0 2z"/></g><g><path fill="#c7d7f1" d="M169 230a1 1 0 1 0 0-2 1 1 0 0 0 0 2z"/></g><g><path fill="#c7d7f1" d="M179 230a1 1 0 1 0 0-2 1 1 0 0 0 0 2z"/></g><g><path fill="#c7d7f1" d="M189 230a1 1 0 1 0 0-2 1 1 0 0 0 0 2z"/></g><g><path fill="#c7d7f1" d="M199 230a1 1 0 1 0 0-2 1 1 0 0 0 0 2z"/></g><g><path fill="#c7d7f1" d="M209 230a1 1 0 1 0 0-2 1 1 0 0 0 0 2z"/></g><g><path fill="#c7d7f1" d="M109 240a1 1 0 1 0 0-2 1 1 0 0 0 0 2z"/></g><g><path fill="#c7d7f1" d="M119 240a1 1 0 1 0 0-2 1 1 0 0 0 0 2z"/></g><g><path fill="#c7d7f1" d="M129 240a1 1 0 1 0 0-2 1 1 0 0 0 0 2z"/></g><g><path fill="#c7d7f1" d="M139 240a1 1 0 1 0 0-2 1 1 0 0 0 0 2z"/></g><g><path fill="#c7d7f1" d="M149 240a1 1 0 1 0 0-2 1 1 0 0 0 0 2z"/></g><g><path fill="#c7d7f1" d="M159 240a1 1 0 1 0 0-2 1 1 0 0 0 0 2z"/></g><g><path fill="#c7d7f1" d="M169 240a1 1 0 1 0 0-2 1 1 0 0 0 0 2z"/></g><g><path fill="#c7d7f1" d="M179 240a1 1 0 1 0 0-2 1 1 0 0 0 0 2z"/></g><g><path fill="#c7d7f1" d="M189 240a1 1 0 1 0 0-2 1 1 0 0 0 0 2z"/></g><g><path fill="#c7d7f1" d="M199 240a1 1 0 1 0 0-2 1 1 0 0 0 0 2z"/></g><g><path fill="#c7d7f1" d="M209 240a1 1 0 1 0 0-2 1 1 0 0 0 0 2z"/></g><g><path fill="#c7d7f1" d="M179 110a1 1 0 1 0 0-2 1 1 0 0 0 0 2z"/></g><g><path fill="#c7d7f1" d="M189 110a1 1 0 1 0 0-2 1 1 0 0 0 0 2z"/></g><g><path fill="#c7d7f1" d="M199 110a1 1 0 1 0 0-2 1 1 0 0 0 0 2z"/></g><g><path fill="#c7d7f1" d="M209 110a1 1 0 1 0 0-2 1 1 0 0 0 0 2z"/></g><g><path fill="#c7d7f1" d="M219 110a1 1 0 1 0 0-2 1 1 0 0 0 0 2z"/></g><g><path fill="#c7d7f1" d="M229 110a1 1 0 1 0 0-2 1 1 0 0 0 0 2z"/></g><g><path fill="#c7d7f1" d="M239 110a1 1 0 1 0 0-2 1 1 0 0 0 0 2z"/></g><g><path fill="#c7d7f1" d="M239 110a1 1 0 1 0 0-2 1 1 0 0 0 0 2z"/></g><g><path fill="#c7d7f1" d="M249 110a1 1 0 1 0 0-2 1 1 0 0 0 0 2z"/></g><g><path fill="#c7d7f1" d="M259 110a1 1 0 1 0 0-2 1 1 0 0 0 0 2z"/></g><g><path fill="#c7d7f1" d="M269 110a1 1 0 1 0 0-2 1 1 0 0 0 0 2z"/></g><g><path fill="#c7d7f1" d="M279 110a1 1 0 1 0 0-2 1 1 0 0 0 0 2z"/></g><g><path fill="#c7d7f1" d="M179 120a1 1 0 1 0 0-2 1 1 0 0 0 0 2z"/></g><g><path fill="#c7d7f1" d="M189 120a1 1 0 1 0 0-2 1 1 0 0 0 0 2z"/></g><g><path fill="#c7d7f1" d="M199 120a1 1 0 1 0 0-2 1 1 0 0 0 0 2z"/></g><g><path fill="#c7d7f1" d="M209 120a1 1 0 1 0 0-2 1 1 0 0 0 0 2z"/></g><g><path fill="#c7d7f1" d="M219 120a1 1 0 1 0 0-2 1 1 0 0 0 0 2z"/></g><g><path fill="#c7d7f1" d="M229 120a1 1 0 1 0 0-2 1 1 0 0 0 0 2z"/></g><g><path fill="#c7d7f1" d="M239 120a1 1 0 1 0 0-2 1 1 0 0 0 0 2z"/></g><g><path fill="#c7d7f1" d="M249 120a1 1 0 1 0 0-2 1 1 0 0 0 0 2z"/></g><g><path fill="#c7d7f1" d="M259 120a1 1 0 1 0 0-2 1 1 0 0 0 0 2z"/></g><g><path fill="#c7d7f1" d="M269 120a1 1 0 1 0 0-2 1 1 0 0 0 0 2z"/></g><g><path fill="#c7d7f1" d="M279 120a1 1 0 1 0 0-2 1 1 0 0 0 0 2z"/></g><g><path fill="#c7d7f1" d="M179 130a1 1 0 1 0 0-2 1 1 0 0 0 0 2z"/></g><g><path fill="#c7d7f1" d="M189 130a1 1 0 1 0 0-2 1 1 0 0 0 0 2z"/></g><g><path fill="#c7d7f1" d="M199 130a1 1 0 1 0 0-2 1 1 0 0 0 0 2z"/></g><g><path fill="#c7d7f1" d="M209 130a1 1 0 1 0 0-2 1 1 0 0 0 0 2z"/></g><g><path fill="#c7d7f1" d="M219 130a1 1 0 1 0 0-2 1 1 0 0 0 0 2z"/></g><g><path fill="#c7d7f1" d="M229 130a1 1 0 1 0 0-2 1 1 0 0 0 0 2z"/></g><g><path fill="#c7d7f1" d="M239 130a1 1 0 1 0 0-2 1 1 0 0 0 0 2z"/></g><g><path fill="#c7d7f1" d="M249 130a1 1 0 1 0 0-2 1 1 0 0 0 0 2z"/></g><g><path fill="#c7d7f1" d="M259 130a1 1 0 1 0 0-2 1 1 0 0 0 0 2z"/></g><g><path fill="#c7d7f1" d="M269 130a1 1 0 1 0 0-2 1 1 0 0 0 0 2z"/></g><g><path fill="#c7d7f1" d="M279 130a1 1 0 1 0 0-2 1 1 0 0 0 0 2z"/></g><g><path fill="#c7d7f1" d="M179 140a1 1 0 1 0 0-2 1 1 0 0 0 0 2z"/></g><g><path fill="#c7d7f1" d="M189 140a1 1 0 1 0 0-2 1 1 0 0 0 0 2z"/></g><g><path fill="#c7d7f1" d="M199 140a1 1 0 1 0 0-2 1 1 0 0 0 0 2z"/></g><g><path fill="#c7d7f1" d="M209 140a1 1 0 1 0 0-2 1 1 0 0 0 0 2z"/></g><g><path fill="#c7d7f1" d="M219 140a1 1 0 1 0 0-2 1 1 0 0 0 0 2z"/></g><g><path fill="#c7d7f1" d="M229 140a1 1 0 1 0 0-2 1 1 0 0 0 0 2z"/></g><g><path fill="#c7d7f1" d="M239 140a1 1 0 1 0 0-2 1 1 0 0 0 0 2z"/></g><g><path fill="#c7d7f1" d="M249 140a1 1 0 1 0 0-2 1 1 0 0 0 0 2z"/></g><g><path fill="#c7d7f1" d="M259 140a1 1 0 1 0 0-2 1 1 0 0 0 0 2z"/></g><g><path fill="#c7d7f1" d="M269 140a1 1 0 1 0 0-2 1 1 0 0 0 0 2z"/></g><g><path fill="#c7d7f1" d="M279 140a1 1 0 1 0 0-2 1 1 0 0 0 0 2z"/></g><g><path fill="#c7d7f1" d="M179 150a1 1 0 1 0 0-2 1 1 0 0 0 0 2z"/></g><g><path fill="#c7d7f1" d="M189 150a1 1 0 1 0 0-2 1 1 0 0 0 0 2z"/></g><g><path fill="#c7d7f1" d="M199 150a1 1 0 1 0 0-2 1 1 0 0 0 0 2z"/></g><g><path fill="#c7d7f1" d="M209 150a1 1 0 1 0 0-2 1 1 0 0 0 0 2z"/></g><g><path fill="#c7d7f1" d="M219 150a1 1 0 1 0 0-2 1 1 0 0 0 0 2z"/></g><g><path fill="#c7d7f1" d="M229 150a1 1 0 1 0 0-2 1 1 0 0 0 0 2z"/></g><g><path fill="#c7d7f1" d="M239 150a1 1 0 1 0 0-2 1 1 0 0 0 0 2z"/></g><g><path fill="#c7d7f1" d="M249 150a1 1 0 1 0 0-2 1 1 0 0 0 0 2z"/></g><g><path fill="#c7d7f1" d="M259 150a1 1 0 1 0 0-2 1 1 0 0 0 0 2z"/></g><g><path fill="#c7d7f1" d="M269 150a1 1 0 1 0 0-2 1 1 0 0 0 0 2z"/></g><g><path fill="#c7d7f1" d="M279 150a1 1 0 1 0 0-2 1 1 0 0 0 0 2z"/></g><g><path fill="#c7d7f1" d="M179 160a1 1 0 1 0 0-2 1 1 0 0 0 0 2z"/></g><g><path fill="#c7d7f1" d="M189 160a1 1 0 1 0 0-2 1 1 0 0 0 0 2z"/></g><g><path fill="#c7d7f1" d="M199 160a1 1 0 1 0 0-2 1 1 0 0 0 0 2z"/></g><g><path fill="#c7d7f1" d="M209 160a1 1 0 1 0 0-2 1 1 0 0 0 0 2z"/></g><g><path fill="#c7d7f1" d="M219 160a1 1 0 1 0 0-2 1 1 0 0 0 0 2z"/></g><g><path fill="#c7d7f1" d="M229 160a1 1 0 1 0 0-2 1 1 0 0 0 0 2z"/></g><g><path fill="#c7d7f1" d="M239 160a1 1 0 1 0 0-2 1 1 0 0 0 0 2z"/></g><g><path fill="#c7d7f1" d="M249 160a1 1 0 1 0 0-2 1 1 0 0 0 0 2z"/></g><g><path fill="#c7d7f1" d="M259 160a1 1 0 1 0 0-2 1 1 0 0 0 0 2z"/></g><g><path fill="#c7d7f1" d="M269 160a1 1 0 1 0 0-2 1 1 0 0 0 0 2z"/></g><g><path fill="#c7d7f1" d="M279 160a1 1 0 1 0 0-2 1 1 0 0 0 0 2z"/></g><g><path fill="#c7d7f1" d="M179 170a1 1 0 1 0 0-2 1 1 0 0 0 0 2z"/></g><g><path fill="#c7d7f1" d="M189 170a1 1 0 1 0 0-2 1 1 0 0 0 0 2z"/></g><g><path fill="#c7d7f1" d="M199 170a1 1 0 1 0 0-2 1 1 0 0 0 0 2z"/></g><g><path fill="#c7d7f1" d="M209 170a1 1 0 1 0 0-2 1 1 0 0 0 0 2z"/></g><g><path fill="#c7d7f1" d="M219 170a1 1 0 1 0 0-2 1 1 0 0 0 0 2z"/></g><g><path fill="#c7d7f1" d="M229 170a1 1 0 1 0 0-2 1 1 0 0 0 0 2z"/></g><g><path fill="#c7d7f1" d="M239 170a1 1 0 1 0 0-2 1 1 0 0 0 0 2z"/></g><g><path fill="#c7d7f1" d="M249 170a1 1 0 1 0 0-2 1 1 0 0 0 0 2z"/></g><g><path fill="#c7d7f1" d="M259 170a1 1 0 1 0 0-2 1 1 0 0 0 0 2z"/></g><g><path fill="#c7d7f1" d="M269 170a1 1 0 1 0 0-2 1 1 0 0 0 0 2z"/></g><g><path fill="#c7d7f1" d="M279 170a1 1 0 1 0 0-2 1 1 0 0 0 0 2z"/></g><g><path fill="#c7d7f1" d="M179 180a1 1 0 1 0 0-2 1 1 0 0 0 0 2z"/></g><g><path fill="#c7d7f1" d="M189 180a1 1 0 1 0 0-2 1 1 0 0 0 0 2z"/></g><g><path fill="#c7d7f1" d="M199 180a1 1 0 1 0 0-2 1 1 0 0 0 0 2z"/></g><g><path fill="#c7d7f1" d="M209 180a1 1 0 1 0 0-2 1 1 0 0 0 0 2z"/></g><g><path fill="#c7d7f1" d="M219 180a1 1 0 1 0 0-2 1 1 0 0 0 0 2z"/></g><g><path fill="#c7d7f1" d="M229 180a1 1 0 1 0 0-2 1 1 0 0 0 0 2z"/></g><g><path fill="#c7d7f1" d="M239 180a1 1 0 1 0 0-2 1 1 0 0 0 0 2z"/></g><g><path fill="#c7d7f1" d="M249 180a1 1 0 1 0 0-2 1 1 0 0 0 0 2z"/></g><g><path fill="#c7d7f1" d="M259 180a1 1 0 1 0 0-2 1 1 0 0 0 0 2z"/></g><g><path fill="#c7d7f1" d="M269 180a1 1 0 1 0 0-2 1 1 0 0 0 0 2z"/></g><g><path fill="#c7d7f1" d="M279 180a1 1 0 1 0 0-2 1 1 0 0 0 0 2z"/></g><g><path fill="#c7d7f1" d="M179 190a1 1 0 1 0 0-2 1 1 0 0 0 0 2z"/></g><g><path fill="#c7d7f1" d="M189 190a1 1 0 1 0 0-2 1 1 0 0 0 0 2z"/></g><g><path fill="#c7d7f1" d="M199 190a1 1 0 1 0 0-2 1 1 0 0 0 0 2z"/></g><g><path fill="#c7d7f1" d="M209 190a1 1 0 1 0 0-2 1 1 0 0 0 0 2z"/></g><g><path fill="#c7d7f1" d="M219 190a1 1 0 1 0 0-2 1 1 0 0 0 0 2z"/></g><g><path fill="#c7d7f1" d="M229 190a1 1 0 1 0 0-2 1 1 0 0 0 0 2z"/></g><g><path fill="#c7d7f1" d="M239 190a1 1 0 1 0 0-2 1 1 0 0 0 0 2z"/></g><g><path fill="#c7d7f1" d="M249 190a1 1 0 1 0 0-2 1 1 0 0 0 0 2z"/></g><g><path fill="#c7d7f1" d="M259 190a1 1 0 1 0 0-2 1 1 0 0 0 0 2z"/></g><g><path fill="#c7d7f1" d="M269 190a1 1 0 1 0 0-2 1 1 0 0 0 0 2z"/></g><g><path fill="#c7d7f1" d="M279 190a1 1 0 1 0 0-2 1 1 0 0 0 0 2z"/></g><g><path fill="#c7d7f1" d="M179 200a1 1 0 1 0 0-2 1 1 0 0 0 0 2z"/></g><g><path fill="#c7d7f1" d="M189 200a1 1 0 1 0 0-2 1 1 0 0 0 0 2z"/></g><g><path fill="#c7d7f1" d="M199 200a1 1 0 1 0 0-2 1 1 0 0 0 0 2z"/></g><g><path fill="#c7d7f1" d="M209 200a1 1 0 1 0 0-2 1 1 0 0 0 0 2z"/></g><g><path fill="#c7d7f1" d="M219 200a1 1 0 1 0 0-2 1 1 0 0 0 0 2z"/></g><g><path fill="#c7d7f1" d="M229 200a1 1 0 1 0 0-2 1 1 0 0 0 0 2z"/></g><g><path fill="#c7d7f1" d="M239 200a1 1 0 1 0 0-2 1 1 0 0 0 0 2z"/></g><g><path fill="#c7d7f1" d="M249 200a1 1 0 1 0 0-2 1 1 0 0 0 0 2z"/></g><g><path fill="#c7d7f1" d="M259 200a1 1 0 1 0 0-2 1 1 0 0 0 0 2z"/></g><g><path fill="#c7d7f1" d="M269 200a1 1 0 1 0 0-2 1 1 0 0 0 0 2z"/></g><g><path fill="#c7d7f1" d="M279 200a1 1 0 1 0 0-2 1 1 0 0 0 0 2z"/></g><g><path fill="#c7d7f1" d="M179 210a1 1 0 1 0 0-2 1 1 0 0 0 0 2z"/></g><g><path fill="#c7d7f1" d="M189 210a1 1 0 1 0 0-2 1 1 0 0 0 0 2z"/></g><g><path fill="#c7d7f1" d="M199 210a1 1 0 1 0 0-2 1 1 0 0 0 0 2z"/></g><g><path fill="#c7d7f1" d="M209 210a1 1 0 1 0 0-2 1 1 0 0 0 0 2z"/></g><g><path fill="#c7d7f1" d="M219 210a1 1 0 1 0 0-2 1 1 0 0 0 0 2z"/></g><g><path fill="#c7d7f1" d="M229 210a1 1 0 1 0 0-2 1 1 0 0 0 0 2z"/></g><g><path fill="#c7d7f1" d="M239 210a1 1 0 1 0 0-2 1 1 0 0 0 0 2z"/></g><g><path fill="#c7d7f1" d="M249 210a1 1 0 1 0 0-2 1 1 0 0 0 0 2z"/></g><g><path fill="#c7d7f1" d="M259 210a1 1 0 1 0 0-2 1 1 0 0 0 0 2z"/></g><g><path fill="#c7d7f1" d="M269 210a1 1 0 1 0 0-2 1 1 0 0 0 0 2z"/></g><g><path fill="#c7d7f1" d="M279 210a1 1 0 1 0 0-2 1 1 0 0 0 0 2z"/></g><g><path fill="#c7d7f1" d="M179 220a1 1 0 1 0 0-2 1 1 0 0 0 0 2z"/></g><g><path fill="#c7d7f1" d="M189 220a1 1 0 1 0 0-2 1 1 0 0 0 0 2z"/></g><g><path fill="#c7d7f1" d="M199 220a1 1 0 1 0 0-2 1 1 0 0 0 0 2z"/></g><g><path fill="#c7d7f1" d="M209 220a1 1 0 1 0 0-2 1 1 0 0 0 0 2z"/></g><g><path fill="#c7d7f1" d="M219 220a1 1 0 1 0 0-2 1 1 0 0 0 0 2z"/></g><g><path fill="#c7d7f1" d="M229 220a1 1 0 1 0 0-2 1 1 0 0 0 0 2z"/></g><g><path fill="#c7d7f1" d="M239 220a1 1 0 1 0 0-2 1 1 0 0 0 0 2z"/></g><g><path fill="#c7d7f1" d="M249 220a1 1 0 1 0 0-2 1 1 0 0 0 0 2z"/></g><g><path fill="#c7d7f1" d="M259 220a1 1 0 1 0 0-2 1 1 0 0 0 0 2z"/></g><g><path fill="#c7d7f1" d="M269 220a1 1 0 1 0 0-2 1 1 0 0 0 0 2z"/></g><g><path fill="#c7d7f1" d="M279 220a1 1 0 1 0 0-2 1 1 0 0 0 0 2z"/></g><g><path fill="#c7d7f1" d="M179 230a1 1 0 1 0 0-2 1 1 0 0 0 0 2z"/></g><g><path fill="#c7d7f1" d="M189 230a1 1 0 1 0 0-2 1 1 0 0 0 0 2z"/></g><g><path fill="#c7d7f1" d="M199 230a1 1 0 1 0 0-2 1 1 0 0 0 0 2z"/></g><g><path fill="#c7d7f1" d="M209 230a1 1 0 1 0 0-2 1 1 0 0 0 0 2z"/></g><g><path fill="#c7d7f1" d="M219 230a1 1 0 1 0 0-2 1 1 0 0 0 0 2z"/></g><g><path fill="#c7d7f1" d="M229 230a1 1 0 1 0 0-2 1 1 0 0 0 0 2z"/></g><g><path fill="#c7d7f1" d="M239 230a1 1 0 1 0 0-2 1 1 0 0 0 0 2z"/></g><g><path fill="#c7d7f1" d="M249 230a1 1 0 1 0 0-2 1 1 0 0 0 0 2z"/></g><g><path fill="#c7d7f1" d="M259 230a1 1 0 1 0 0-2 1 1 0 0 0 0 2z"/></g><g><path fill="#c7d7f1" d="M269 230a1 1 0 1 0 0-2 1 1 0 0 0 0 2z"/></g><g><path fill="#c7d7f1" d="M279 230a1 1 0 1 0 0-2 1 1 0 0 0 0 2z"/></g><g><path fill="#c7d7f1" d="M179 240a1 1 0 1 0 0-2 1 1 0 0 0 0 2z"/></g><g><path fill="#c7d7f1" d="M189 240a1 1 0 1 0 0-2 1 1 0 0 0 0 2z"/></g><g><path fill="#c7d7f1" d="M199 240a1 1 0 1 0 0-2 1 1 0 0 0 0 2z"/></g><g><path fill="#c7d7f1" d="M209 240a1 1 0 1 0 0-2 1 1 0 0 0 0 2z"/></g><g><path fill="#c7d7f1" d="M219 240a1 1 0 1 0 0-2 1 1 0 0 0 0 2z"/></g><g><path fill="#c7d7f1" d="M229 240a1 1 0 1 0 0-2 1 1 0 0 0 0 2z"/></g><g><path fill="#c7d7f1" d="M239 240a1 1 0 1 0 0-2 1 1 0 0 0 0 2z"/></g><g><path fill="#c7d7f1" d="M249 240a1 1 0 1 0 0-2 1 1 0 0 0 0 2z"/></g><g><path fill="#c7d7f1" d="M259 240a1 1 0 1 0 0-2 1 1 0 0 0 0 2z"/></g><g><path fill="#c7d7f1" d="M269 240a1 1 0 1 0 0-2 1 1 0 0 0 0 2z"/></g><g><path fill="#c7d7f1" d="M279 240a1 1 0 1 0 0-2 1 1 0 0 0 0 2z"/></g></g></g></g></svg>