<?xml version="1.0" encoding="UTF-8"?>
<svg width="282px" height="135px" viewBox="0 0 282 135" version="1.1" xmlns="http://www.w3.org/2000/svg" xmlns:xlink="http://www.w3.org/1999/xlink">
    <!-- Generator: Sketch 58 (84663) - https://sketch.com -->
    <title>dots</title>
    <desc>Created with Sketch.</desc>
    <g id="Page-1" stroke="none" stroke-width="1" fill="none" fill-rule="evenodd">
        <g id="Artboard" transform="translate(-66.000000, -98.000000)" fill="#749CDB">
            <g id="dots" transform="translate(55.000000, 85.000000)">
                <g transform="translate(11.000000, 14.000000)" id="Oval">
                    <circle cx="1" cy="1" r="1"></circle>
                    <circle cx="11" cy="1" r="1"></circle>
                    <circle cx="21" cy="1" r="1"></circle>
                    <circle cx="31" cy="1" r="1"></circle>
                    <circle cx="41" cy="1" r="1"></circle>
                    <circle cx="51" cy="1" r="1"></circle>
                    <circle cx="61" cy="1" r="1"></circle>
                    <circle cx="61" cy="1" r="1"></circle>
                    <circle cx="71" cy="1" r="1"></circle>
                    <circle cx="81" cy="1" r="1"></circle>
                    <circle cx="91" cy="1" r="1"></circle>
                    <circle cx="101" cy="1" r="1"></circle>
                    <circle cx="1" cy="11" r="1"></circle>
                    <circle cx="11" cy="11" r="1"></circle>
                    <circle cx="21" cy="11" r="1"></circle>
                    <circle cx="31" cy="11" r="1"></circle>
                    <circle cx="41" cy="11" r="1"></circle>
                    <circle cx="51" cy="11" r="1"></circle>
                    <circle cx="61" cy="11" r="1"></circle>
                    <circle cx="71" cy="11" r="1"></circle>
                    <circle cx="81" cy="11" r="1"></circle>
                    <circle cx="91" cy="11" r="1"></circle>
                    <circle cx="101" cy="11" r="1"></circle>
                    <circle cx="1" cy="21" r="1"></circle>
                    <circle cx="11" cy="21" r="1"></circle>
                    <circle cx="21" cy="21" r="1"></circle>
                    <circle cx="31" cy="21" r="1"></circle>
                    <circle cx="41" cy="21" r="1"></circle>
                    <circle cx="51" cy="21" r="1"></circle>
                    <circle cx="61" cy="21" r="1"></circle>
                    <circle cx="71" cy="21" r="1"></circle>
                    <circle cx="81" cy="21" r="1"></circle>
                    <circle cx="91" cy="21" r="1"></circle>
                    <circle cx="101" cy="21" r="1"></circle>
                    <circle cx="1" cy="31" r="1"></circle>
                    <circle cx="11" cy="31" r="1"></circle>
                    <circle cx="21" cy="31" r="1"></circle>
                    <circle cx="31" cy="31" r="1"></circle>
                    <circle cx="41" cy="31" r="1"></circle>
                    <circle cx="51" cy="31" r="1"></circle>
                    <circle cx="61" cy="31" r="1"></circle>
                    <circle cx="71" cy="31" r="1"></circle>
                    <circle cx="81" cy="31" r="1"></circle>
                    <circle cx="91" cy="31" r="1"></circle>
                    <circle cx="101" cy="31" r="1"></circle>
                    <circle cx="1" cy="41" r="1"></circle>
                    <circle cx="11" cy="41" r="1"></circle>
                    <circle cx="21" cy="41" r="1"></circle>
                    <circle cx="31" cy="41" r="1"></circle>
                    <circle cx="41" cy="41" r="1"></circle>
                    <circle cx="51" cy="41" r="1"></circle>
                    <circle cx="61" cy="41" r="1"></circle>
                    <circle cx="71" cy="41" r="1"></circle>
                    <circle cx="81" cy="41" r="1"></circle>
                    <circle cx="91" cy="41" r="1"></circle>
                    <circle cx="101" cy="41" r="1"></circle>
                    <circle cx="1" cy="51" r="1"></circle>
                    <circle cx="11" cy="51" r="1"></circle>
                    <circle cx="21" cy="51" r="1"></circle>
                    <circle cx="31" cy="51" r="1"></circle>
                    <circle cx="41" cy="51" r="1"></circle>
                    <circle cx="51" cy="51" r="1"></circle>
                    <circle cx="61" cy="51" r="1"></circle>
                    <circle cx="71" cy="51" r="1"></circle>
                    <circle cx="81" cy="51" r="1"></circle>
                    <circle cx="91" cy="51" r="1"></circle>
                    <circle cx="101" cy="51" r="1"></circle>
                    <circle cx="1" cy="61" r="1"></circle>
                    <circle cx="11" cy="61" r="1"></circle>
                    <circle cx="21" cy="61" r="1"></circle>
                    <circle cx="31" cy="61" r="1"></circle>
                    <circle cx="41" cy="61" r="1"></circle>
                    <circle cx="51" cy="61" r="1"></circle>
                    <circle cx="61" cy="61" r="1"></circle>
                    <circle cx="71" cy="61" r="1"></circle>
                    <circle cx="81" cy="61" r="1"></circle>
                    <circle cx="91" cy="61" r="1"></circle>
                    <circle cx="101" cy="61" r="1"></circle>
                    <circle cx="1" cy="71" r="1"></circle>
                    <circle cx="11" cy="71" r="1"></circle>
                    <circle cx="21" cy="71" r="1"></circle>
                    <circle cx="31" cy="71" r="1"></circle>
                    <circle cx="41" cy="71" r="1"></circle>
                    <circle cx="51" cy="71" r="1"></circle>
                    <circle cx="61" cy="71" r="1"></circle>
                    <circle cx="71" cy="71" r="1"></circle>
                    <circle cx="81" cy="71" r="1"></circle>
                    <circle cx="91" cy="71" r="1"></circle>
                    <circle cx="101" cy="71" r="1"></circle>
                    <circle cx="1" cy="81" r="1"></circle>
                    <circle cx="11" cy="81" r="1"></circle>
                    <circle cx="21" cy="81" r="1"></circle>
                    <circle cx="31" cy="81" r="1"></circle>
                    <circle cx="41" cy="81" r="1"></circle>
                    <circle cx="51" cy="81" r="1"></circle>
                    <circle cx="61" cy="81" r="1"></circle>
                    <circle cx="71" cy="81" r="1"></circle>
                    <circle cx="81" cy="81" r="1"></circle>
                    <circle cx="91" cy="81" r="1"></circle>
                    <circle cx="101" cy="81" r="1"></circle>
                    <circle cx="1" cy="91" r="1"></circle>
                    <circle cx="11" cy="91" r="1"></circle>
                    <circle cx="21" cy="91" r="1"></circle>
                    <circle cx="31" cy="91" r="1"></circle>
                    <circle cx="41" cy="91" r="1"></circle>
                    <circle cx="51" cy="91" r="1"></circle>
                    <circle cx="61" cy="91" r="1"></circle>
                    <circle cx="71" cy="91" r="1"></circle>
                    <circle cx="81" cy="91" r="1"></circle>
                    <circle cx="91" cy="91" r="1"></circle>
                    <circle cx="101" cy="91" r="1"></circle>
                    <circle cx="1" cy="101" r="1"></circle>
                    <circle cx="11" cy="101" r="1"></circle>
                    <circle cx="21" cy="101" r="1"></circle>
                    <circle cx="31" cy="101" r="1"></circle>
                    <circle cx="41" cy="101" r="1"></circle>
                    <circle cx="51" cy="101" r="1"></circle>
                    <circle cx="61" cy="101" r="1"></circle>
                    <circle cx="71" cy="101" r="1"></circle>
                    <circle cx="81" cy="101" r="1"></circle>
                    <circle cx="91" cy="101" r="1"></circle>
                    <circle cx="101" cy="101" r="1"></circle>
                    <circle cx="1" cy="111" r="1"></circle>
                    <circle cx="11" cy="111" r="1"></circle>
                    <circle cx="21" cy="111" r="1"></circle>
                    <circle cx="31" cy="111" r="1"></circle>
                    <circle cx="41" cy="111" r="1"></circle>
                    <circle cx="51" cy="111" r="1"></circle>
                    <circle cx="61" cy="111" r="1"></circle>
                    <circle cx="71" cy="111" r="1"></circle>
                    <circle cx="81" cy="111" r="1"></circle>
                    <circle cx="91" cy="111" r="1"></circle>
                    <circle cx="101" cy="111" r="1"></circle>
                    <circle cx="1" cy="121" r="1"></circle>
                    <circle cx="11" cy="121" r="1"></circle>
                    <circle cx="21" cy="121" r="1"></circle>
                    <circle cx="31" cy="121" r="1"></circle>
                    <circle cx="41" cy="121" r="1"></circle>
                    <circle cx="51" cy="121" r="1"></circle>
                    <circle cx="61" cy="121" r="1"></circle>
                    <circle cx="71" cy="121" r="1"></circle>
                    <circle cx="81" cy="121" r="1"></circle>
                    <circle cx="91" cy="121" r="1"></circle>
                    <circle cx="101" cy="121" r="1"></circle>
                    <circle cx="1" cy="131" r="1"></circle>
                    <circle cx="11" cy="131" r="1"></circle>
                    <circle cx="21" cy="131" r="1"></circle>
                    <circle cx="31" cy="131" r="1"></circle>
                    <circle cx="41" cy="131" r="1"></circle>
                    <circle cx="51" cy="131" r="1"></circle>
                    <circle cx="61" cy="131" r="1"></circle>
                    <circle cx="71" cy="131" r="1"></circle>
                    <circle cx="81" cy="131" r="1"></circle>
                    <circle cx="91" cy="131" r="1"></circle>
                    <circle cx="101" cy="131" r="1"></circle>
                    <circle cx="111" cy="1" r="1"></circle>
                    <circle cx="121" cy="1" r="1"></circle>
                    <circle cx="131" cy="1" r="1"></circle>
                    <circle cx="141" cy="1" r="1"></circle>
                    <circle cx="151" cy="1" r="1"></circle>
                    <circle cx="161" cy="1" r="1"></circle>
                    <circle cx="171" cy="1" r="1"></circle>
                    <circle cx="171" cy="1" r="1"></circle>
                    <circle cx="181" cy="1" r="1"></circle>
                    <circle cx="191" cy="1" r="1"></circle>
                    <circle cx="201" cy="1" r="1"></circle>
                    <circle cx="211" cy="1" r="1"></circle>
                    <circle cx="111" cy="11" r="1"></circle>
                    <circle cx="121" cy="11" r="1"></circle>
                    <circle cx="131" cy="11" r="1"></circle>
                    <circle cx="141" cy="11" r="1"></circle>
                    <circle cx="151" cy="11" r="1"></circle>
                    <circle cx="161" cy="11" r="1"></circle>
                    <circle cx="171" cy="11" r="1"></circle>
                    <circle cx="181" cy="11" r="1"></circle>
                    <circle cx="191" cy="11" r="1"></circle>
                    <circle cx="201" cy="11" r="1"></circle>
                    <circle cx="211" cy="11" r="1"></circle>
                    <circle cx="111" cy="21" r="1"></circle>
                    <circle cx="121" cy="21" r="1"></circle>
                    <circle cx="131" cy="21" r="1"></circle>
                    <circle cx="141" cy="21" r="1"></circle>
                    <circle cx="151" cy="21" r="1"></circle>
                    <circle cx="161" cy="21" r="1"></circle>
                    <circle cx="171" cy="21" r="1"></circle>
                    <circle cx="181" cy="21" r="1"></circle>
                    <circle cx="191" cy="21" r="1"></circle>
                    <circle cx="201" cy="21" r="1"></circle>
                    <circle cx="211" cy="21" r="1"></circle>
                    <circle cx="111" cy="31" r="1"></circle>
                    <circle cx="121" cy="31" r="1"></circle>
                    <circle cx="131" cy="31" r="1"></circle>
                    <circle cx="141" cy="31" r="1"></circle>
                    <circle cx="151" cy="31" r="1"></circle>
                    <circle cx="161" cy="31" r="1"></circle>
                    <circle cx="171" cy="31" r="1"></circle>
                    <circle cx="181" cy="31" r="1"></circle>
                    <circle cx="191" cy="31" r="1"></circle>
                    <circle cx="201" cy="31" r="1"></circle>
                    <circle cx="211" cy="31" r="1"></circle>
                    <circle cx="111" cy="41" r="1"></circle>
                    <circle cx="121" cy="41" r="1"></circle>
                    <circle cx="131" cy="41" r="1"></circle>
                    <circle cx="141" cy="41" r="1"></circle>
                    <circle cx="151" cy="41" r="1"></circle>
                    <circle cx="161" cy="41" r="1"></circle>
                    <circle cx="171" cy="41" r="1"></circle>
                    <circle cx="181" cy="41" r="1"></circle>
                    <circle cx="191" cy="41" r="1"></circle>
                    <circle cx="201" cy="41" r="1"></circle>
                    <circle cx="211" cy="41" r="1"></circle>
                    <circle cx="111" cy="51" r="1"></circle>
                    <circle cx="121" cy="51" r="1"></circle>
                    <circle cx="131" cy="51" r="1"></circle>
                    <circle cx="141" cy="51" r="1"></circle>
                    <circle cx="151" cy="51" r="1"></circle>
                    <circle cx="161" cy="51" r="1"></circle>
                    <circle cx="171" cy="51" r="1"></circle>
                    <circle cx="181" cy="51" r="1"></circle>
                    <circle cx="191" cy="51" r="1"></circle>
                    <circle cx="201" cy="51" r="1"></circle>
                    <circle cx="211" cy="51" r="1"></circle>
                    <circle cx="111" cy="61" r="1"></circle>
                    <circle cx="121" cy="61" r="1"></circle>
                    <circle cx="131" cy="61" r="1"></circle>
                    <circle cx="141" cy="61" r="1"></circle>
                    <circle cx="151" cy="61" r="1"></circle>
                    <circle cx="161" cy="61" r="1"></circle>
                    <circle cx="171" cy="61" r="1"></circle>
                    <circle cx="181" cy="61" r="1"></circle>
                    <circle cx="191" cy="61" r="1"></circle>
                    <circle cx="201" cy="61" r="1"></circle>
                    <circle cx="211" cy="61" r="1"></circle>
                    <circle cx="111" cy="71" r="1"></circle>
                    <circle cx="121" cy="71" r="1"></circle>
                    <circle cx="131" cy="71" r="1"></circle>
                    <circle cx="141" cy="71" r="1"></circle>
                    <circle cx="151" cy="71" r="1"></circle>
                    <circle cx="161" cy="71" r="1"></circle>
                    <circle cx="171" cy="71" r="1"></circle>
                    <circle cx="181" cy="71" r="1"></circle>
                    <circle cx="191" cy="71" r="1"></circle>
                    <circle cx="201" cy="71" r="1"></circle>
                    <circle cx="211" cy="71" r="1"></circle>
                    <circle cx="111" cy="81" r="1"></circle>
                    <circle cx="121" cy="81" r="1"></circle>
                    <circle cx="131" cy="81" r="1"></circle>
                    <circle cx="141" cy="81" r="1"></circle>
                    <circle cx="151" cy="81" r="1"></circle>
                    <circle cx="161" cy="81" r="1"></circle>
                    <circle cx="171" cy="81" r="1"></circle>
                    <circle cx="181" cy="81" r="1"></circle>
                    <circle cx="191" cy="81" r="1"></circle>
                    <circle cx="201" cy="81" r="1"></circle>
                    <circle cx="211" cy="81" r="1"></circle>
                    <circle cx="111" cy="91" r="1"></circle>
                    <circle cx="121" cy="91" r="1"></circle>
                    <circle cx="131" cy="91" r="1"></circle>
                    <circle cx="141" cy="91" r="1"></circle>
                    <circle cx="151" cy="91" r="1"></circle>
                    <circle cx="161" cy="91" r="1"></circle>
                    <circle cx="171" cy="91" r="1"></circle>
                    <circle cx="181" cy="91" r="1"></circle>
                    <circle cx="191" cy="91" r="1"></circle>
                    <circle cx="201" cy="91" r="1"></circle>
                    <circle cx="211" cy="91" r="1"></circle>
                    <circle cx="111" cy="101" r="1"></circle>
                    <circle cx="121" cy="101" r="1"></circle>
                    <circle cx="131" cy="101" r="1"></circle>
                    <circle cx="141" cy="101" r="1"></circle>
                    <circle cx="151" cy="101" r="1"></circle>
                    <circle cx="161" cy="101" r="1"></circle>
                    <circle cx="171" cy="101" r="1"></circle>
                    <circle cx="181" cy="101" r="1"></circle>
                    <circle cx="191" cy="101" r="1"></circle>
                    <circle cx="201" cy="101" r="1"></circle>
                    <circle cx="211" cy="101" r="1"></circle>
                    <circle cx="111" cy="111" r="1"></circle>
                    <circle cx="121" cy="111" r="1"></circle>
                    <circle cx="131" cy="111" r="1"></circle>
                    <circle cx="141" cy="111" r="1"></circle>
                    <circle cx="151" cy="111" r="1"></circle>
                    <circle cx="161" cy="111" r="1"></circle>
                    <circle cx="171" cy="111" r="1"></circle>
                    <circle cx="181" cy="111" r="1"></circle>
                    <circle cx="191" cy="111" r="1"></circle>
                    <circle cx="201" cy="111" r="1"></circle>
                    <circle cx="211" cy="111" r="1"></circle>
                    <circle cx="111" cy="121" r="1"></circle>
                    <circle cx="121" cy="121" r="1"></circle>
                    <circle cx="131" cy="121" r="1"></circle>
                    <circle cx="141" cy="121" r="1"></circle>
                    <circle cx="151" cy="121" r="1"></circle>
                    <circle cx="161" cy="121" r="1"></circle>
                    <circle cx="171" cy="121" r="1"></circle>
                    <circle cx="181" cy="121" r="1"></circle>
                    <circle cx="191" cy="121" r="1"></circle>
                    <circle cx="201" cy="121" r="1"></circle>
                    <circle cx="211" cy="121" r="1"></circle>
                    <circle cx="111" cy="131" r="1"></circle>
                    <circle cx="121" cy="131" r="1"></circle>
                    <circle cx="131" cy="131" r="1"></circle>
                    <circle cx="141" cy="131" r="1"></circle>
                    <circle cx="151" cy="131" r="1"></circle>
                    <circle cx="161" cy="131" r="1"></circle>
                    <circle cx="171" cy="131" r="1"></circle>
                    <circle cx="181" cy="131" r="1"></circle>
                    <circle cx="191" cy="131" r="1"></circle>
                    <circle cx="201" cy="131" r="1"></circle>
                    <circle cx="211" cy="131" r="1"></circle>
                    <circle cx="181" cy="1" r="1"></circle>
                    <circle cx="191" cy="1" r="1"></circle>
                    <circle cx="201" cy="1" r="1"></circle>
                    <circle cx="211" cy="1" r="1"></circle>
                    <circle cx="221" cy="1" r="1"></circle>
                    <circle cx="231" cy="1" r="1"></circle>
                    <circle cx="241" cy="1" r="1"></circle>
                    <circle cx="241" cy="1" r="1"></circle>
                    <circle cx="251" cy="1" r="1"></circle>
                    <circle cx="261" cy="1" r="1"></circle>
                    <circle cx="271" cy="1" r="1"></circle>
                    <circle cx="281" cy="1" r="1"></circle>
                    <circle cx="181" cy="11" r="1"></circle>
                    <circle cx="191" cy="11" r="1"></circle>
                    <circle cx="201" cy="11" r="1"></circle>
                    <circle cx="211" cy="11" r="1"></circle>
                    <circle cx="221" cy="11" r="1"></circle>
                    <circle cx="231" cy="11" r="1"></circle>
                    <circle cx="241" cy="11" r="1"></circle>
                    <circle cx="251" cy="11" r="1"></circle>
                    <circle cx="261" cy="11" r="1"></circle>
                    <circle cx="271" cy="11" r="1"></circle>
                    <circle cx="281" cy="11" r="1"></circle>
                    <circle cx="181" cy="21" r="1"></circle>
                    <circle cx="191" cy="21" r="1"></circle>
                    <circle cx="201" cy="21" r="1"></circle>
                    <circle cx="211" cy="21" r="1"></circle>
                    <circle cx="221" cy="21" r="1"></circle>
                    <circle cx="231" cy="21" r="1"></circle>
                    <circle cx="241" cy="21" r="1"></circle>
                    <circle cx="251" cy="21" r="1"></circle>
                    <circle cx="261" cy="21" r="1"></circle>
                    <circle cx="271" cy="21" r="1"></circle>
                    <circle cx="281" cy="21" r="1"></circle>
                    <circle cx="181" cy="31" r="1"></circle>
                    <circle cx="191" cy="31" r="1"></circle>
                    <circle cx="201" cy="31" r="1"></circle>
                    <circle cx="211" cy="31" r="1"></circle>
                    <circle cx="221" cy="31" r="1"></circle>
                    <circle cx="231" cy="31" r="1"></circle>
                    <circle cx="241" cy="31" r="1"></circle>
                    <circle cx="251" cy="31" r="1"></circle>
                    <circle cx="261" cy="31" r="1"></circle>
                    <circle cx="271" cy="31" r="1"></circle>
                    <circle cx="281" cy="31" r="1"></circle>
                    <circle cx="181" cy="41" r="1"></circle>
                    <circle cx="191" cy="41" r="1"></circle>
                    <circle cx="201" cy="41" r="1"></circle>
                    <circle cx="211" cy="41" r="1"></circle>
                    <circle cx="221" cy="41" r="1"></circle>
                    <circle cx="231" cy="41" r="1"></circle>
                    <circle cx="241" cy="41" r="1"></circle>
                    <circle cx="251" cy="41" r="1"></circle>
                    <circle cx="261" cy="41" r="1"></circle>
                    <circle cx="271" cy="41" r="1"></circle>
                    <circle cx="281" cy="41" r="1"></circle>
                    <circle cx="181" cy="51" r="1"></circle>
                    <circle cx="191" cy="51" r="1"></circle>
                    <circle cx="201" cy="51" r="1"></circle>
                    <circle cx="211" cy="51" r="1"></circle>
                    <circle cx="221" cy="51" r="1"></circle>
                    <circle cx="231" cy="51" r="1"></circle>
                    <circle cx="241" cy="51" r="1"></circle>
                    <circle cx="251" cy="51" r="1"></circle>
                    <circle cx="261" cy="51" r="1"></circle>
                    <circle cx="271" cy="51" r="1"></circle>
                    <circle cx="281" cy="51" r="1"></circle>
                    <circle cx="181" cy="61" r="1"></circle>
                    <circle cx="191" cy="61" r="1"></circle>
                    <circle cx="201" cy="61" r="1"></circle>
                    <circle cx="211" cy="61" r="1"></circle>
                    <circle cx="221" cy="61" r="1"></circle>
                    <circle cx="231" cy="61" r="1"></circle>
                    <circle cx="241" cy="61" r="1"></circle>
                    <circle cx="251" cy="61" r="1"></circle>
                    <circle cx="261" cy="61" r="1"></circle>
                    <circle cx="271" cy="61" r="1"></circle>
                    <circle cx="281" cy="61" r="1"></circle>
                    <circle cx="181" cy="71" r="1"></circle>
                    <circle cx="191" cy="71" r="1"></circle>
                    <circle cx="201" cy="71" r="1"></circle>
                    <circle cx="211" cy="71" r="1"></circle>
                    <circle cx="221" cy="71" r="1"></circle>
                    <circle cx="231" cy="71" r="1"></circle>
                    <circle cx="241" cy="71" r="1"></circle>
                    <circle cx="251" cy="71" r="1"></circle>
                    <circle cx="261" cy="71" r="1"></circle>
                    <circle cx="271" cy="71" r="1"></circle>
                    <circle cx="281" cy="71" r="1"></circle>
                    <circle cx="181" cy="81" r="1"></circle>
                    <circle cx="191" cy="81" r="1"></circle>
                    <circle cx="201" cy="81" r="1"></circle>
                    <circle cx="211" cy="81" r="1"></circle>
                    <circle cx="221" cy="81" r="1"></circle>
                    <circle cx="231" cy="81" r="1"></circle>
                    <circle cx="241" cy="81" r="1"></circle>
                    <circle cx="251" cy="81" r="1"></circle>
                    <circle cx="261" cy="81" r="1"></circle>
                    <circle cx="271" cy="81" r="1"></circle>
                    <circle cx="281" cy="81" r="1"></circle>
                    <circle cx="181" cy="91" r="1"></circle>
                    <circle cx="191" cy="91" r="1"></circle>
                    <circle cx="201" cy="91" r="1"></circle>
                    <circle cx="211" cy="91" r="1"></circle>
                    <circle cx="221" cy="91" r="1"></circle>
                    <circle cx="231" cy="91" r="1"></circle>
                    <circle cx="241" cy="91" r="1"></circle>
                    <circle cx="251" cy="91" r="1"></circle>
                    <circle cx="261" cy="91" r="1"></circle>
                    <circle cx="271" cy="91" r="1"></circle>
                    <circle cx="281" cy="91" r="1"></circle>
                    <circle cx="181" cy="101" r="1"></circle>
                    <circle cx="191" cy="101" r="1"></circle>
                    <circle cx="201" cy="101" r="1"></circle>
                    <circle cx="211" cy="101" r="1"></circle>
                    <circle cx="221" cy="101" r="1"></circle>
                    <circle cx="231" cy="101" r="1"></circle>
                    <circle cx="241" cy="101" r="1"></circle>
                    <circle cx="251" cy="101" r="1"></circle>
                    <circle cx="261" cy="101" r="1"></circle>
                    <circle cx="271" cy="101" r="1"></circle>
                    <circle cx="281" cy="101" r="1"></circle>
                    <circle cx="181" cy="111" r="1"></circle>
                    <circle cx="191" cy="111" r="1"></circle>
                    <circle cx="201" cy="111" r="1"></circle>
                    <circle cx="211" cy="111" r="1"></circle>
                    <circle cx="221" cy="111" r="1"></circle>
                    <circle cx="231" cy="111" r="1"></circle>
                    <circle cx="241" cy="111" r="1"></circle>
                    <circle cx="251" cy="111" r="1"></circle>
                    <circle cx="261" cy="111" r="1"></circle>
                    <circle cx="271" cy="111" r="1"></circle>
                    <circle cx="281" cy="111" r="1"></circle>
                    <circle cx="181" cy="121" r="1"></circle>
                    <circle cx="191" cy="121" r="1"></circle>
                    <circle cx="201" cy="121" r="1"></circle>
                    <circle cx="211" cy="121" r="1"></circle>
                    <circle cx="221" cy="121" r="1"></circle>
                    <circle cx="231" cy="121" r="1"></circle>
                    <circle cx="241" cy="121" r="1"></circle>
                    <circle cx="251" cy="121" r="1"></circle>
                    <circle cx="261" cy="121" r="1"></circle>
                    <circle cx="271" cy="121" r="1"></circle>
                    <circle cx="281" cy="121" r="1"></circle>
                    <circle cx="181" cy="131" r="1"></circle>
                    <circle cx="191" cy="131" r="1"></circle>
                    <circle cx="201" cy="131" r="1"></circle>
                    <circle cx="211" cy="131" r="1"></circle>
                    <circle cx="221" cy="131" r="1"></circle>
                    <circle cx="231" cy="131" r="1"></circle>
                    <circle cx="241" cy="131" r="1"></circle>
                    <circle cx="251" cy="131" r="1"></circle>
                    <circle cx="261" cy="131" r="1"></circle>
                    <circle cx="271" cy="131" r="1"></circle>
                    <circle cx="281" cy="131" r="1"></circle>
                </g>
            </g>
        </g>
    </g>
</svg>