<?xml version="1.0" encoding="UTF-8"?>
<svg width="140px" height="178px" viewBox="0 0 140 178" version="1.1" xmlns="http://www.w3.org/2000/svg" xmlns:xlink="http://www.w3.org/1999/xlink">
    <!-- Generator: Sketch 58 (84663) - https://sketch.com -->
    <title>Group 4</title>
    <desc>Created with Sketch.</desc>
    <g id="archive" stroke="none" stroke-width="1" fill="none" fill-rule="evenodd">
        <g id="Find-a-home" transform="translate(-638.000000, -2558.000000)">
            <g id="Group-2" transform="translate(-4.000000, 2470.000000)">
                <polygon id="Rectangle" points="0 81 1364 180.986056 1364 1137 4 1013.86991"></polygon>
                <g id="Group-4" transform="translate(712.000000, 142.000000) scale(1, -1) rotate(90.000000) translate(-712.000000, -142.000000) translate(570.000000, 76.000000)" fill="#C7D7F1">
                    <g id="Group-16" transform="translate(0.000000, 0.000000)">
                        <ellipse id="Oval" cx="21.1489362" cy="1" rx="1.0070922" ry="1"></ellipse>
                        <ellipse id="Oval" cx="31.2198582" cy="1" rx="1.0070922" ry="1"></ellipse>
                        <ellipse id="Oval" cx="41.2907801" cy="1" rx="1.0070922" ry="1"></ellipse>
                        <ellipse id="Oval" cx="51.3617021" cy="1" rx="1.0070922" ry="1"></ellipse>
                        <ellipse id="Oval" cx="61.4326241" cy="1" rx="1.0070922" ry="1"></ellipse>
                        <ellipse id="Oval" cx="61.4326241" cy="1" rx="1.0070922" ry="1"></ellipse>
                        <ellipse id="Oval" cx="71.5035461" cy="1" rx="1.0070922" ry="1"></ellipse>
                        <ellipse id="Oval" cx="81.5744681" cy="1" rx="1.0070922" ry="1"></ellipse>
                        <ellipse id="Oval" cx="91.6453901" cy="1" rx="1.0070922" ry="1"></ellipse>
                        <ellipse id="Oval" cx="101.716312" cy="1" rx="1.0070922" ry="1"></ellipse>
                        <ellipse id="Oval" cx="21.1489362" cy="11" rx="1.0070922" ry="1"></ellipse>
                        <ellipse id="Oval" cx="31.2198582" cy="11" rx="1.0070922" ry="1"></ellipse>
                        <ellipse id="Oval" cx="41.2907801" cy="11" rx="1.0070922" ry="1"></ellipse>
                        <ellipse id="Oval" cx="51.3617021" cy="11" rx="1.0070922" ry="1"></ellipse>
                        <ellipse id="Oval" cx="61.4326241" cy="11" rx="1.0070922" ry="1"></ellipse>
                        <ellipse id="Oval" cx="71.5035461" cy="11" rx="1.0070922" ry="1"></ellipse>
                        <ellipse id="Oval" cx="81.5744681" cy="11" rx="1.0070922" ry="1"></ellipse>
                        <ellipse id="Oval" cx="91.6453901" cy="11" rx="1.0070922" ry="1"></ellipse>
                        <ellipse id="Oval" cx="101.716312" cy="11" rx="1.0070922" ry="1"></ellipse>
                        <ellipse id="Oval" cx="21.1489362" cy="21" rx="1.0070922" ry="1"></ellipse>
                        <ellipse id="Oval" cx="31.2198582" cy="21" rx="1.0070922" ry="1"></ellipse>
                        <ellipse id="Oval" cx="41.2907801" cy="21" rx="1.0070922" ry="1"></ellipse>
                        <ellipse id="Oval" cx="51.3617021" cy="21" rx="1.0070922" ry="1"></ellipse>
                        <ellipse id="Oval" cx="61.4326241" cy="21" rx="1.0070922" ry="1"></ellipse>
                        <ellipse id="Oval" cx="71.5035461" cy="21" rx="1.0070922" ry="1"></ellipse>
                        <ellipse id="Oval" cx="81.5744681" cy="21" rx="1.0070922" ry="1"></ellipse>
                        <ellipse id="Oval" cx="91.6453901" cy="21" rx="1.0070922" ry="1"></ellipse>
                        <ellipse id="Oval" cx="101.716312" cy="21" rx="1.0070922" ry="1"></ellipse>
                        <ellipse id="Oval" cx="21.1489362" cy="31" rx="1.0070922" ry="1"></ellipse>
                        <ellipse id="Oval" cx="31.2198582" cy="31" rx="1.0070922" ry="1"></ellipse>
                        <ellipse id="Oval" cx="41.2907801" cy="31" rx="1.0070922" ry="1"></ellipse>
                        <ellipse id="Oval" cx="51.3617021" cy="31" rx="1.0070922" ry="1"></ellipse>
                        <ellipse id="Oval" cx="61.4326241" cy="31" rx="1.0070922" ry="1"></ellipse>
                        <ellipse id="Oval" cx="71.5035461" cy="31" rx="1.0070922" ry="1"></ellipse>
                        <ellipse id="Oval" cx="81.5744681" cy="31" rx="1.0070922" ry="1"></ellipse>
                        <ellipse id="Oval" cx="91.6453901" cy="31" rx="1.0070922" ry="1"></ellipse>
                        <ellipse id="Oval" cx="101.716312" cy="31" rx="1.0070922" ry="1"></ellipse>
                        <ellipse id="Oval" cx="21.1489362" cy="41" rx="1.0070922" ry="1"></ellipse>
                        <ellipse id="Oval" cx="31.2198582" cy="41" rx="1.0070922" ry="1"></ellipse>
                        <ellipse id="Oval" cx="41.2907801" cy="41" rx="1.0070922" ry="1"></ellipse>
                        <ellipse id="Oval" cx="51.3617021" cy="41" rx="1.0070922" ry="1"></ellipse>
                        <ellipse id="Oval" cx="61.4326241" cy="41" rx="1.0070922" ry="1"></ellipse>
                        <ellipse id="Oval" cx="71.5035461" cy="41" rx="1.0070922" ry="1"></ellipse>
                        <ellipse id="Oval" cx="81.5744681" cy="41" rx="1.0070922" ry="1"></ellipse>
                        <ellipse id="Oval" cx="91.6453901" cy="41" rx="1.0070922" ry="1"></ellipse>
                        <ellipse id="Oval" cx="101.716312" cy="41" rx="1.0070922" ry="1"></ellipse>
                        <ellipse id="Oval" cx="21.1489362" cy="51" rx="1.0070922" ry="1"></ellipse>
                        <ellipse id="Oval" cx="31.2198582" cy="51" rx="1.0070922" ry="1"></ellipse>
                        <ellipse id="Oval" cx="41.2907801" cy="51" rx="1.0070922" ry="1"></ellipse>
                        <ellipse id="Oval" cx="51.3617021" cy="51" rx="1.0070922" ry="1"></ellipse>
                        <ellipse id="Oval" cx="61.4326241" cy="51" rx="1.0070922" ry="1"></ellipse>
                        <ellipse id="Oval" cx="71.5035461" cy="51" rx="1.0070922" ry="1"></ellipse>
                        <ellipse id="Oval" cx="81.5744681" cy="51" rx="1.0070922" ry="1"></ellipse>
                        <ellipse id="Oval" cx="91.6453901" cy="51" rx="1.0070922" ry="1"></ellipse>
                        <ellipse id="Oval" cx="101.716312" cy="51" rx="1.0070922" ry="1"></ellipse>
                        <ellipse id="Oval" cx="21.1489362" cy="61" rx="1.0070922" ry="1"></ellipse>
                        <ellipse id="Oval" cx="31.2198582" cy="61" rx="1.0070922" ry="1"></ellipse>
                        <ellipse id="Oval" cx="41.2907801" cy="61" rx="1.0070922" ry="1"></ellipse>
                        <ellipse id="Oval" cx="51.3617021" cy="61" rx="1.0070922" ry="1"></ellipse>
                        <ellipse id="Oval" cx="61.4326241" cy="61" rx="1.0070922" ry="1"></ellipse>
                        <ellipse id="Oval" cx="71.5035461" cy="61" rx="1.0070922" ry="1"></ellipse>
                        <ellipse id="Oval" cx="81.5744681" cy="61" rx="1.0070922" ry="1"></ellipse>
                        <ellipse id="Oval" cx="91.6453901" cy="61" rx="1.0070922" ry="1"></ellipse>
                        <ellipse id="Oval" cx="101.716312" cy="61" rx="1.0070922" ry="1"></ellipse>
                        <ellipse id="Oval" cx="21.1489362" cy="71" rx="1.0070922" ry="1"></ellipse>
                        <ellipse id="Oval" cx="31.2198582" cy="71" rx="1.0070922" ry="1"></ellipse>
                        <ellipse id="Oval" cx="41.2907801" cy="71" rx="1.0070922" ry="1"></ellipse>
                        <ellipse id="Oval" cx="51.3617021" cy="71" rx="1.0070922" ry="1"></ellipse>
                        <ellipse id="Oval" cx="61.4326241" cy="71" rx="1.0070922" ry="1"></ellipse>
                        <ellipse id="Oval" cx="71.5035461" cy="71" rx="1.0070922" ry="1"></ellipse>
                        <ellipse id="Oval" cx="81.5744681" cy="71" rx="1.0070922" ry="1"></ellipse>
                        <ellipse id="Oval" cx="91.6453901" cy="71" rx="1.0070922" ry="1"></ellipse>
                        <ellipse id="Oval" cx="101.716312" cy="71" rx="1.0070922" ry="1"></ellipse>
                        <ellipse id="Oval" cx="21.1489362" cy="81" rx="1.0070922" ry="1"></ellipse>
                        <ellipse id="Oval" cx="31.2198582" cy="81" rx="1.0070922" ry="1"></ellipse>
                        <ellipse id="Oval" cx="41.2907801" cy="81" rx="1.0070922" ry="1"></ellipse>
                        <ellipse id="Oval" cx="51.3617021" cy="81" rx="1.0070922" ry="1"></ellipse>
                        <ellipse id="Oval" cx="61.4326241" cy="81" rx="1.0070922" ry="1"></ellipse>
                        <ellipse id="Oval" cx="71.5035461" cy="81" rx="1.0070922" ry="1"></ellipse>
                        <ellipse id="Oval" cx="81.5744681" cy="81" rx="1.0070922" ry="1"></ellipse>
                        <ellipse id="Oval" cx="91.6453901" cy="81" rx="1.0070922" ry="1"></ellipse>
                        <ellipse id="Oval" cx="101.716312" cy="81" rx="1.0070922" ry="1"></ellipse>
                        <ellipse id="Oval" cx="21.1489362" cy="91" rx="1.0070922" ry="1"></ellipse>
                        <ellipse id="Oval" cx="31.2198582" cy="91" rx="1.0070922" ry="1"></ellipse>
                        <ellipse id="Oval" cx="41.2907801" cy="91" rx="1.0070922" ry="1"></ellipse>
                        <ellipse id="Oval" cx="51.3617021" cy="91" rx="1.0070922" ry="1"></ellipse>
                        <ellipse id="Oval" cx="61.4326241" cy="91" rx="1.0070922" ry="1"></ellipse>
                        <ellipse id="Oval" cx="71.5035461" cy="91" rx="1.0070922" ry="1"></ellipse>
                        <ellipse id="Oval" cx="81.5744681" cy="91" rx="1.0070922" ry="1"></ellipse>
                        <ellipse id="Oval" cx="91.6453901" cy="91" rx="1.0070922" ry="1"></ellipse>
                        <ellipse id="Oval" cx="101.716312" cy="91" rx="1.0070922" ry="1"></ellipse>
                        <ellipse id="Oval" cx="21.1489362" cy="101" rx="1.0070922" ry="1"></ellipse>
                        <ellipse id="Oval" cx="31.2198582" cy="101" rx="1.0070922" ry="1"></ellipse>
                        <ellipse id="Oval" cx="41.2907801" cy="101" rx="1.0070922" ry="1"></ellipse>
                        <ellipse id="Oval" cx="51.3617021" cy="101" rx="1.0070922" ry="1"></ellipse>
                        <ellipse id="Oval" cx="61.4326241" cy="101" rx="1.0070922" ry="1"></ellipse>
                        <ellipse id="Oval" cx="71.5035461" cy="101" rx="1.0070922" ry="1"></ellipse>
                        <ellipse id="Oval" cx="81.5744681" cy="101" rx="1.0070922" ry="1"></ellipse>
                        <ellipse id="Oval" cx="91.6453901" cy="101" rx="1.0070922" ry="1"></ellipse>
                        <ellipse id="Oval" cx="101.716312" cy="101" rx="1.0070922" ry="1"></ellipse>
                        <ellipse id="Oval" cx="21.1489362" cy="111" rx="1.0070922" ry="1"></ellipse>
                        <ellipse id="Oval" cx="31.2198582" cy="111" rx="1.0070922" ry="1"></ellipse>
                        <ellipse id="Oval" cx="41.2907801" cy="111" rx="1.0070922" ry="1"></ellipse>
                        <ellipse id="Oval" cx="51.3617021" cy="111" rx="1.0070922" ry="1"></ellipse>
                        <ellipse id="Oval" cx="61.4326241" cy="111" rx="1.0070922" ry="1"></ellipse>
                        <ellipse id="Oval" cx="71.5035461" cy="111" rx="1.0070922" ry="1"></ellipse>
                        <ellipse id="Oval" cx="81.5744681" cy="111" rx="1.0070922" ry="1"></ellipse>
                        <ellipse id="Oval" cx="91.6453901" cy="111" rx="1.0070922" ry="1"></ellipse>
                        <ellipse id="Oval" cx="101.716312" cy="111" rx="1.0070922" ry="1"></ellipse>
                        <ellipse id="Oval" cx="21.1489362" cy="121" rx="1.0070922" ry="1"></ellipse>
                        <ellipse id="Oval" cx="31.2198582" cy="121" rx="1.0070922" ry="1"></ellipse>
                        <ellipse id="Oval" cx="41.2907801" cy="121" rx="1.0070922" ry="1"></ellipse>
                        <ellipse id="Oval" cx="51.3617021" cy="121" rx="1.0070922" ry="1"></ellipse>
                        <ellipse id="Oval" cx="61.4326241" cy="121" rx="1.0070922" ry="1"></ellipse>
                        <ellipse id="Oval" cx="71.5035461" cy="121" rx="1.0070922" ry="1"></ellipse>
                        <ellipse id="Oval" cx="81.5744681" cy="121" rx="1.0070922" ry="1"></ellipse>
                        <ellipse id="Oval" cx="91.6453901" cy="121" rx="1.0070922" ry="1"></ellipse>
                        <ellipse id="Oval" cx="101.716312" cy="121" rx="1.0070922" ry="1"></ellipse>
                        <ellipse id="Oval" cx="21.1489362" cy="131" rx="1.0070922" ry="1"></ellipse>
                        <ellipse id="Oval" cx="31.2198582" cy="131" rx="1.0070922" ry="1"></ellipse>
                        <ellipse id="Oval" cx="41.2907801" cy="131" rx="1.0070922" ry="1"></ellipse>
                        <ellipse id="Oval" cx="51.3617021" cy="131" rx="1.0070922" ry="1"></ellipse>
                        <ellipse id="Oval" cx="61.4326241" cy="131" rx="1.0070922" ry="1"></ellipse>
                        <ellipse id="Oval" cx="71.5035461" cy="131" rx="1.0070922" ry="1"></ellipse>
                        <ellipse id="Oval" cx="81.5744681" cy="131" rx="1.0070922" ry="1"></ellipse>
                        <ellipse id="Oval" cx="91.6453901" cy="131" rx="1.0070922" ry="1"></ellipse>
                        <ellipse id="Oval" cx="101.716312" cy="131" rx="1.0070922" ry="1"></ellipse>
                        <ellipse id="Oval" cx="111.787234" cy="1" rx="1.0070922" ry="1"></ellipse>
                        <ellipse id="Oval" cx="121.858156" cy="1" rx="1.0070922" ry="1"></ellipse>
                        <ellipse id="Oval" cx="131.929078" cy="1" rx="1.0070922" ry="1"></ellipse>
                        <ellipse id="Oval" cx="142" cy="1" rx="1.0070922" ry="1"></ellipse>
                        <ellipse id="Oval" cx="152.070922" cy="1" rx="1.0070922" ry="1"></ellipse>
                        <ellipse id="Oval" cx="162.141844" cy="1" rx="1.0070922" ry="1"></ellipse>
                        <ellipse id="Oval" cx="172.212766" cy="1" rx="1.0070922" ry="1"></ellipse>
                        <ellipse id="Oval" cx="172.212766" cy="1" rx="1.0070922" ry="1"></ellipse>
                        <ellipse id="Oval" cx="182.283688" cy="1" rx="1.0070922" ry="1"></ellipse>
                        <ellipse id="Oval" cx="192.35461" cy="1" rx="1.0070922" ry="1"></ellipse>
                        <ellipse id="Oval" cx="111.787234" cy="11" rx="1.0070922" ry="1"></ellipse>
                        <ellipse id="Oval" cx="121.858156" cy="11" rx="1.0070922" ry="1"></ellipse>
                        <ellipse id="Oval" cx="131.929078" cy="11" rx="1.0070922" ry="1"></ellipse>
                        <ellipse id="Oval" cx="142" cy="11" rx="1.0070922" ry="1"></ellipse>
                        <ellipse id="Oval" cx="152.070922" cy="11" rx="1.0070922" ry="1"></ellipse>
                        <ellipse id="Oval" cx="162.141844" cy="11" rx="1.0070922" ry="1"></ellipse>
                        <ellipse id="Oval" cx="172.212766" cy="11" rx="1.0070922" ry="1"></ellipse>
                        <ellipse id="Oval" cx="182.283688" cy="11" rx="1.0070922" ry="1"></ellipse>
                        <ellipse id="Oval" cx="192.35461" cy="11" rx="1.0070922" ry="1"></ellipse>
                        <ellipse id="Oval" cx="111.787234" cy="21" rx="1.0070922" ry="1"></ellipse>
                        <ellipse id="Oval" cx="121.858156" cy="21" rx="1.0070922" ry="1"></ellipse>
                        <ellipse id="Oval" cx="131.929078" cy="21" rx="1.0070922" ry="1"></ellipse>
                        <ellipse id="Oval" cx="142" cy="21" rx="1.0070922" ry="1"></ellipse>
                        <ellipse id="Oval" cx="152.070922" cy="21" rx="1.0070922" ry="1"></ellipse>
                        <ellipse id="Oval" cx="162.141844" cy="21" rx="1.0070922" ry="1"></ellipse>
                        <ellipse id="Oval" cx="172.212766" cy="21" rx="1.0070922" ry="1"></ellipse>
                        <ellipse id="Oval" cx="182.283688" cy="21" rx="1.0070922" ry="1"></ellipse>
                        <ellipse id="Oval" cx="192.35461" cy="21" rx="1.0070922" ry="1"></ellipse>
                        <ellipse id="Oval" cx="111.787234" cy="31" rx="1.0070922" ry="1"></ellipse>
                        <ellipse id="Oval" cx="121.858156" cy="31" rx="1.0070922" ry="1"></ellipse>
                        <ellipse id="Oval" cx="131.929078" cy="31" rx="1.0070922" ry="1"></ellipse>
                        <ellipse id="Oval" cx="142" cy="31" rx="1.0070922" ry="1"></ellipse>
                        <ellipse id="Oval" cx="152.070922" cy="31" rx="1.0070922" ry="1"></ellipse>
                        <ellipse id="Oval" cx="162.141844" cy="31" rx="1.0070922" ry="1"></ellipse>
                        <ellipse id="Oval" cx="172.212766" cy="31" rx="1.0070922" ry="1"></ellipse>
                        <ellipse id="Oval" cx="182.283688" cy="31" rx="1.0070922" ry="1"></ellipse>
                        <ellipse id="Oval" cx="192.35461" cy="31" rx="1.0070922" ry="1"></ellipse>
                        <ellipse id="Oval" cx="111.787234" cy="41" rx="1.0070922" ry="1"></ellipse>
                        <ellipse id="Oval" cx="121.858156" cy="41" rx="1.0070922" ry="1"></ellipse>
                        <ellipse id="Oval" cx="131.929078" cy="41" rx="1.0070922" ry="1"></ellipse>
                        <ellipse id="Oval" cx="142" cy="41" rx="1.0070922" ry="1"></ellipse>
                        <ellipse id="Oval" cx="152.070922" cy="41" rx="1.0070922" ry="1"></ellipse>
                        <ellipse id="Oval" cx="162.141844" cy="41" rx="1.0070922" ry="1"></ellipse>
                        <ellipse id="Oval" cx="172.212766" cy="41" rx="1.0070922" ry="1"></ellipse>
                        <ellipse id="Oval" cx="182.283688" cy="41" rx="1.0070922" ry="1"></ellipse>
                        <ellipse id="Oval" cx="192.35461" cy="41" rx="1.0070922" ry="1"></ellipse>
                        <ellipse id="Oval" cx="111.787234" cy="51" rx="1.0070922" ry="1"></ellipse>
                        <ellipse id="Oval" cx="121.858156" cy="51" rx="1.0070922" ry="1"></ellipse>
                        <ellipse id="Oval" cx="131.929078" cy="51" rx="1.0070922" ry="1"></ellipse>
                        <ellipse id="Oval" cx="142" cy="51" rx="1.0070922" ry="1"></ellipse>
                        <ellipse id="Oval" cx="152.070922" cy="51" rx="1.0070922" ry="1"></ellipse>
                        <ellipse id="Oval" cx="162.141844" cy="51" rx="1.0070922" ry="1"></ellipse>
                        <ellipse id="Oval" cx="172.212766" cy="51" rx="1.0070922" ry="1"></ellipse>
                        <ellipse id="Oval" cx="182.283688" cy="51" rx="1.0070922" ry="1"></ellipse>
                        <ellipse id="Oval" cx="192.35461" cy="51" rx="1.0070922" ry="1"></ellipse>
                        <ellipse id="Oval" cx="111.787234" cy="61" rx="1.0070922" ry="1"></ellipse>
                        <ellipse id="Oval" cx="121.858156" cy="61" rx="1.0070922" ry="1"></ellipse>
                        <ellipse id="Oval" cx="131.929078" cy="61" rx="1.0070922" ry="1"></ellipse>
                        <ellipse id="Oval" cx="142" cy="61" rx="1.0070922" ry="1"></ellipse>
                        <ellipse id="Oval" cx="152.070922" cy="61" rx="1.0070922" ry="1"></ellipse>
                        <ellipse id="Oval" cx="162.141844" cy="61" rx="1.0070922" ry="1"></ellipse>
                        <ellipse id="Oval" cx="172.212766" cy="61" rx="1.0070922" ry="1"></ellipse>
                        <ellipse id="Oval" cx="182.283688" cy="61" rx="1.0070922" ry="1"></ellipse>
                        <ellipse id="Oval" cx="192.35461" cy="61" rx="1.0070922" ry="1"></ellipse>
                        <ellipse id="Oval" cx="111.787234" cy="71" rx="1.0070922" ry="1"></ellipse>
                        <ellipse id="Oval" cx="121.858156" cy="71" rx="1.0070922" ry="1"></ellipse>
                        <ellipse id="Oval" cx="131.929078" cy="71" rx="1.0070922" ry="1"></ellipse>
                        <ellipse id="Oval" cx="142" cy="71" rx="1.0070922" ry="1"></ellipse>
                        <ellipse id="Oval" cx="152.070922" cy="71" rx="1.0070922" ry="1"></ellipse>
                        <ellipse id="Oval" cx="162.141844" cy="71" rx="1.0070922" ry="1"></ellipse>
                        <ellipse id="Oval" cx="172.212766" cy="71" rx="1.0070922" ry="1"></ellipse>
                        <ellipse id="Oval" cx="182.283688" cy="71" rx="1.0070922" ry="1"></ellipse>
                        <ellipse id="Oval" cx="192.35461" cy="71" rx="1.0070922" ry="1"></ellipse>
                        <ellipse id="Oval" cx="111.787234" cy="81" rx="1.0070922" ry="1"></ellipse>
                        <ellipse id="Oval" cx="121.858156" cy="81" rx="1.0070922" ry="1"></ellipse>
                        <ellipse id="Oval" cx="131.929078" cy="81" rx="1.0070922" ry="1"></ellipse>
                        <ellipse id="Oval" cx="142" cy="81" rx="1.0070922" ry="1"></ellipse>
                        <ellipse id="Oval" cx="152.070922" cy="81" rx="1.0070922" ry="1"></ellipse>
                        <ellipse id="Oval" cx="162.141844" cy="81" rx="1.0070922" ry="1"></ellipse>
                        <ellipse id="Oval" cx="172.212766" cy="81" rx="1.0070922" ry="1"></ellipse>
                        <ellipse id="Oval" cx="182.283688" cy="81" rx="1.0070922" ry="1"></ellipse>
                        <ellipse id="Oval" cx="192.35461" cy="81" rx="1.0070922" ry="1"></ellipse>
                        <ellipse id="Oval" cx="111.787234" cy="91" rx="1.0070922" ry="1"></ellipse>
                        <ellipse id="Oval" cx="121.858156" cy="91" rx="1.0070922" ry="1"></ellipse>
                        <ellipse id="Oval" cx="131.929078" cy="91" rx="1.0070922" ry="1"></ellipse>
                        <ellipse id="Oval" cx="142" cy="91" rx="1.0070922" ry="1"></ellipse>
                        <ellipse id="Oval" cx="152.070922" cy="91" rx="1.0070922" ry="1"></ellipse>
                        <ellipse id="Oval" cx="162.141844" cy="91" rx="1.0070922" ry="1"></ellipse>
                        <ellipse id="Oval" cx="172.212766" cy="91" rx="1.0070922" ry="1"></ellipse>
                        <ellipse id="Oval" cx="182.283688" cy="91" rx="1.0070922" ry="1"></ellipse>
                        <ellipse id="Oval" cx="192.35461" cy="91" rx="1.0070922" ry="1"></ellipse>
                        <ellipse id="Oval" cx="111.787234" cy="101" rx="1.0070922" ry="1"></ellipse>
                        <ellipse id="Oval" cx="121.858156" cy="101" rx="1.0070922" ry="1"></ellipse>
                        <ellipse id="Oval" cx="131.929078" cy="101" rx="1.0070922" ry="1"></ellipse>
                        <ellipse id="Oval" cx="142" cy="101" rx="1.0070922" ry="1"></ellipse>
                        <ellipse id="Oval" cx="152.070922" cy="101" rx="1.0070922" ry="1"></ellipse>
                        <ellipse id="Oval" cx="162.141844" cy="101" rx="1.0070922" ry="1"></ellipse>
                        <ellipse id="Oval" cx="172.212766" cy="101" rx="1.0070922" ry="1"></ellipse>
                        <ellipse id="Oval" cx="182.283688" cy="101" rx="1.0070922" ry="1"></ellipse>
                        <ellipse id="Oval" cx="192.35461" cy="101" rx="1.0070922" ry="1"></ellipse>
                        <ellipse id="Oval" cx="111.787234" cy="111" rx="1.0070922" ry="1"></ellipse>
                        <ellipse id="Oval" cx="121.858156" cy="111" rx="1.0070922" ry="1"></ellipse>
                        <ellipse id="Oval" cx="131.929078" cy="111" rx="1.0070922" ry="1"></ellipse>
                        <ellipse id="Oval" cx="142" cy="111" rx="1.0070922" ry="1"></ellipse>
                        <ellipse id="Oval" cx="152.070922" cy="111" rx="1.0070922" ry="1"></ellipse>
                        <ellipse id="Oval" cx="162.141844" cy="111" rx="1.0070922" ry="1"></ellipse>
                        <ellipse id="Oval" cx="172.212766" cy="111" rx="1.0070922" ry="1"></ellipse>
                        <ellipse id="Oval" cx="182.283688" cy="111" rx="1.0070922" ry="1"></ellipse>
                        <ellipse id="Oval" cx="192.35461" cy="111" rx="1.0070922" ry="1"></ellipse>
                        <ellipse id="Oval" cx="111.787234" cy="121" rx="1.0070922" ry="1"></ellipse>
                        <ellipse id="Oval" cx="121.858156" cy="121" rx="1.0070922" ry="1"></ellipse>
                        <ellipse id="Oval" cx="131.929078" cy="121" rx="1.0070922" ry="1"></ellipse>
                        <ellipse id="Oval" cx="142" cy="121" rx="1.0070922" ry="1"></ellipse>
                        <ellipse id="Oval" cx="152.070922" cy="121" rx="1.0070922" ry="1"></ellipse>
                        <ellipse id="Oval" cx="162.141844" cy="121" rx="1.0070922" ry="1"></ellipse>
                        <ellipse id="Oval" cx="172.212766" cy="121" rx="1.0070922" ry="1"></ellipse>
                        <ellipse id="Oval" cx="182.283688" cy="121" rx="1.0070922" ry="1"></ellipse>
                        <ellipse id="Oval" cx="192.35461" cy="121" rx="1.0070922" ry="1"></ellipse>
                        <ellipse id="Oval" cx="111.787234" cy="131" rx="1.0070922" ry="1"></ellipse>
                        <ellipse id="Oval" cx="121.858156" cy="131" rx="1.0070922" ry="1"></ellipse>
                        <ellipse id="Oval" cx="131.929078" cy="131" rx="1.0070922" ry="1"></ellipse>
                        <ellipse id="Oval" cx="142" cy="131" rx="1.0070922" ry="1"></ellipse>
                        <ellipse id="Oval" cx="152.070922" cy="131" rx="1.0070922" ry="1"></ellipse>
                        <ellipse id="Oval" cx="162.141844" cy="131" rx="1.0070922" ry="1"></ellipse>
                        <ellipse id="Oval" cx="172.212766" cy="131" rx="1.0070922" ry="1"></ellipse>
                        <ellipse id="Oval" cx="182.283688" cy="131" rx="1.0070922" ry="1"></ellipse>
                        <ellipse id="Oval" cx="192.35461" cy="131" rx="1.0070922" ry="1"></ellipse>
                        <ellipse id="Oval" cx="182.283688" cy="1" rx="1.0070922" ry="1"></ellipse>
                        <ellipse id="Oval" cx="192.35461" cy="1" rx="1.0070922" ry="1"></ellipse>
                        <ellipse id="Oval" cx="182.283688" cy="11" rx="1.0070922" ry="1"></ellipse>
                        <ellipse id="Oval" cx="192.35461" cy="11" rx="1.0070922" ry="1"></ellipse>
                        <ellipse id="Oval" cx="182.283688" cy="21" rx="1.0070922" ry="1"></ellipse>
                        <ellipse id="Oval" cx="192.35461" cy="21" rx="1.0070922" ry="1"></ellipse>
                        <ellipse id="Oval" cx="182.283688" cy="31" rx="1.0070922" ry="1"></ellipse>
                        <ellipse id="Oval" cx="192.35461" cy="31" rx="1.0070922" ry="1"></ellipse>
                        <ellipse id="Oval" cx="182.283688" cy="41" rx="1.0070922" ry="1"></ellipse>
                        <ellipse id="Oval" cx="192.35461" cy="41" rx="1.0070922" ry="1"></ellipse>
                        <ellipse id="Oval" cx="182.283688" cy="51" rx="1.0070922" ry="1"></ellipse>
                        <ellipse id="Oval" cx="192.35461" cy="51" rx="1.0070922" ry="1"></ellipse>
                        <ellipse id="Oval" cx="182.283688" cy="61" rx="1.0070922" ry="1"></ellipse>
                        <ellipse id="Oval" cx="192.35461" cy="61" rx="1.0070922" ry="1"></ellipse>
                        <ellipse id="Oval" cx="182.283688" cy="71" rx="1.0070922" ry="1"></ellipse>
                        <ellipse id="Oval" cx="192.35461" cy="71" rx="1.0070922" ry="1"></ellipse>
                        <ellipse id="Oval" cx="182.283688" cy="81" rx="1.0070922" ry="1"></ellipse>
                        <ellipse id="Oval" cx="192.35461" cy="81" rx="1.0070922" ry="1"></ellipse>
                        <ellipse id="Oval" cx="182.283688" cy="91" rx="1.0070922" ry="1"></ellipse>
                        <ellipse id="Oval" cx="192.35461" cy="91" rx="1.0070922" ry="1"></ellipse>
                        <ellipse id="Oval" cx="182.283688" cy="101" rx="1.0070922" ry="1"></ellipse>
                        <ellipse id="Oval" cx="192.35461" cy="101" rx="1.0070922" ry="1"></ellipse>
                        <ellipse id="Oval" cx="182.283688" cy="111" rx="1.0070922" ry="1"></ellipse>
                        <ellipse id="Oval" cx="192.35461" cy="111" rx="1.0070922" ry="1"></ellipse>
                        <ellipse id="Oval" cx="182.283688" cy="121" rx="1.0070922" ry="1"></ellipse>
                        <ellipse id="Oval" cx="192.35461" cy="121" rx="1.0070922" ry="1"></ellipse>
                        <ellipse id="Oval" cx="182.283688" cy="131" rx="1.0070922" ry="1"></ellipse>
                        <ellipse id="Oval" cx="192.35461" cy="131" rx="1.0070922" ry="1"></ellipse>
                    </g>
                </g>
            </g>
        </g>
    </g>
</svg>