<?xml version="1.0" encoding="UTF-8"?>
<svg width="16px" height="11px" viewBox="0 0 16 11" version="1.1" xmlns="http://www.w3.org/2000/svg" xmlns:xlink="http://www.w3.org/1999/xlink">
    <!-- Generator: Sketch 59 (86127) - https://sketch.com -->
    <title>icons/drop_default</title>
    <desc>Created with Sketch.</desc>
    <g id="Page-1" stroke="none" stroke-width="1" fill="none" fill-rule="evenodd">
        <g id="What-is-Rentorr---Main-Page-Form" transform="translate(-1152.000000, -509.000000)" fill="#3C404E" fill-rule="nonzero">
            <g id="Block-1" transform="translate(134.000000, 96.000000)">
                <g id="Form" transform="translate(560.000000, 37.000000)">
                    <g transform="translate(58.000000, 133.000000)" id="Fields/input_default">
                        <g transform="translate(0.000000, 216.000000)">
                            <g id="Icons/16/View_default" transform="translate(400.000000, 24.000000)">
                                <path d="M7.91666667,3 C2.58333333,3 -1.54543045e-13,8.36666667 -1.54543045e-13,8.36666667 C-1.54543045e-13,8.36666667 2.56666667,13.7333333 7.91666667,13.7333333 C13.2666667,13.7333333 15.8333333,8.36666667 15.8333333,8.36666667 C15.8333333,8.36666667 13.25,3 7.91666667,3 Z M7.91666667,12.5166667 C5.61666667,12.5166667 3.76666667,10.65 3.76666667,8.36666667 C3.76666667,6.06666667 5.63333333,4.21666667 7.91666667,4.21666667 C10.2,4.21666667 12.0666667,6.08333333 12.0666667,8.36666667 C12.0666667,10.6666667 10.2166667,12.5166667 7.91666667,12.5166667 Z" id="Shape"></path>
                                <path d="M9.86666667,7.6 C9.21666667,7.6 8.68333333,7.06666667 8.68333333,6.41666667 C8.68333333,6.21666667 8.73333333,6.01666667 8.83333333,5.85 C8.55,5.75 8.23333333,5.68333333 7.91666667,5.68333333 C6.43333333,5.68333333 5.21666667,6.88333333 5.21666667,8.36666667 C5.21666667,9.85 6.41666667,11.0666667 7.91666667,11.0666667 C9.4,11.0666667 10.6,9.86666667 10.6,8.36666667 C10.6,8.05 10.55,7.73333333 10.4333333,7.45 C10.2833333,7.55 10.0833333,7.6 9.86666667,7.6 Z" id="Path"></path>
                            </g>
                        </g>
                    </g>
                </g>
            </g>
        </g>
    </g>
</svg>