<svg xmlns="http://www.w3.org/2000/svg" width="518" height="448" viewBox="0 0 518 448"><defs><mask id="hfozb" width="2" height="2" x="-1" y="-1"><path fill="#fff" d="M74 24h420v370H74z"/><path d="M74 32a8 8 0 0 1 8-8h404a8 8 0 0 1 8 8v354a8 8 0 0 1-8 8H82a8 8 0 0 1-8-8z"/></mask><filter id="hfoza" width="504" height="454" x="32" y="-18" filterUnits="userSpaceOnUse"><feOffset in="SourceGraphic" result="FeOffset12752Out"/><feGaussianBlur in="FeOffset12752Out" result="FeGaussianBlur12753Out" stdDeviation="12.8 12.8"/></filter><mask id="hfozd" width="2" height="2" x="-1" y="-1"><path fill="#fff" d="M24 54h430v370H24z"/><path d="M24 62a8 8 0 0 1 8-8h414a8 8 0 0 1 8 8v354a8 8 0 0 1-8 8H32a8 8 0 0 1-8-8z"/></mask><filter id="hfozc" width="514" height="454" x="-18" y="12" filterUnits="userSpaceOnUse"><feOffset in="SourceGraphic" result="FeOffset12768Out"/><feGaussianBlur in="FeOffset12768Out" result="FeGaussianBlur12769Out" stdDeviation="12.8 12.8"/></filter></defs><g><g><g filter="url(#hfoza)"><path fill="none" d="M74 32a8 8 0 0 1 8-8h404a8 8 0 0 1 8 8v354a8 8 0 0 1-8 8H82a8 8 0 0 1-8-8z" mask="url(&quot;#hfozb&quot;)"/><path fill="#81818b" fill-opacity=".1" d="M74 32a8 8 0 0 1 8-8h404a8 8 0 0 1 8 8v354a8 8 0 0 1-8 8H82a8 8 0 0 1-8-8z"/></g><path fill="#fff" d="M74 32a8 8 0 0 1 8-8h404a8 8 0 0 1 8 8v354a8 8 0 0 1-8 8H82a8 8 0 0 1-8-8z"/></g><g><g filter="url(#hfozc)"><path fill="none" d="M24 62a8 8 0 0 1 8-8h414a8 8 0 0 1 8 8v354a8 8 0 0 1-8 8H32a8 8 0 0 1-8-8z" mask="url(&quot;#hfozd&quot;)"/><path fill="#81818b" fill-opacity=".1" d="M24 62a8 8 0 0 1 8-8h414a8 8 0 0 1 8 8v354a8 8 0 0 1-8 8H32a8 8 0 0 1-8-8z"/></g><path fill="#fff" d="M24 62a8 8 0 0 1 8-8h414a8 8 0 0 1 8 8v354a8 8 0 0 1-8 8H32a8 8 0 0 1-8-8z"/></g></g></svg>