<?xml version="1.0" encoding="UTF-8"?>
<svg width="60px" height="40px" viewBox="0 0 60 40" version="1.1" xmlns="http://www.w3.org/2000/svg" xmlns:xlink="http://www.w3.org/1999/xlink">
    <!-- Generator: Sketch 59 (86127) - https://sketch.com -->
    <title>“</title>
    <desc>Created with Sketch.</desc>
    <g id="archive" stroke="none" stroke-width="1" fill="none" fill-rule="evenodd" opacity="0.5">
        <g id="Main-page" transform="translate(-66.000000, -4926.000000)" fill="#FFFFFF" fill-rule="nonzero">
            <path d="M120.12,4926.282 L125.862,4933.242 L124.875998,4933.78333 C124.257333,4934.11844 123.716002,4934.402 123.252,4934.634 C118.263975,4937.41801 114.958008,4940.89798 113.334,4945.074 L122.904,4945.074 L122.904,4965.432 L103.59,4965.432 L103.59,4951.512 C103.59,4941.53595 109.099945,4933.12603 120.12,4926.282 Z M83.232,4926.282 L88.974,4933.242 L87.9879985,4933.78333 C87.3693326,4934.11844 86.8280023,4934.402 86.364,4934.634 C81.3759751,4937.41801 78.0700081,4940.89798 76.446,4945.074 L86.016,4945.074 L86.016,4965.432 L66.702,4965.432 L66.702,4951.512 C66.702,4941.53595 72.2119449,4933.12603 83.232,4926.282 Z" id="“"></path>
        </g>
    </g>
</svg>