<?xml version="1.0" encoding="UTF-8"?>
<svg width="47px" height="32px" viewBox="0 0 47 32" version="1.1" xmlns="http://www.w3.org/2000/svg" xmlns:xlink="http://www.w3.org/1999/xlink">
    <!-- Generator: Sketch 59 (86127) - https://sketch.com -->
    <title>“</title>
    <desc>Created with Sketch.</desc>
    <g id="archive" stroke="none" stroke-width="1" fill="none" fill-rule="evenodd">
        <g id="Main-page" transform="translate(-874.000000, -4023.000000)" fill="#1A5DC6" fill-rule="nonzero">
            <path d="M915.8,4023.805 L920.255,4029.205 L919.400702,4029.67328 C918.957734,4029.91234 918.567502,4030.11625 918.23,4030.285 C914.359981,4032.44501 911.795006,4035.14498 910.535,4038.385 L917.96,4038.385 L917.96,4054.18 L902.975,4054.18 L902.975,4043.38 C902.975,4035.63996 907.249957,4029.11503 915.8,4023.805 Z M887.18,4023.805 L891.635,4029.205 L890.780702,4029.67328 C890.337734,4029.91234 889.947502,4030.11625 889.61,4030.285 C885.739981,4032.44501 883.175006,4035.14498 881.915,4038.385 L889.34,4038.385 L889.34,4054.18 L874.355,4054.18 L874.355,4043.38 C874.355,4035.63996 878.629957,4029.11503 887.18,4023.805 Z" id="“"></path>
        </g>
    </g>
</svg>