<svg xmlns="http://www.w3.org/2000/svg" width="21" height="22" viewBox="0 0 21 22"><g><g><g><path fill="#1a5dc6" d="M7.375.004A3.277 3.277 0 0 0 4.628 1.84L3.66 3.817l-1.892 1.01C.343 5.587-.332 7.294.161 8.884l.654 2.113L.16 13.11c-.494 1.59.18 3.296 1.606 4.058l1.892 1.008.969 1.977c.71 1.455 2.398 2.187 3.88 1.683l2.024-.686 2.021.684c.324.11.659.165.998.165 1.223 0 2.328-.707 2.885-1.846l.967-1.977 1.894-1.01c1.424-.762 2.1-2.469 1.606-4.058l-.654-2.112.654-2.113c.494-1.59-.18-3.297-1.606-4.057l-1.892-1.01-.969-1.977c-.709-1.454-2.4-2.184-3.88-1.681l-2.024.683L8.51.162A3.02 3.02 0 0 0 7.375.003z"/></g><g><path fill="#fff" d="M13.992 6.97L9.18 11.998 7.096 9.82 5.81 11.163l3.37 3.522 6.097-6.372z"/></g></g></g></svg>