<svg xmlns="http://www.w3.org/2000/svg" width="19" height="20" viewBox="0 0 19 20"><g><g><path fill="#1a5dc6" d="M1.056 17.827c-.583 0-1.056.487-1.056 1.086C0 19.513.473 20 1.056 20h16.888c.583 0 1.056-.487 1.056-1.087s-.473-1.086-1.056-1.086zM9.5 0c-.146 0-.292.03-.429.093L.951 3.81A1.65 1.65 0 0 0 0 5.314c0 .91.716 1.647 1.6 1.647h.511v7.606c0 .6.473 1.087 1.056 1.087.582 0 1.055-.487 1.055-1.087V6.961h2.111v7.606c0 .6.473 1.087 1.056 1.087.583 0 1.055-.487 1.055-1.087V6.961h2.112v7.606c0 .6.472 1.087 1.055 1.087s1.056-.487 1.056-1.087V6.961h2.11v7.606c0 .6.474 1.087 1.056 1.087.583 0 1.056-.487 1.056-1.087V6.961h.511c.884 0 1.6-.737 1.6-1.647 0-.65-.373-1.24-.95-1.505L9.929.093A1.028 1.028 0 0 0 9.5 0z"/></g></g></svg>