<?xml version="1.0" encoding="UTF-8"?>
<svg width="56px" height="56px" viewBox="0 0 56 56" version="1.1" xmlns="http://www.w3.org/2000/svg" xmlns:xlink="http://www.w3.org/1999/xlink">
    <!-- Generator: Sketch 58 (84663) - https://sketch.com -->
    <title>ic-calendar-default-56px</title>
    <desc>Created with Sketch.</desc>
    <g id="Page-1" stroke="none" stroke-width="1" fill="none" fill-rule="evenodd">
        <g id="Rentorr-Landing---Landlord-2" transform="translate(-134.000000, -2971.000000)" fill="#1A5DC6" fill-rule="nonzero">
            <g id="Block-4" transform="translate(134.000000, 2803.000000)">
                <g id="Item-1" transform="translate(0.000000, 161.000000)">
                    <g id="ic-calendar-default-56px">
                        <g transform="translate(17.000000, 24.000000)">
                            <path d="M10.3125,0.644144531 L10.3125,4.59765625 C10.3125,5.44959766 11.6015625,5.45307812 11.6015625,4.59765625 L11.6015625,0.644144531 C11.6015625,-0.223867188 10.3125,-0.2055625 10.3125,0.644144531 Z" id="Path"></path>
                            <path d="M3.8671875,0.644144531 C3.8671875,3.12275391 3.8671875,2.11904687 3.8671875,4.59765625 C3.8671875,5.46566797 5.15625,5.44736328 5.15625,4.59765625 C5.15625,2.11904687 5.15625,3.12275391 5.15625,0.644144531 C5.15625,-0.223867188 3.8671875,-0.2055625 3.8671875,0.644144531 Z" id="Path"></path>
                            <path d="M16.84375,0.644144531 L16.84375,4.59765625 C16.84375,5.44959766 18.1328125,5.45307812 18.1328125,4.59765625 L18.1328125,0.644144531 C18.1328125,-0.223867188 16.84375,-0.2055625 16.84375,0.644144531 Z" id="Path"></path>
                            <rect id="Rectangle" x="7.734375" y="15.5546875" width="2.578125" height="2.578125"></rect>
                            <rect id="Rectangle" x="3.8671875" y="15.5546875" width="2.578125" height="2.578125"></rect>
                            <rect id="Rectangle" x="11.6015625" y="15.5546875" width="2.6640625" height="2.578125"></rect>
                            <rect id="Rectangle" x="3.8671875" y="11.6875" width="2.578125" height="2.578125"></rect>
                            <rect id="Rectangle" x="7.734375" y="11.6875" width="2.578125" height="2.578125"></rect>
                            <path d="M0,9.109375 L0,20.0664062 C0,21.1362852 0.863628906,22 1.93359375,22 L20.0664062,22 C21.1363711,22 22,21.1362852 22,20.0664062 L22,9.109375 L0,9.109375 Z M19.421875,18.7773438 C19.421875,19.1335977 19.1335977,19.421875 18.7773438,19.421875 L3.22265625,19.421875 C2.86640234,19.421875 2.578125,19.1335977 2.578125,18.7773438 L2.578125,11.0429688 C2.578125,10.6867148 2.86640234,10.3984375 3.22265625,10.3984375 L18.7773438,10.3984375 C19.1335977,10.3984375 19.421875,10.6867148 19.421875,11.0429688 L19.421875,18.7773438 Z" id="Shape"></path>
                            <rect id="Rectangle" x="15.5546875" y="11.6875" width="2.578125" height="2.578125"></rect>
                            <rect id="Rectangle" x="11.6015625" y="11.6875" width="2.6640625" height="2.578125"></rect>
                            <rect id="Rectangle" x="15.5546875" y="15.5546875" width="2.578125" height="2.578125"></rect>
                            <path d="M20.0664062,2.6640625 L19.421875,2.6640625 L19.421875,3.953125 L19.421875,4.59765625 C19.421875,5.16729297 19.1959023,5.68089844 18.7855078,6.04407031 C18.4330352,6.35563672 17.9729258,6.52682422 17.4888828,6.52682422 C16.4043945,6.52682422 15.5546875,5.67965234 15.5546875,4.59765625 L15.5546875,3.953125 L15.5546875,2.6640625 L12.890625,2.6640625 L12.890625,3.953125 L12.890625,4.59765625 C12.890625,5.16729297 12.6646523,5.68089844 12.2542578,6.04407031 C11.9017852,6.35563672 11.4416758,6.52682422 10.9576328,6.52682422 C9.87314453,6.52682422 9.0234375,5.67965234 9.0234375,4.59765625 L9.0234375,3.953125 L9.0234375,2.6640625 L6.4453125,2.6640625 L6.4453125,3.953125 L6.4453125,4.59765625 C6.4453125,5.16789453 6.21809375,5.68214453 5.80580859,6.04596094 C5.45208984,6.35877344 4.99069141,6.53060547 4.50669141,6.53060547 C3.42533984,6.53060547 2.578125,5.68154297 2.578125,4.59765625 L2.578125,3.953125 L2.578125,2.6640625 L1.93359375,2.6640625 C0.863628906,2.6640625 0,3.52773437 0,4.59765625 L0,7.8203125 L1.2890625,7.8203125 L4.51171875,7.8203125 L10.9570312,7.8203125 L17.4882812,7.8203125 L19.421875,7.8203125 L22,7.8203125 L22,4.59765625 C22,3.52773437 21.1363711,2.6640625 20.0664062,2.6640625 Z" id="Path"></path>
                        </g>
                    </g>
                </g>
            </g>
        </g>
    </g>
</svg>