<?xml version="1.0" encoding="UTF-8"?>
<svg width="20px" height="19px" viewBox="0 0 20 19" version="1.1" xmlns="http://www.w3.org/2000/svg" xmlns:xlink="http://www.w3.org/1999/xlink">
    <!-- Generator: Sketch 58 (84663) - https://sketch.com -->
    <title>ic-messages-default-56px</title>
    <desc>Created with Sketch.</desc>
    <g id="Page-1" stroke="none" stroke-width="1" fill="none" fill-rule="evenodd">
        <g id="Rentorr-Landing---Landlord-2" transform="translate(-898.000000, -2991.000000)" fill="#1A5DC6" fill-rule="nonzero">
            <g id="Block-4" transform="translate(134.000000, 2803.000000)">
                <g id="Item-3" transform="translate(746.000000, 160.000000)">
                    <g id="ic-messages-default-56px" transform="translate(18.000000, 0.000000)">
                        <g transform="translate(0.000000, 28.000000)" id="Path">
                            <path d="M7,-1.08357767e-13 C3.134,-1.08357767e-13 0,2.686 0,6 C0,7.127 0.369,8.177125 1,9.078125 L1,12.716797 C1,13.245797 1.6043438,13.548469 2.0273438,13.230469 L4.2890625,11.533203 C5.1220625,11.833203 6.039,12 7,12 C10.866,12 14,9.314 14,6 C14,2.686 10.866,-1.08357767e-13 7,-1.08357767e-13 Z"></path>
                            <path d="M15.976562,5.5742188 C15.984563,5.7162188 16,5.857 16,6 C16,10.411 11.963,14 7,14 C6.98,14 6.9604063,13.996094 6.9414062,13.996094 C8.151406,15.789094 10.409,17 13,17 C13.961,17 14.876938,16.833203 15.710938,16.533203 L17.974609,18.230469 C18.396609,18.547469 19,18.244797 19,17.716797 L19,14.078125 C19.631,13.177125 20,12.127 20,11 C20,8.6 18.352563,6.5342188 15.976562,5.5742188 Z"></path>
                        </g>
                    </g>
                </g>
            </g>
        </g>
    </g>
</svg>