<?xml version="1.0" encoding="UTF-8"?>
<svg width="22px" height="22px" viewBox="0 0 22 22" version="1.1" xmlns="http://www.w3.org/2000/svg" xmlns:xlink="http://www.w3.org/1999/xlink">
    <!-- Generator: Sketch 58 (84663) - https://sketch.com -->
    <title>ic-verify-default-56px</title>
    <desc>Created with Sketch.</desc>
    <g id="Page-1" stroke="none" stroke-width="1" fill="none" fill-rule="evenodd">
        <g id="Rentorr-Landing---Landlord-2" transform="translate(-524.000000, -2988.000000)" fill-rule="nonzero">
            <g id="Block-4" transform="translate(134.000000, 2803.000000)">
                <g id="Item-2" transform="translate(373.000000, 151.000000)">
                    <g id="ic-verify-default-56px" transform="translate(17.000000, 0.000000)">
                        <g transform="translate(0.000000, 34.000000)" id="Group">
                            <g>
                                <path d="M7.3750413,0.00428760408 C6.23939562,0.0645302821 5.15978598,0.749446948 4.62752452,1.83959185 L3.66095804,3.81673453 L1.76895548,4.8267965 C0.343273957,5.58711961 -0.332022943,7.29427057 0.160753239,8.88423703 L0.814728093,10.9967711 L0.160753239,13.1114542 C-0.333075883,14.7014208 0.341217354,16.4074714 1.76689887,17.1688948 L3.65890144,18.1768082 L4.62752452,20.1539509 C5.3382594,21.6085777 7.02564603,22.3406182 8.50818634,21.8366703 L10.5318065,21.1511185 L12.5533702,21.8345213 C12.876623,21.9445536 13.2117382,22 13.550785,22 C14.7743019,22 15.879083,21.2927851 16.4360885,20.1539509 L17.4026553,18.1768082 L19.2967143,17.1667459 C20.7213429,16.4053225 21.3966884,14.6981715 20.9028593,13.1093053 L20.2488853,10.9967711 L20.9028593,8.88423703 C21.3966884,7.29317025 20.7223958,5.58711961 19.2967143,4.8267965 L17.4047117,3.81673453 L16.4360885,1.83959185 C15.7274595,0.386065315 14.036914,-0.343827049 12.5554266,0.15902051 L10.5318065,0.842424232 L8.51024273,0.161169661 C8.13723864,0.0343573379 7.75358996,-0.0157932886 7.3750413,0.00428760408 Z" id="Path" fill="#1A5DC6"></path>
                                <polygon id="Path" fill="#FFFFFF" points="13.9956811 6.97274488 9.18389106 12.0010656 7.09937397 9.82274507 5.81386269 11.166104 9.18389106 14.6877834 15.281192 8.31610416"></polygon>
                            </g>
                        </g>
                    </g>
                </g>
            </g>
        </g>
    </g>
</svg>