<svg xmlns="http://www.w3.org/2000/svg" width="12" height="17" viewBox="0 0 12 17"><g><g><path fill="#1a5dc6" d="M.46 16.91c0-1.64.263-3.088.788-4.346.525-1.257 1.186-2.268 1.982-3.032.796-.764 1.782-1.472 2.96-2.125.685-.366 1.214-.732 1.588-1.098.374-.366.561-.804.561-1.313 0-1.099-.589-1.648-1.767-1.648-1.146 0-2.013.557-2.602 1.672L.723 3.563A5.989 5.989 0 0 1 3.05.89 6.292 6.292 0 0 1 6.453-.09c1.687 0 3.02.47 4 1.409.978.939 1.468 2.117 1.468 3.533 0 1.322-.29 2.364-.872 3.128-.58.764-1.468 1.489-2.662 2.173-1.162.7-1.998 1.27-2.507 1.707-.51.438-.9.96-1.17 1.564h7.354v3.486z"/></g></g></svg>