<?xml version="1.0" encoding="UTF-8"?>
<svg width="12px" height="8px" viewBox="0 0 12 8" version="1.1" xmlns="http://www.w3.org/2000/svg" xmlns:xlink="http://www.w3.org/1999/xlink">
    <!-- Generator: Sketch 59 (86127) - https://sketch.com -->
    <title>arr-nav</title>
    <desc>Created with Sketch.</desc>
    <g id="Design" stroke="none" stroke-width="1" fill="none" fill-rule="evenodd">
        <g id="arr-nav" fill="#222634" fill-rule="nonzero">
            <path d="M7.914,7.98 L11.982,4.05 C12.009,4.023 12.004,3.979 11.976,3.95 L7.92,0.029 C7.90721516,0.0107386734 7.88629168,-9.66989895e-05 7.864,-6.41812527e-07 C7.826,-6.41812527e-07 7.798,0.033 7.798,0.072 L7.798,2.762 L0.066,2.762 C0.0485073852,2.76145081 0.031552963,2.7680891 0.0190836179,2.78036952 C0.00661427275,2.79264994 -0.00028207561,2.80950104 -8.3253208e-06,2.827 L-8.3253208e-06,5.173 C-8.3253208e-06,5.212 0.028,5.239 0.066,5.239 L7.798,5.239 L7.798,7.929 C7.798,7.951 7.803,7.967 7.814,7.979 C7.82716623,7.99243772 7.84518719,8.00001021 7.864,8.00001021 C7.88281281,8.00001021 7.90083377,7.99243772 7.914,7.979 L7.914,7.98 Z" id="Path"></path>
        </g>
    </g>
</svg>