<svg xmlns="http://www.w3.org/2000/svg" width="20" height="19" viewBox="0 0 20 19"><g><g><path fill="#666b7c" d="M13 15.718v.82H0v-.82l1.625-1.641V9.974c0-2.527 1.324-4.627 3.656-5.185V4.23C5.281 3.55 5.826 3 6.5 3s1.219.55 1.219 1.23v.559c2.323.558 3.656 2.666 3.656 5.185v4.103zm-8.125 1.641h3.25C8.125 18.262 7.394 19 6.5 19a1.633 1.633 0 0 1-1.625-1.641z"/></g><g opacity=".2"><path fill="#ff5722" d="M14 12a6 6 0 1 0 0-12 6 6 0 0 0 0 12z"/></g><g><path fill="#ff5722" d="M14 9a3 3 0 1 0 0-6 3 3 0 0 0 0 6z"/></g></g></svg>