<?xml version="1.0" encoding="UTF-8"?>
<svg width="40px" height="36px" viewBox="0 0 40 36" version="1.1" xmlns="http://www.w3.org/2000/svg" xmlns:xlink="http://www.w3.org/1999/xlink">
    <!-- Generator: Sketch 61 (89581) - https://sketch.com -->
    <title>Group 30</title>
    <desc>Created with Sketch.</desc>
    <g id="Symbols" stroke="none" stroke-width="1" fill="none" fill-rule="evenodd">
        <g id="Icons/72/Credit-card_active" transform="translate(-16.000000, -18.000000)">
            <g id="Group-30" transform="translate(12.000000, 12.000000)">
                <rect id="Rectangle" x="0" y="0" width="48" height="48"></rect>
                <g id="icons8-bank-cards" transform="translate(4.000000, 6.000000)" fill-rule="nonzero">
                    <path d="M3.47826087,0 C1.56589652,0 0,1.58117356 0,3.51219512 L0,22.8292683 C0,24.5442073 1.23641304,25.9607467 2.85326087,26.2591463 L3.99456522,32.7621951 C4.32744609,34.662348 6.1345113,35.9519821 8.01630435,35.6158537 L37.1195652,30.375 C39.0013591,30.0388724 40.278533,28.2141773 39.9456522,26.3140244 L36.6032609,7.29878049 C36.5896739,7.21303376 36.5625,7.13071668 36.5217391,7.05182927 L36.5217391,3.51219512 C36.5217391,1.58117356 34.9558426,0 33.0434783,0 L3.47826087,0 Z" id="Shape" fill="#1A5DC6"></path>
                    <path d="M36.5217391,16.875 L38.2336957,26.6158537 C38.403533,27.5796492 37.778533,28.474848 36.8206522,28.6463415 L7.7173913,33.8871951 C6.76290783,34.0586895 5.87635913,33.4275919 5.70652174,32.4603659 L4.61956522,26.3414634 L33.0434783,26.3414634 C34.9558426,26.3414634 36.5217391,24.7602899 36.5217391,22.8292683 L36.5217391,16.875 Z" id="Path" fill="#DFEBFF"></path>
                </g>
                <path d="M7.47826087,7.75609756 L37.0434783,7.75609756 C38.0149461,7.75609756 38.7826087,8.53125044 38.7826087,9.51219512 L38.7826087,12.1463415 L5.73913043,12.1463415 L5.73913043,9.51219512 C5.73913043,8.53125044 6.50679391,7.75609756 7.47826087,7.75609756 Z" id="Path" fill="#FFFFFF" fill-rule="nonzero"></path>
                <path d="M5.73913043,16.5365854 L38.7826087,16.5365854 L38.7826087,28.8292683 C38.7826087,29.8102139 38.0149461,30.5853659 37.0434783,30.5853659 L7.47826087,30.5853659 C6.50679391,30.5853659 5.73913043,29.8102139 5.73913043,28.8292683 L5.73913043,16.5365854 Z" id="Path" fill="#FFFFFF" fill-rule="nonzero"></path>
                <polygon id="Path" fill="#1A5DC6" fill-rule="nonzero" points="10.0869565 19.1707317 10.0869565 20.9268293 24 20.9268293 24 19.1707317"></polygon>
            </g>
        </g>
    </g>
</svg>