<svg xmlns="http://www.w3.org/2000/svg" width="17" height="19" viewBox="0 0 17 19"><g><g opacity=".59"><path fill="#fff" d="M0 12.216L8.523 18 17 12.68 9.012 7z"/><path fill="none" stroke="#1a5dc6" stroke-miterlimit="50" stroke-width=".84" d="M0 12.216v0L8.523 18v0L17 12.68v0L9.012 7v0z"/></g><g opacity=".88"><path fill="#fff" d="M0 9.216L8.523 15 17 9.68 9.012 4z"/><path fill="none" stroke="#1a5dc6" stroke-miterlimit="50" stroke-width=".84" d="M0 9.216v0L8.523 15v0L17 9.68v0L9.012 4v0z"/></g><g><path fill="#1a5dc6" d="M0 6.216L8.523 12 17 6.68 9.012 1z"/><path fill="none" stroke="#1a5dc6" stroke-miterlimit="50" stroke-width=".84" d="M0 6.216v0L8.523 12v0L17 6.68v0L9.012 1v0z"/></g></g></svg>