<?xml version="1.0" encoding="UTF-8"?>
<svg width="14px" height="14px" viewBox="0 0 14 14" version="1.1" xmlns="http://www.w3.org/2000/svg" xmlns:xlink="http://www.w3.org/1999/xlink">
    <!-- Generator: sketchtool 55.2 (78181) - https://sketchapp.com -->
    <title>9AE6C898-27E4-45E1-B241-C2516F5538D6</title>
    <desc>Created with sketchtool.</desc>
    <g id="Landing" stroke="none" stroke-width="1" fill="none" fill-rule="evenodd">
        <g id="M-01-12" transform="translate(-240.000000, -133.000000)" fill="#3C404E">
            <g id="02" transform="translate(48.000000, 107.000000)">
                <g id="Heading-01" transform="translate(149.000000, 25.000000)">
                    <g id="icons/filters" transform="translate(42.000000, 0.000000)">
                        <path d="M11,8 L11,1 L13,1 L13,8 L14.5,8 L14.5,13 L13,13 L13,15 L11,15 L11,13 L9.5,13 L9.5,8 L11,8 Z M5,3 L6.5,3 L6.5,8 L5,8 L5,15 L3,15 L3,8 L1.5,8 L1.5,3 L3,3 L3,1 L5,1 L5,3 Z" id="Combined-Shape"></path>
                    </g>
                </g>
            </g>
        </g>
    </g>
</svg>