<svg xmlns="http://www.w3.org/2000/svg" width="20" height="20" viewBox="0 0 20 20"><g><g><g opacity=".59"><path fill="#fff" d="M9 20.216L17.523 26 26 20.68 18.012 15z"/><path fill="none" stroke="#222634" stroke-miterlimit="50" stroke-width=".84" d="M9 20.216v0L17.523 26v0L26 20.68v0L18.012 15v0z"/></g><g opacity=".88"><path fill="#fff" d="M9 17.216L17.523 23 26 17.68 18.012 12z"/><path fill="none" stroke="#3c404e" stroke-miterlimit="50" stroke-width=".84" d="M9 17.216v0L17.523 23v0L26 17.68v0L18.012 12v0z"/></g><g><path fill="#3c404e" d="M9 14.216L17.523 20 26 14.68 18.012 9z"/><path fill="none" stroke="#3c404e" stroke-miterlimit="50" stroke-width=".84" d="M9 14.216v0L17.523 20v0L26 14.68v0L18.012 9v0z"/></g></g></g></svg>