<svg xmlns="http://www.w3.org/2000/svg" width="56" height="56" viewBox="0 0 56 56"><g><g><g><path fill="#dfebff" d="M28 56c15.464 0 28-12.536 28-28S43.464 0 28 0 0 12.536 0 28s12.536 28 28 28z"/></g><g><g><path fill="#1a5dc6" d="M27.31 17.644v3.954c0 .852 1.29.855 1.29 0v-3.954c0-.868-1.29-.85-1.29 0z"/></g><g><path fill="#1a5dc6" d="M20.87 17.644v3.954c0 .868 1.29.85 1.29 0v-3.954c0-.868-1.29-.85-1.29 0z"/></g><g><path fill="#1a5dc6" d="M33.84 17.644v3.954c0 .852 1.29.855 1.29 0v-3.954c0-.868-1.29-.85-1.29 0z"/></g><g><path fill="#1a5dc6" d="M24.73 32.55h2.578v2.578H24.73z"/></g><g><path fill="#1a5dc6" d="M20.87 32.55h2.578v2.578H20.87z"/></g><g><path fill="#1a5dc6" d="M28.6 32.55h2.664v2.578H28.6z"/></g><g><path fill="#1a5dc6" d="M20.87 28.69h2.578v2.578H20.87z"/></g><g><path fill="#1a5dc6" d="M24.73 28.69h2.578v2.578H24.73z"/></g><g><path fill="#1a5dc6" d="M36.422 35.778a.644.644 0 0 1-.645.645H20.223a.644.644 0 0 1-.645-.645v-7.734c0-.357.288-.645.645-.645h15.554c.357 0 .645.288.645.645zM17 26.11v10.957c0 1.07.864 1.934 1.934 1.934h18.132c1.07 0 1.934-.864 1.934-1.934V26.11z"/></g><g><path fill="#1a5dc6" d="M32.55 28.69h2.578v2.578H32.55z"/></g><g><path fill="#1a5dc6" d="M28.6 28.69h2.664v2.578H28.6z"/></g><g><path fill="#1a5dc6" d="M32.55 32.55h2.578v2.578H32.55z"/></g><g><path fill="#1a5dc6" d="M37.066 19.66h-.644V21.594a1.9 1.9 0 0 1-.636 1.446 1.952 1.952 0 0 1-1.297.483 1.911 1.911 0 0 1-1.934-1.93V19.66H29.89V21.594a1.9 1.9 0 0 1-.637 1.446 1.952 1.952 0 0 1-1.296.483 1.911 1.911 0 0 1-1.935-1.93V19.66h-2.578V21.594a1.9 1.9 0 0 1-.64 1.448 1.956 1.956 0 0 1-1.298.485 1.91 1.91 0 0 1-1.929-1.933V19.66h-.644c-1.07 0-1.934.864-1.934 1.934v3.222h22v-3.222c0-1.07-.864-1.934-1.934-1.934z"/></g></g></g></g></svg>