<svg xmlns="http://www.w3.org/2000/svg" width="16" height="15" viewBox="0 0 16 15"><defs><clipPath id="51dda"><path fill="#fff" d="M8 14.68l-1.16-1.056C2.72 9.888 0 7.424 0 4.4 0 1.936 1.936 0 4.4 0A4.79 4.79 0 0 1 8 1.672 4.79 4.79 0 0 1 11.6 0C14.064 0 16 1.936 16 4.4c0 3.024-2.72 5.488-6.84 9.232z"/></clipPath></defs><g><g><path fill="#fff" d="M8 14.68l-1.16-1.056C2.72 9.888 0 7.424 0 4.4 0 1.936 1.936 0 4.4 0A4.79 4.79 0 0 1 8 1.672 4.79 4.79 0 0 1 11.6 0C14.064 0 16 1.936 16 4.4c0 3.024-2.72 5.488-6.84 9.232z"/><path fill="none" stroke="#9ba0b5" stroke-miterlimit="50" stroke-width="2" d="M8 14.68v0l-1.16-1.056C2.72 9.888 0 7.424 0 4.4 0 1.936 1.936 0 4.4 0A4.79 4.79 0 0 1 8 1.672 4.79 4.79 0 0 1 11.6 0C14.064 0 16 1.936 16 4.4c0 3.024-2.72 5.488-6.84 9.232z" clip-path="url(&quot;#51dda&quot;)"/></g></g></svg>