<?xml version="1.0" encoding="UTF-8"?>
<svg width="13px" height="12px" viewBox="0 0 13 12" version="1.1" xmlns="http://www.w3.org/2000/svg" xmlns:xlink="http://www.w3.org/1999/xlink">
    <!-- Generator: sketchtool 55.2 (78181) - https://sketchapp.com -->
    <title>D2D5C198-928D-4A2A-A560-62A8D6DE8970</title>
    <desc>Created with sketchtool.</desc>
    <g id="Landing" stroke="none" stroke-width="1" fill="none" fill-rule="evenodd">
        <g id="M-01-15" transform="translate(-245.000000, -534.000000)" fill="#FFFFFF" fill-rule="nonzero" stroke="#666B7C" stroke-width="0.5">
            <g id="Listing" transform="translate(48.000000, 383.000000)">
                <g id="Listing-details_white" transform="translate(0.000000, 146.000000)">
                    <g id="Icons/Apartment_default" transform="translate(191.000000, 0.000000)">
                        <path d="M12.4999285,6.4505993 C12.5832453,6.4505993 12.6667145,6.47778545 12.7303826,6.53200757 L14.6856627,8.19997597 C14.7322714,8.23962871 14.7755291,8.25855388 14.811628,8.25855388 C14.8745345,8.25855388 14.9161168,8.20132777 14.9161168,8.09603773 L14.9161168,7.69365256 C14.9161168,7.52783202 15.0525919,7.39325303 15.2207487,7.39325303 L15.981567,7.39325303 C16.1497238,7.39325303 16.286199,7.52783202 16.286199,7.69365256 L16.286199,9.26474211 C16.286199,9.43056265 16.3893169,9.6531587 16.516653,9.76175313 L17.4663431,10.5719307 C17.5936793,10.6805251 17.5603221,10.7685422 17.3921652,10.7685422 L16.5908309,10.7685422 C16.4226741,10.7685422 16.286199,10.8876506 16.286199,11.0345459 C16.286199,11.1814413 16.286199,11.3005497 16.286199,11.3005497 L16.286199,15.2491514 C16.286199,15.4149719 16.1497238,15.5495509 15.981567,15.5495509 L9.0184423,15.5495509 C8.85028546,15.5495509 8.71381035,15.4149719 8.71381035,15.2491514 L8.71381035,11.0690919 C8.71381035,10.9032714 8.57733524,10.7686924 8.4091784,10.7686924 L7.60784407,10.7686924 C7.43968724,10.7686924 7.40633004,10.6806753 7.53366619,10.5720809 L12.2696267,6.53215777 C12.3331425,6.47763525 12.4166117,6.4505993 12.4999285,6.4505993 L12.4999285,6.4505993 Z M12.4999285,6 C12.3032886,6 12.1153307,6.06789029 11.9706305,6.1910541 L7.23466994,10.2312776 C6.92333609,10.4966806 7.00056029,10.7858151 7.03163274,10.8681246 C7.0627052,10.9505843 7.19613399,11.2191415 7.60784407,11.2191415 L8.25686243,11.2191415 L8.25686243,15.2490012 C8.25686243,15.6631019 8.59850716,16 9.0184423,16 L15.981567,16 C16.4015021,16 16.7431469,15.6631019 16.7431469,15.2490012 L16.7431469,11.3003995 L16.7431469,11.2191415 L17.3921652,11.2191415 C17.8038753,11.2191415 17.9373041,10.9505843 17.9683766,10.8681246 C17.999449,10.7858151 18.0766732,10.4965304 17.765187,10.2311274 L16.8156493,9.42094986 C16.7867092,9.39391391 16.7449747,9.30394425 16.7431469,9.26384091 L16.7431469,7.69365256 C16.7431469,7.2795518 16.4015021,6.94265373 15.981567,6.94265373 L15.2207487,6.94265373 C14.8883953,6.94265373 14.6050876,7.1536844 14.5013604,7.44687434 L13.0293788,6.1912043 C12.8845263,6.06789029 12.6965684,6 12.4999285,6 L12.4999285,6 Z" id="Shape"></path>
                    </g>
                </g>
            </g>
        </g>
    </g>
</svg>