<?xml version="1.0" encoding="UTF-8"?>
<svg width="41px" height="35px" viewBox="0 0 41 35" version="1.1" xmlns="http://www.w3.org/2000/svg" xmlns:xlink="http://www.w3.org/1999/xlink">
    <!-- Generator: Sketch 61 (89581) - https://sketch.com -->
    <title>Shape</title>
    <desc>Created with Sketch.</desc>
    <g id="Symbols" stroke="none" stroke-width="1" fill="none" fill-rule="evenodd">
        <g id="Icons/16/rent_blue" transform="translate(0.000000, 10.000000)" fill="#1A5DC6" fill-rule="nonzero">
            <path d="M40.6160909,6.77421053 L40.6216818,6.75947368 L21.8231818,-9.45473684 L21.8231818,-9.45289474 C21.484,-9.79 21.0180909,-10 20.5,-10 C19.9819091,-10 19.516,-9.79 19.1768182,-9.45289474 L19.1768182,-9.45473684 L0.378318182,6.75947368 L0.383909091,6.77421053 C0.156545455,6.94368421 0,7.19789474 0,7.5 C0,8.00842105 0.417454545,8.42105263 0.931818182,8.42105263 L5.59090909,8.42105263 L5.59090909,23.1578947 C5.59090909,24.1747368 6.42581818,25 7.45454545,25 L33.5454545,25 C34.5741818,25 35.4090909,24.1747368 35.4090909,23.1578947 L35.4090909,8.42105263 L40.0681818,8.42105263 C40.5825455,8.42105263 41,8.00842105 41,7.5 C41,7.19789474 40.8434545,6.94368421 40.6160909,6.77421053 Z" id="Shape"></path>
        </g>
    </g>
</svg>