<?xml version="1.0" encoding="UTF-8"?>
<svg width="34px" height="34px" viewBox="0 0 34 34" version="1.1" xmlns="http://www.w3.org/2000/svg" xmlns:xlink="http://www.w3.org/1999/xlink">
    <!-- Generator: Sketch 61 (89581) - https://sketch.com -->
    <title>Shape</title>
    <desc>Created with Sketch.</desc>
    <g id="Symbols" stroke="none" stroke-width="1" fill="none" fill-rule="evenodd">
        <g id="Artboard" transform="translate(-2.000000, -2.000000)" fill="#1A5DC6" fill-rule="nonzero">
            <path d="M14,4 C11.2375,4 9,6.08833333 9,8.66666667 C9,11.868 11.70996,18.9251303 11.70996,18.9251303 C12.09496,19.7511303 12.9725,20.3333333 14,20.3333333 L16.5,20.3333333 L16.5,36.6666667 L19,39 L24,39 L26.5,36.6666667 L26.5,34.305989 L24,32 L26.5,29.6666667 L26.5,27.3333333 L24,25 L26.5,22.6666667 L26.5,20.3333333 L29,20.3333333 C30.0275,20.3333333 30.90504,19.7511303 31.29004,18.9251303 C31.29004,18.9251303 34,11.868 34,8.66666667 C34,6.08833333 31.7625,4 29,4 L21.5,4 L14,4 Z M16.5,8.66666667 L26.5,8.66666667 C27.88,8.66666667 29,9.712 29,11 C29,12.288 27.88,13.3333333 26.5,13.3333333 L16.5,13.3333333 C15.12,13.3333333 14,12.288 14,11 C14,9.712 15.12,8.66666667 16.5,8.66666667 Z" id="Shape" transform="translate(21.500000, 21.500000) rotate(-45.000000) translate(-21.500000, -21.500000) "></path>
        </g>
    </g>
</svg>