<svg xmlns="http://www.w3.org/2000/svg" width="102" height="28" viewBox="0 0 102 28"><g><g><g><g><g><g><path fill="#0d47a1" d="M14.057 4.151l8.17 4.266v10.54s.027.362-.056.585c-.083.223-.584.446-.584.446l-3.918 2.147s-.222.083-.222.25c0 .168.112.23.112.23l4.44 2.37s.116.071.255.077c.14.006.234-.045.256-.056.434-.213 4.895-2.41 5.08-2.648.194-.251.194-.725.194-.725V11.205l-1.99-3.77c-.528-.997-1.783-2.186-2.806-2.655L13.89.61z"/></g><g><path fill="#2196f3" d="M.141 22.421c.056.112.146.243.146.243L6.8 27.808s.149.134.287.078c.14-.056.14-.279.14-.279V11.492s.027-.196.083-.307a.835.835 0 0 1 .19-.22l7.543-5.211s.21-.165.415-.166c.205-.002.438.166.438.166l11.894 5.487-2.6-5.244s-.07-.151-.234-.305c-.164-.153-.361-.253-.361-.253L13.119.255s-.3-.189-.667-.195c-.367-.006-.667.251-.667.251L.302 8.341s-.155.104-.216.223c-.062.12-.056.307-.056.307v13.244s.056.195.111.306z"/></g></g></g><g><path fill="#0d47a1" d="M98.203 9.548V11.6c.53-1.43 1.5-2.143 2.908-2.143.319 0 .576.022.773.068v2.644a2.868 2.868 0 0 0-1.159-.227c-.742 0-1.348.303-1.817.911-.47.608-.705 1.368-.705 2.28v5.973h-2.75l.024-11.558zm-7.96.046v2.052c.53-1.43 1.499-2.143 2.907-2.143.319 0 .576.022.773.068v2.644a2.868 2.868 0 0 0-1.159-.228c-.742 0-1.348.304-1.818.912-.47.608-.704 1.368-.704 2.28v5.973h-2.75l.024-11.558zm-9.838 2.055c-.873 0-1.543.36-2.01 1.08-.467.72-.7 1.625-.7 2.713 0 1.073.237 1.97.712 2.69.474.72 1.148 1.081 2.02 1.081.904 0 1.585-.352 2.044-1.058.46-.705.69-1.601.69-2.69 0-1.119-.223-2.035-.667-2.747-.444-.713-1.14-1.07-2.09-1.07zm.034 9.503c-1.728 0-3.077-.534-4.046-1.604-.97-1.069-1.454-2.435-1.454-4.098 0-1.723.503-3.145 1.51-4.266 1.007-1.12 2.337-1.681 3.99-1.681 1.758 0 3.118.545 4.08 1.637.962 1.091 1.443 2.476 1.443 4.154 0 1.708-.485 3.111-1.454 4.21-.97 1.099-2.326 1.648-4.069 1.648zm-10.015-9.386v5.738c0 .475.126.834.379 1.08.252.244.6.366 1.046.366.564 0 1.084-.156 1.559-.467v2.291c-.52.252-1.188.378-2.004.378-2.435 0-3.652-1.23-3.652-3.692v-5.694h-1.693V9.764h1.693V7.05h2.672v2.714h2.806v2.002zM57.182 9.639v1.975c.66-1.407 1.855-2.111 3.586-2.111 1.165 0 2.085.348 2.759 1.044.674.697 1.011 1.68 1.011 2.952v7.653H61.78v-7.085c0-.757-.184-1.328-.552-1.714-.368-.387-.866-.58-1.494-.58-.72 0-1.326.277-1.816.83-.49.552-.736 1.343-.736 2.372v6.177h-2.758V9.64zm-4.992 8.426v2.344c-.776.495-1.897.743-3.361.743-1.772 0-3.171-.54-4.196-1.622-1.026-1.082-1.538-2.479-1.538-4.191 0-1.818.483-3.245 1.45-4.282.966-1.036 2.175-1.554 3.625-1.554 1.45 0 2.6.45 3.449 1.352.85.9 1.274 2.215 1.274 3.943 0 .42-.051.961-.154 1.622h-6.986c.19.826.59 1.457 1.197 1.893.608.436 1.366.653 2.274.653 1.172 0 2.16-.3 2.966-.9zm-1.762-3.711v-.336c-.029-.733-.219-1.32-.571-1.761-.352-.442-.866-.662-1.542-.662-.618 0-1.154.235-1.606.706-.453.472-.744 1.156-.874 2.053zM38.19 9.594v2.052c.53-1.43 1.5-2.143 2.909-2.143.318 0 .575.022.772.068v2.644a2.868 2.868 0 0 0-1.159-.228c-.742 0-1.348.304-1.817.912-.47.608-.705 1.368-.705 2.28v5.973H35.44l.023-11.558z"/></g></g></g></g></svg>