<svg width="20" height="20" viewBox="0 0 20 20" xmlns="http://www.w3.org/2000/svg"><path fill-rule="evenodd" clip-rule="evenodd" d="M12.9664 2.58269L18.0147 0.625488C18.7265 0.350388 19.5 0.858588 19.5 1.60094V8.51414V16.2999C19.5 16.7293 19.2303 17.1157 18.8197 17.2753L13.403 19.3753C13.1647 19.4677 12.9003 19.4751 12.6577 19.3963L12.6544 19.3953L6.53358 17.4181L1.48525 19.3753C0.7735 19.6504 0 19.1422 0 18.3999V3.69989C0 3.27044 0.26975 2.88509 0.680333 2.72444L6.097 0.624438C6.33533 0.532038 6.59967 0.524688 6.84233 0.603438L9.75325 1.54319V1.54424L12.9664 2.58269ZM6.49996 2.73179V15.1932L12.9664 17.2827L13 17.269V4.80764L6.53354 2.71814L6.49996 2.73179Z"></path></svg>
