<svg xmlns="http://www.w3.org/2000/svg" width="56" height="56" viewBox="0 0 56 56"><g><g><g><path fill="#dfebff" d="M28 56c15.464 0 28-12.536 28-28S43.464 0 28 0 0 12.536 0 28s12.536 28 28 28z"/></g><g><g><path fill="#1a5dc6" d="M28.999 29.059a1.268 1.268 0 0 1-.071.401.74.74 0 0 1-.439.467 1.17 1.17 0 0 1-.438.073h-1.044v-4h1.044c.172 0 .32.025.436.072a.745.745 0 0 1 .44.464c.043.118.068.252.072.399zM23 27v1h-2v-1c0-.551.449-1 1-1 .551 0 1 .449 1 1z"/></g><g><path fill="#1a5dc6" d="M34 31.009c-1.02 0-1.725-.508-1.935-1.393a.5.5 0 1 1 .973-.231c.069.291.241.625.962.625.907 0 .995-.563 1-.735 0-.148-.029-.276-.082-.351-.161-.231-.745-.368-1.172-.467-.388-.091-.754-.176-1.018-.344-.449-.287-.728-.776-.728-1.278 0-.525.208-.984.602-1.328.4-.35.809-.499 1.365-.499.368 0 .656.073.995.251a1.907 1.907 0 0 1 .931 1.079.5.5 0 0 1-.946.322.889.889 0 0 0-.45-.516.985.985 0 0 0-.529-.136c-.352 0-.52.089-.707.252a.716.716 0 0 0-.261.575c0 .16.104.33.264.432.121.077.434.149.71.214.648.152 1.384.324 1.764.868.174.25.262.563.262.932 0 .481-.359 1.728-2 1.728zm-4-1.995c0 .286-.044.55-.133.793a1.82 1.82 0 0 1-.386.63 1.753 1.753 0 0 1-.612.414c-.24.1-.513.149-.818.149h-1.044a1 1 0 0 1-1-1v-4a1 1 0 0 1 1-1h1.044c.305 0 .578.049.818.148.24.099.444.237.612.414.168.177.296.387.386.63.089.244.133.509.133.794l-.001.014v2l.001.014zM24 30.5a.5.5 0 0 1-1 0V29h-2v1.5a.5.5 0 0 1-1 0V27a2 2 0 1 1 4 0zM37 20H19c-1.103 0-2 .897-2 2v12c0 1.103.897 2 2 2h18c1.103 0 2-.897 2-2V22c0-1.103-.897-2-2-2z"/></g></g></g></g></svg>