<svg xmlns="http://www.w3.org/2000/svg" width="24" height="24" viewBox="0 0 24 24"><defs><clipPath id="jvkba"><path fill="#fff" d="M20 21.5a1 1 0 0 1 1-1h12a1 1 0 0 1 1 1v6a1 1 0 0 1-1 1H21a1 1 0 0 1-1-1z"/></clipPath></defs><g><g><g><g><g><path fill="none" stroke="#666b7c" stroke-miterlimit="50" stroke-width="2" d="M20 21.5a1 1 0 0 1 1-1h12a1 1 0 0 1 1 1v6a1 1 0 0 1-1 1H21a1 1 0 0 1-1-1z" clip-path="url(&quot;#jvkba&quot;)"/></g><g transform="rotate(90 17 24.5)"><path fill="#e0e1e5" d="M13.5 25v.5H13v-2h.5v.5h7v-.5h.5v2h-.5V25z"/></g><g><path fill="#e0e1e5" d="M20.5 18.5v.5H20v-2h.5v.5h13V17h.5v2h-.5v-.5z"/></g></g></g></g></g></svg>