<?xml version="1.0" encoding="UTF-8"?>
<svg width="18px" height="12px" viewBox="0 0 18 12" version="1.1" xmlns="http://www.w3.org/2000/svg" xmlns:xlink="http://www.w3.org/1999/xlink">
    <!-- Generator: Sketch 60 (88103) - https://sketch.com -->
    <title>Group 13</title>
    <desc>Created with Sketch.</desc>
    <g id="Landing" stroke="none" stroke-width="1" fill="none" fill-rule="evenodd">
        <g id="M-01-12" transform="translate(-187.000000, -950.000000)">
            <g id="Property-02" transform="translate(48.000000, 627.000000)">
                <g id="Listing-details" transform="translate(24.000000, 318.000000)">
                    <g id="Icons/Square_default" transform="translate(115.000000, 5.000000)">
                        <g id="Group-13">
                            <rect id="Rectangle" stroke="#666B7C" x="4.5" y="4" width="13" height="7" rx="1"></rect>
                            <path d="M5,8.5 L4.5,8.5 L4.5,8 L-2.5,8 L-2.5,8.5 L-3,8.5 L-3,6.5 L-2.5,6.5 L-2.5,7 L4.5,7 L4.5,6.5 L5,6.5 L5,8.5 Z" id="Combined-Shape" fill="#E0E1E5" transform="translate(1.000000, 7.500000) rotate(90.000000) translate(-1.000000, -7.500000) "></path>
                            <path d="M18,2 L17.5,2 L17.5,1.5 L4.5,1.5 L4.5,2 L4,2 L4,0 L4.5,0 L4.5,0.5 L17.5,0.5 L17.5,0 L18,0 L18,2 Z" id="Combined-Shape" fill="#E0E1E5"></path>
                        </g>
                    </g>
                </g>
            </g>
        </g>
    </g>
</svg>