<?xml version="1.0" encoding="UTF-8"?>
<svg width="12px" height="16px" viewBox="0 0 12 16" version="1.1" xmlns="http://www.w3.org/2000/svg" xmlns:xlink="http://www.w3.org/1999/xlink">
    <!-- Generator: sketchtool 55.2 (78181) - https://sketchapp.com -->
    <title>999D8794-4F04-470E-A8D7-D1CAB6399E10</title>
    <desc>Created with sketchtool.</desc>
    <g id="Landing" stroke="none" stroke-width="1" fill="none" fill-rule="evenodd">
        <g id="M-01-15" transform="translate(-50.000000, -498.000000)">
            <g id="Listing" transform="translate(48.000000, 383.000000)">
                <g id="Icons/Pin" transform="translate(0.000000, 115.000000)">
                    <g id="Icons/search">
                        <rect id="Bound" x="0" y="0" width="16" height="16"></rect>
                        <path d="M8.00660502,15 C7.70937913,15 7.42536328,14.8220641 7.22060766,14.5160142 L3.91149273,9.54092527 C3.35667107,8.70106762 3,7.46263345 3,6.38790036 C3,3.41992883 5.24570674,1 8,1 C10.7542933,1 13,3.41992883 13,6.38790036 C13,7.44839858 12.6433289,8.70106762 12.1149273,9.4911032 L8.73976222,14.5658363 C8.54821664,14.8434164 8.29062087,15 8.00660502,15 C8.00660502,15 8.00660502,15 8.00660502,15 Z M7.99339498,1.45551601 C5.47027741,1.45551601 3.41611625,3.66903915 3.41611625,6.38790036 C3.41611625,7.3772242 3.74636724,8.5088968 4.24834875,9.27758007 L7.55746367,14.252669 C7.68295905,14.4377224 7.84147952,14.544484 8,14.544484 C8,14.544484 8,14.544484 8,14.544484 C8.14531044,14.544484 8.27741083,14.4590747 8.38309115,14.3024911 L11.7582563,9.22775801 C12.2338177,8.51601423 12.5640846,7.34875445 12.5640846,6.38790036 C12.5706737,3.66903915 10.5165125,1.45551601 7.99339498,1.45551601 Z M7.99339498,8.38790036 C6.96961691,8.38790036 6.13738441,7.4911032 6.13738441,6.38790036 C6.13738441,5.28469751 6.96961691,4.38790036 7.99339498,4.38790036 C9.01717305,4.38790036 9.84940555,5.28469751 9.84940555,6.38790036 C9.84940555,7.4911032 9.01717305,8.38790036 7.99339498,8.38790036 Z M7.99339498,4.85053381 C7.2007926,4.85053381 6.56010568,5.54092527 6.56010568,6.39501779 C6.56010568,7.24911032 7.2007926,7.93238434 7.99339498,7.93238434 C8.78599736,7.93238434 9.42668428,7.24199288 9.42668428,6.38790036 C9.42668428,5.53380783 8.78599736,4.85053381 7.99339498,4.85053381 Z" id="Shape" stroke="#3C404E" stroke-width="0.5" fill="#3C404E" fill-rule="nonzero"></path>
                    </g>
                </g>
            </g>
        </g>
    </g>
</svg>