<svg xmlns="http://www.w3.org/2000/svg" width="56" height="56" viewBox="0 0 56 56"><g><g><g><path fill="#dfebff" d="M28 56c15.464 0 28-12.536 28-28S43.464 0 28 0 0 12.536 0 28s12.536 28 28 28z"/></g><g><g><path fill="#1a5dc6" d="M28.13 22.133c1.516 0 2.75-1.151 2.75-2.566 0-1.416-1.234-2.567-2.75-2.567s-2.75 1.151-2.75 2.567c0 1.415 1.234 2.566 2.75 2.566z"/></g><g><path fill="#1a5dc6" d="M30.607 23.842l-.617-.207a.676.676 0 0 0-.647.123l-1.218.998-1.218-.998a.675.675 0 0 0-.647-.123l-.617.207C24.66 24.201 24 25.203 24 26.337v4.011c0 .155.041.306.12.436l1.228 2.047v5.376c0 .438.325.793.725.793h4.104c.4 0 .725-.355.725-.793v-5.376l1.229-2.047c.078-.13.119-.281.119-.436v-4.01c0-1.135-.66-2.137-1.643-2.496z"/></g></g></g></g></svg>